<?xml version="1.0" encoding="utf-8"?><svg version="1.1" id="Layer_1" xmlns="http://www.w3.org/2000/svg" xmlns:xlink="http://www.w3.org/1999/xlink" x="0px" y="0px" viewBox="0 0 122.88 122.88" style="enable-background:new 0 0 122.88 122.88" xml:space="preserve"><style type="text/css"><![CDATA[
	.st0{fill-rule:evenodd;clip-rule:evenodd;}
]]></style><g><path fill="#514100" class="st0" d="M61.44,0c16.96,0,32.33,6.88,43.44,18c11.12,11.12,18,26.48,18,43.44c0,16.97-6.88,32.33-18,43.45 c-11.12,11.12-26.48,18-43.44,18S29.11,116,18,104.88C6.88,93.77,0,78.41,0,61.44C0,44.48,6.88,29.11,18,18 C29.11,6.88,44.48,0,61.44,0L61.44,0z M78.6,48.67l-11.09,1.75c-0.56-1.4-1.06-2.37-1.5-2.91c-0.45-0.54-1.18-1.09-2.21-1.64v8.6 c6.03,1.62,10.05,3.31,12.08,5.09c2.67,2.41,4.01,5.45,4.01,9.14c0,2.15-0.48,4.15-1.44,5.94c-0.97,1.81-2.2,3.31-3.69,4.53 c-1.49,1.21-3.09,2.08-4.77,2.63c-1.69,0.55-3.75,0.86-6.19,0.96v3.99h-4.33v-3.99c-2.92-0.25-5.28-0.72-7.1-1.4 c-1.81-0.68-3.38-1.63-4.7-2.83c-1.31-1.2-2.34-2.5-3.05-3.89c-0.71-1.39-1.25-3.08-1.61-5.05l12.01-1.39 c0.36,1.95,0.84,3.36,1.45,4.23c0.6,0.86,1.61,1.63,3,2.31V64.22c-4.02-1.11-6.87-2.07-8.54-2.88s-3.13-2.12-4.36-3.92 c-1.23-1.8-1.85-3.98-1.85-6.56c0-3.54,1.24-6.49,3.71-8.86c2.48-2.38,6.16-3.7,11.04-3.95v-1.9h4.33v1.9 c4.45,0.27,7.85,1.32,10.21,3.15C76.34,43.01,77.89,45.5,78.6,48.67L78.6,48.67z M59.46,45.72c-1.28,0.42-2.16,0.93-2.66,1.54 c-0.5,0.61-0.75,1.34-0.75,2.17c0,0.86,0.25,1.63,0.76,2.27c0.51,0.65,1.39,1.19,2.65,1.63V45.72L59.46,45.72z M63.79,75.04 c1.69-0.38,2.92-1.01,3.7-1.87c0.78-0.86,1.18-1.84,1.18-2.91c0-0.93-0.34-1.8-1-2.59c-0.66-0.78-1.96-1.51-3.88-2.18V75.04 L63.79,75.04z M61.44,17.24c24.41,0,44.2,19.79,44.2,44.19c0,24.41-19.79,44.2-44.2,44.2c-24.41,0-44.2-19.79-44.2-44.2 C17.24,37.03,37.03,17.24,61.44,17.24L61.44,17.24z M61.44,8.74c29.11,0,52.7,23.6,52.7,52.7c0,29.11-23.6,52.7-52.7,52.7 c-29.11,0-52.7-23.59-52.7-52.7C8.74,32.33,32.33,8.74,61.44,8.74L61.44,8.74z"/></g></svg>