<?xml version="1.0" encoding="utf-8"?>
<!-- Generator: Adobe Illustrator 25.4.1, SVG Export Plug-In . SVG Version: 6.00 Build 0)  -->
<svg version="1.1" id="Layer_1" xmlns="http://www.w3.org/2000/svg" xmlns:xlink="http://www.w3.org/1999/xlink" x="0px" y="0px"
	 viewBox="0 0 295 295" style="enable-background:new 0 0 295 295;" xml:space="preserve">
<style type="text/css">
	.st0{fill:url(#SVGID_1_);}
	.st1{fill:#C7C6C5;}
	.st2{fill:url(#SVGID_00000145753222657694758160000016642631152625677467_);}
	.st3{fill:url(#SVGID_00000160887578827366620820000005021160751607814842_);}
	.st4{fill:url(#SVGID_00000030469655562818577670000005747011396309583551_);}
	.st5{fill:url(#SVGID_00000013186553868756929400000000878600439678440092_);}
	.st6{fill:url(#SVGID_00000135665424740713613870000018344313635343468434_);}
	.st7{fill:url(#SVGID_00000136389190208320000790000011974440665350834606_);}
	.st8{fill:url(#SVGID_00000164516345824645919600000010953928254707266492_);}
	.st9{fill:url(#SVGID_00000034072421235616106460000012656799088595615920_);}
	.st10{fill:url(#SVGID_00000046338783356160995260000008574715976262712996_);}
	
		.st11{opacity:0.5;clip-path:url(#SVGID_00000139287607823599690190000014168647789081096589_);fill:url(#SVGID_00000116199733909425552230000011142373441750882475_);}
	
		.st12{opacity:0.5;clip-path:url(#SVGID_00000139287607823599690190000014168647789081096589_);fill:url(#SVGID_00000014619839040916373500000006011222078015197570_);}
</style>
<g>
	<g>
		
			<radialGradient id="SVGID_1_" cx="140.5277" cy="146.0086" r="144.9776" gradientTransform="matrix(0.8077 -0.5896 0.5896 0.8077 -51.8473 112.7)" gradientUnits="userSpaceOnUse">
			<stop  offset="0" style="stop-color:#27C9E6"/>
			<stop  offset="0.4232" style="stop-color:#1D95AB"/>
			<stop  offset="0.7813" style="stop-color:#156F7F"/>
			<stop  offset="0.9624" style="stop-color:#12606E"/>
			<stop  offset="0.97" style="stop-color:#136774"/>
			<stop  offset="0.9812" style="stop-color:#167B84"/>
			<stop  offset="0.9945" style="stop-color:#1A9B9E"/>
			<stop  offset="1" style="stop-color:#1CAAAB"/>
		</radialGradient>
		<path class="st0" d="M264.8,62.3c47.2,64.7,33,155.4-31.6,202.6c-64.7,47.2-155.4,33-202.6-31.6c-47.2-64.7-33-155.4,31.6-202.6
			C126.9-16.5,217.6-2.4,264.8,62.3z"/>
		<g>
			<path class="st1" d="M30.2,71.3c1.2-1.1,2.4-1.2,3.6-2.2c2.8-2.1,3.9-4.9,6-7.7c1.2-1.6,4.9-6.6,7.2-5.1
				c-0.1,0.7-1.2,2.8-0.5,3.5c0.9,0.9,2.4-0.6,3.1-0.7c0.1,1.5-0.3,3.6,0.2,4.9c2.3,0.3,2.3-2.4,2.6-3.9c0.3-1.9,0.6-3.3,1.6-5
				c0.8-1.4,1.5-2.2,2-3.8c0.5-1.6,0.4-3.2,1.2-4.7c1.6-2.9,3.9-5,5.9-7.4c1.1-1.3,2.6-2.2,3.7-3.5c1.3-1.4,2.2-2.9,3.4-4.3
				c1.8-2,5.2-6.3,8.3-5.8c-1.1,1.9-4,3-5,5c-0.7,1.3-0.1,1.6-1.4,2.6c-1,0.8-2.8,1.2-2.6,2.9c0.8,0,1.5-0.2,1.9,0.5
				c1.5-0.1,2.7-2.2,3.8-1c1.4,1.5-1.3,2.8-1,4c0.4,1.7,2.7-1.4,3.1-2.1c0.6-1.4,0.7-3.1,1.6-4.3c1.1-1.5,3.1-2.6,4.4-3.9
				c1.2-1.2,2.2-1.9,3.7-2.6c1.7-0.8,3.6-1.5,5.1-2.5c1-0.6,2.2-2,3.5-1.8c0,0,0.2,0.3,0.2,0.3c0.8-0.6,1.8-1.2,2.6-1.8
				c0.7-0.5,1.6-1.5,2.3-1.9c2.1-1.3,5.3-2.4,7.7-3.5c1.5-0.6,2.2-2.1,3.7-2.3c0.6-0.1,0.9,0.3,1.7-0.1c0.7-0.3,1.2-1,1.7-1.4
				c1.1-0.7,8.2-1.7,7.3-3.4c-0.8-1.4-8.5,0-9.9,0c-2.6,0.1-5.1,0.4-7.7,0.9C90.2,14,75.9,21.1,62.6,30.8c-6.3,4.6-12.1,9.6-17.5,15
				c-5.1,5.5-9.9,11.3-14.4,17.4c-1.2,1.7-2.5,3.3-3.7,4.9c-1.4,2.2-2.8,4.4-4.1,6.6c-0.6,1.3-1.1,2.7-1.3,4.2
				c1.8-1.6,3.9-3.1,5.7-4.7C28.3,73.4,29.1,72.2,30.2,71.3z"/>
			<path class="st1" d="M109.4,36.8c-1.8-0.5-2.2,1-3.5,1.5c0-0.3-0.1-0.7-0.1-1c-0.9,0-1.7,0.1-2.5,0.2c-0.1-0.2-0.1-1.3,0-1.7
				c0.1-0.1,0.5-0.2,0.7-0.4c0-0.3-0.3-0.4-0.2-0.7c0.8-0.6,0.6-0.9,0.7-1.8c-0.1-0.1-0.4-0.4-0.5-0.5c-0.7,0.2-2.2,0.9-2.5,1
				c-0.6,0.3-1.7-0.3-1.6,1.1c-1.1,0.3-3.4,0.9-3.6,1.2c-1.3,2.1,2,1.3,1,3.1c-1.2-0.9-2.4-0.6-3.6-0.4c-0.8,0.4-1.7,0.6-2.5,0.7
				c0.6,2,0.1,1.7-0.8,3.1c-0.2,0.4-1,0.3-1.3,0.8c-0.4,0.5,0.3,1.5-0.1,2c-1.2,1.7-6,1.9-4.3,4.9c1.5-1.3,3.1,0.7,4.3-1
				c0.9,0.5,4.1-2.2,4.7-3c0.8-1.1,0.6-2,1.7-2.7c0.3-0.2,2,0,2.6-0.2c-0.5,2-4,3.5-4.2,5.4c-0.3,2.2,1.3,1,2.2,0.5
				c0.4-0.3,0.7-3.1,1.9-0.8c1.5-0.5,3.9-1.7,4.3-3.3c0.5,0.7,1.3,1.1,2.3,1c0.4-1.4,2.1-1.7,1.9-3.6c0.2,0.1,0.7,0.2,1,0.5
				c0.8-0.8,0.4-1.9-0.2-2.6C108.9,39.8,109.2,38.1,109.4,36.8z"/>
			<path class="st1" d="M164.9,232.1c-0.1-0.2-0.2-0.5-0.4-0.7c0,0-0.1,0-0.1,0L164.9,232.1z"/>
			<path class="st1" d="M278.6,99.7c-4.6-12.7-5-25-13.4-36.5C236.3,23.7,191.4,3,146,3.4c-1.2,0.6-2.2,1.4-2.7,2.3
				c-0.8,1.5-0.7,0.9,0.1,2c0.8,1.1,4.4,0.9,5,1.7c2.2,2.9-3.1,1.8-2.3,4c-0.9,0.4-4.5-0.5-2.1,2c-0.2,0.1-0.5,0.1-0.6,0.2
				c0.3,2.6,2.4,1.7,4.4,2c2.5,0.4,3.8,2,1.3,3.6c0.9,1.2,1.3,3.3-0.7,3.6c-0.8-2.4-1.5,0.3-2.3,0.1c-0.9-0.2-1.7-0.9-0.7-2.2
				c-1.2,0.1-2.6-0.1-3.6-0.5c0.3-0.1,0.8-0.6,1.1-0.7c-0.8-0.1-2.6,0.5-3.1,0c-1-1,0.2-1.7,1.1-1.8c-1.2-0.3-2.2-0.2-3.1-0.8
				c0.8-0.8,2-1.1,2.7-2.1c-0.9-1.1-3.4-0.7-4.6-0.8c-1.6-0.1-3.4-0.9-5-0.7c-3.8,0.6-6.9,1.5-9.1,4.4c-2.3,3.1-5.6,3.1-8.8,5.2
				c-2.1,1.4-5.7,4.7-5.4,7.4c0.2,0.3,0.4-0.1,0.5-0.1c-0.8,3.1,4,1.3,2.6-1.3c0.6,0.3,0.9,0,1.5,0.5c0.6-0.7,3-5.3,3.7-1.6
				c1.4-0.1,1.5-1.5,3-1.2c0,2-0.5,4.4-0.2,6.4c2.3,0.6,5.6-2.3,4.6-4.6c2.7-0.6,0.5-3.3,1.2-5c0.2-0.5,1.6-2.1,1.9-2.3
				c0.8-0.7,0.9-1.5,2.6-1.3c0.3,1.7-1.5,2.6-1.2,4.3c2.9,0.3,2.6,2,5.7,0.6c1.8-0.8,3.8-1.8,3.6,1.4c1.7,0.6,3.8-0.3,5.4,0.3
				c0.7,0.2,0.8,1,1.3,1.3c0.3,0.2,2.1,0.5,2.2,0.6c3.8,4.5-5.2,2.2-5.6,2.5c-0.9-1.9-4.5-0.4-5.2,1c-1,2,1.6,2.9-1.6,3
				c-0.9,0-1.2-0.6-2.6-0.1c-0.9,0.3-1.3,1.2-2.3,1.6c-0.8,0.3-2.2,0.3-3.1,0.5c-0.7,0.2-2.6,1.2-3.1,1.2c-1.7,0-3-1.9-5.2-1.2
				c-1.6,0.4-1.4,1.1-2.6,2c-1,0.7-2.2,0.3-3,0.9c-2.1,1.3-1.1,3.8-2.3,5.5c-0.5,0.7-1.6,0.7-2.2,1.4c-0.6,0.7-0.5,1.8-1.3,2.6
				c-1.2-0.1-2,0-3-0.4c-1.3,1.8-4.9-0.6-6,2.3c0.3,0,0.7,0.1,1,0.1c-0.4,0.4-0.5,1.1-0.7,1.5c4.5-0.2,2.2,4.9-0.3,6.3
				c-0.9-0.9-2.9,0.7-4.1,1c-0.5,0.1-0.6,0.8-1,0.8c-0.5,0-0.6-0.6-1-0.6c-1.3,0.2-2.1,0.6-3-0.3c-1,0.9-1.6,2.2-2.2,3.4
				c-0.7,1.6-0.8,2.6-1.1,4.6c-0.4,2.6-4.6,8.2,1,7.2c1.1-0.2,2.8-1.6,3.9-2.1c0.5-0.2,0.6-1,1-1.2c0.5-0.2,1.1,0.2,1.6,0
				c0.9-0.4,1.8-0.6,2.6-1.3c1-1,1.8-2.1,2.8-3.2c0.7-0.8,2.3-2.7,2.4-3.8c5.5,0.2,1.2-3.8,4.7-5.2c1.8-0.7,2.7,1,4.5-0.1
				c0.8-0.5,0.6-1.6,1.3-2.1c0.7-0.5,1.4-0.2,2.1-0.5c1.8-0.8,1.8-1.3,3.9-0.7c0.5,0.2,0.9,0.8,1.6,1c0.7,0.3,1.4,0,2.1,0.2
				c1.5,0.5,6.7,4.6,7.1,0.4c-2.1-0.1-6.5-0.9-5.6-3.9c5-2.1,7.8,1.6,11.3,3.8c1.3,0.8,3.4,2.1,4.2,3.8c0.9,2-0.1,4.6,3.3,3.9
				c0.1-0.4,0.4-1.3,0.5-1.7c0-0.1-0.3-0.4-0.4-0.5c2.1-1,0.1-1.5,0-2.4c-0.1-0.5-0.9-0.2-0.6-1.4c0.1-0.5,1.6-0.4,1.8-1
				c0.5-1.5-2.1-1.6,0.3-2.6c1.4-0.6,3.1-0.1,2.4,1.5c0.9,0.4,1.2,1.1,1,2.1c0.3,0,0.6,0.1,1,0.1c0.4,1.7-0.6,4.6,1.3,5.4
				c0,0.3,0.1,0.9,0.1,1.2c2.3,0.3,3.6-0.9,5.7-1.5c1.3-0.4,4-1.6,5.4-1.3c1.1,0.2,0.9,1.3,2.1,1.2c0.8-0.1,1.6-1.5,2.3-1.8
				c3.2-1.6,1.7,0.7,2.8,2.7c-0.4-0.1-0.7-0.1-1.1-0.3c0.8,0.6,1.7,1.2,2.4,1.7c-1.4,0.2-2.5-0.3-3.9-0.2c1,0.2,3.6,1,3.4,2.8
				c0.5,0,1,0.1,1.5,0c0,0.3,0,0.5-0.1,0.7c-0.2,0.3-0.3,0.4-0.5,0.8c-0.4,0-0.8,0.1-1.2,0.1c0,1.1-0.8,1.6-1.8,1.5
				c-0.1-0.2-0.2-0.5-0.4-0.7c-1.2,0.8-6.9,3.3-7.2,1.3c-0.8-0.1-1.2-0.4-2-0.1c-0.4-1-1.3-1.5-2.4-1.5c-0.7,1-0.2,2.1-0.7,2.9
				c-0.6,1-1.8,1-2.4,2.2c0.6,0.7,0.5,1.6-0.1,2.4c-2-0.1-1.3-2-2.6-2.8c-0.5-0.3-1.2,0.2-1.8-0.1c-0.6-0.2-1.9-1-2.5-1.1
				c-5.1-0.7-0.2,5.3-3.9,5.7c-0.5-0.4-9.6,4.1-8.6,0.6c-2.7-0.3-0.3-1.6-0.9-2.7c-0.9-1.3-2.5-0.6-3.7-0.5c-1.5,0.1-8,0.3-5.7-3.3
				c-0.3-0.1-0.6-0.3-1-0.4c0.5-2.1-0.5-2.7-1.4-4.3c-1.4-0.7-2.1,0.6-3.3,1c-1.1,0.4-3.2,0.3-4.2,0.3c-1.8,0-6.2-0.3-7.2,2
				c-3.2,0.3-4.5,1.9-7,3.7c-1.8,1.3-1.5,1.4-3.4,0.8c-1.2-0.4-2.9-2.1-3.6-0.1c-1.5-0.3-1.9,0.5-2.8,1.3c-0.5,0.5-2.2,1.9-2.5,2.4
				c-1.1,1.8-1.2,5.5-3.4,6.4c0.2,1.4-1.6,2.8-2.4,3.8c-1.3,1.8-2,2.1-4.1,3.2c0.1,1.4-2.1,3.4-3.1,4.3c0.3,0.1,0.6,0.3,1,0.4
				c-0.4,2-3.4,3.8-4.1,5.9c0.4-0.1,1,0.1,1.5,0.1c-0.2,1.5,1,2.7,0.3,4.1c-1.9-0.1-2.4,1.8-4.1,2.2c0.3,0.9-0.2,0.8,0.7,1.3
				c-0.6,1-1.5,3.3-1.3,4.6c0.4,2.1,1.4,2.1,0.6,4.4c-1.1,3.1-3.6,5.1-3.6,8.2c0.3,0,0.6,0.1,1,0.1c0.6,0.7,1,1.6,0.9,2.5
				c0.4,0,0.9,0.1,1.2,0.1c0.5,1,0.4,2.1-0.2,3c0.2,0.7,0.7,1.4,1.3,1.8c0.1-0.3,0.4-0.7,0.6-1c2.6-0.4,3.4,3.7,4.7,5.4
				c0.9,1.2,1.3,1.9,2,3.1c0.6,1,0.8,2.5,1.3,3.4c0.7,1.2,1.9,1.3,2.8,2.3c1.2,1.4,0.6,2.5,2.9,2.9c2.1,0.3,6.1-0.7,6-3.3
				c1.5-0.4,1.9,1,3.1,1c1.2,0,1.6-0.5,2.8-0.5c1.8,0,4.1,2,4.7-1.5c1.6,0,2.3-1.4,3.3-2.3c1.2-1,3.1-1.1,4.1-1.9
				c1.8-1.5,2.1-7.1,4.7-3.8c0.1,0.2,0,0.5,0.1,0.7c2.7-0.3,3.7,3.3,4.6,5c0.3,0.6,0.6,3.5,0.8,3.6c1.4,0.9,3.1-0.7,3.2-2.1
				c1.1-0.3,1.5,0.7,2.5,0.4c0.8-0.2,1.3-1.2,2.4-1.5c0.8-0.2,2.2-0.1,2.9,0.2c1.7,0.7,0.6,0.6,1.5,1.9c1,1.4,2.2,2.9,2.4,4.9
				c0.2,2.3-1.5,4.2-1.6,6.5c-0.1,2.2,1,3.1,2.4,4.3c1.4,1.2,2,2.3,3.5,3.5c1.8,1.4,10.4,2.3,7,5.3c3.6,0.1,0.8,2.4,1.7,4
				c0.1,0.1,0.1,0.2,0.2,0.4c-0.9,1.7-1.1,3.9,1.6,4.3c-0.1,1.1,0.1,1.8,0.1,2.8c0,0.4-0.9,0.7-0.8,1c0.1,0.6,1.2,1,1.3,1.4
				c0.1,1.8-0.6,2.9-1.8,4.5c-1.4,1.8-2.5,2.3-3.2,4.5c-0.4,1.2-0.5,1.1-0.5,2.3c0-0.1,0.5,3.2,0.5,3.2c0.6,1.5,3.6,2.3,5.1,2.9
				c2.2,0.9,2.7,2.3,4.1,3.1c0.9,0.5,1.9,0,2.9,0.2c1,0.2,1.6,0.8,2.6,1c2.5,0.5,4.4-0.2,2.1,2.3c-0.7,0.8-2.1,0.5-2,2
				c2.7,1.3-3,4.1-0.6,6.3c0.9,0.9,2.8,0.3,3.6,1.2c1,1,0.1,3.1,1.8,3.9c0.1,0.4,0.1,0.8,0.1,1.2c0.9,0.5,0.5,0.3,1,1
				c1.3,0.1,3,1.7,3.7,2.9c0.5,0.2,0.3,0.5,0.6,1.2c0.1,0.2-0.4,0.8-0.2,1.2c0.1,0.4,0.9,0.2,1,0.5c0.5,1.6,0.6,2.4,0.5,4.2
				c2.1,0.3,4.2,0.6,4.1,3.1c2.1,0.3,1.6-2,2.2-3.3c0.6-1.3,1.3-2,2.3-3.2c1.5-1.8,0.5-1.3,2.9-2c1.5-0.4,3.1-0.5,3.1-2.5
				c3.4-0.2,5.7-1.7,8.6-3.1c1.5-0.7,2.8-1.1,3.8-2.7c1.3-2,0.2-2.2,0.5-4c-2.5-0.9,0.4-4-2.5-4.5c0.9-3,6.1-1,6.5-3.8
				c1.7-0.7,3.1-0.9,4.3-2.4c1.4-1.7,1.5-3,0.8-4.4c-0.4-0.8-1.1-1.5-1.6-2.3c-0.4-0.8,0.3-0.8-0.7-1.9c-1.3-1.4-3.3-0.8-3.7-2.8
				c-0.5-2.6,2.4-2.3,4.2-2.8c2.9-0.9,2.3-2.2,4.1-4.2c0.7-0.7,1.9-0.7,2.4-1.3c0.6-0.8,0.2-2.4,0.7-3.3c0.5-0.8,1.4-0.9,1.8-2.1
				c0.3-0.8,0.4-1.4,0.5-2.3c-0.4-0.4,0.2-3,0-4.2c-0.3-1.9-1.4-3.3-0.8-5.1c-0.4-0.1-0.6-0.3-0.9-0.3c1.1-2.8-1.8-3.1-3.7-3.6
				c0,0-0.1,0-0.1,0c-0.1-0.2-0.1-0.3-0.2-0.4c-0.6-1.1-1.4-1.9-2.3-2.8c-1-1-2.3-1.2-2.6-2.6c-1.4-0.5-7.8,0.8-5.1-2.8
				c0.9-1.2,2.7-0.6,3.8-1.1c1.7-0.8,1.3-0.8,1.9-2.8c0.5,0.2,1.4,0,2,0.2c0.7-1.5-0.1-3.7,0.6-5.1c0.3-0.7,1.7-1.2,2.3-1.8
				c1-1,0.8-1.1,1.3-2.3c0.8-1.8,1.2-2.7,2.8-4.1c1.5-1.4,2-1.9,2.1-4.4c-0.4,0-0.8-0.1-1.2-0.1c-0.2-1.4,1.2-2,1.3-3.3
				c3.4-0.7,1.5-3.3,2.5-5.2c0.5-0.9,2.2-1,2.5-1.9c0.5-1.1-0.8-2.4-0.4-3.8c3-0.6,5.1-2.7,5.4-5.8c-0.2-0.1-0.5-0.2-0.7-0.3
				c-0.1-2.6,2.1-4.8,2.6-7.5c0.5-2.3,2.1-6.2,0.9-8.2c-2.6-0.4-1.6,2.7-2.6,3.8c-1.3,1.3-4.1-0.4-4.1,2.1c-2.3,0.3-2.8,3.4-4.9,4.1
				c-1.9,0.7-5.4-0.8-5.4,2.9c-2.5-0.3-9.1,3.6-10-0.2c1.2-0.5,6.5-3.4,2.1-3.7c0.4-0.9,0.2-1.9-0.3-2.8c-3-0.4-3.7,3.6-5.4-0.5
				c-1,0-1.8,0.1-2.8,0.2c0.1-2.5-0.5-2.5-1.8-4.1c-0.9-1-0.7-0.1-1.3-1.6c-0.4-1-0.3-2.7-0.6-3.8c-1.3-0.2-3.2-0.6-3.9-1.5
				c-0.5-0.6-0.1-1.7-0.5-2.2c-0.6-0.7-1.6-0.4-2.3-0.7c-2.4-1.2-4.9-1.6-7.5-2.9c1-2.7-3.2-1.9-4.4-2.6c-2.6-1.6-1.4-3.1,0.5-3.8
				c1.5-0.6,4.6,0.3,3.8-1.2c-1.2-2.2-3.3-0.5-5.1-0.9c-1-1.9,1.4-3,3.9-4.2c1.3,0.6,2.3,2.6,3,3.4c0.8,0.9,2.8,1.9,2.6,3.6
				c1.4-0.2,2.6,0.6,3.1,1.8c3.4-0.3,6.5,2.1,9.5,3.4c1.6,0.7,9.1,3.3,9.1,4.3c3.4,0.4,2.6,3.1,2.1,5.4c2.6,0.1-0.8,4.1,2.5,5.2
				c2.6,0.9,5-0.1,7.5-1c1.5-0.6,2.9-0.9,4.4-1.3c0.7-0.2,1.7-0.1,2.3-0.6c1.2-0.9,0.3-1.1,0.8-1.7c1.4-1.9,4-3,5.7-4.9
				c-1.6-1.6,1.3-3.5,1.8-5.2c-2.9-0.1-2.3-3.2-1.8-5.1c-0.4,0.2-1.3,0-1.7,0.2c0-0.9,2.5-8.2-1.3-4.7c0.1-2.3-1.2-1.2-2.4-1.5
				c-2-0.5-1.3,0.4-2-1.8c-0.6-1.6-1.3-5.3-3.9-4.6c-0.8,1.9-0.3,5.3-3.7,4.9c-1.1-0.1-1.1-1.4-2.1-1.6c-1.3-0.3-1.6,0.6-2.9,0
				c-1.5-0.7-2.6-3.4-3.6-4.4c-1.3-1.3-4.3-1.7-3.1-4.4c-2.7-0.4-1.2-4.9,1.6-3.9c1.9,0.6,1.5,3.9,4.6,2.6c0.1,2-0.1,2.3,1.1,3.3
				c0.9,0.8,1.9,0.1,2.6,1.8c1.9,0.6,2.9-1.6,4.8-1.5c0.3,0.7,2.8,2.6,3.5,2.8c0.7,0.3,4.5,0.3,5.3-0.1c0.9-0.4,0.6-1.5,1.4-2
				c0.9-0.4,1.5,0.1,2.3,0c1.6-0.3,4.3-1.6,3.7,1.7c1.4-0.2,2.7,0.5,3.9,0.6c2.4,0.2,1.9-0.5,3.5,1.3c-0.3,2.6,7.4,3.1,9.3,2.8
				c1.1,1.3,3.4,0.8,3,3c1.8,0.7,0.2,1.7,0.7,2.9c0.5,1.3,1.2,1,2.6,2.1c0.3,0.3,0.5,1.2,0.5,1.2c0.1,0,1.7,0.9,1.6,0.8
				c1,1.3,1,1.6,1.1,3.6c2.6,0.5,4.1,3.1,4.1,5.5c0,1.2-0.8,2.2-0.3,3.2c0.8,1.6,1.8,0.7,2.8,1.5c2.4,1.9,1,4.1,4,5.4
				c2.2,1-2.5,1.4-1.1,3.6c1.8-0.6,1.8-2.4,0.3-3.2c0.1-1-0.1-2.5-0.7-3.3c-0.7-0.8,4-0.1,3.6-1.5c-0.2-0.7,0.9-2.1,1-3.1
				c0.1-1.1-0.5-1.6-0.3-2.7c0.6-2.6,2.6-2.8,0.1-5.1c-0.7-0.6-2-0.9-2.5-1.7c-0.5-0.8-0.3-2.5-0.6-3.3c-3-0.6,0.1-3.2-1.3-4.9
				c-0.9-1.1-4.2-1.2-5.3-2.2c-0.7-0.6-0.9-1.6-1.3-2.3c-0.5-0.8-1.9-1-1.3-2.5c0.4-0.9,1.8-0.5,2.3-1.3c0.6-1-0.1-2.2,0.3-3.3
				c0.4,0,0.9-0.1,1.2-0.1c0.1-1.5-0.5-4,1.8-3.3c-0.3,1.9,0.3,5,2.6,4.9c1,2.1-1.4,3.2,0.5,4.9c0.8,0.7,2.1,0.1,2.7,0.9
				c0.5,0.6,0.2,2.2,0.2,2.9c2.6,1.1-3.3,4.5-0.1,3.9c-0.2-0.8-0.1-1.4-0.8-2c1.8-1.8,1.4,1.1,1.6,1.6c0.5,0.9,1.4,1.5,1.8,2.6
				c0.3,1,0,2.5,0.2,3.4c0.2,1.1,1.1,1.5,0.9,3C271.6,95,276.5,99.4,278.6,99.7z M162.7,55.4c-2.7-3-1.9,1.8-3.4,2.6
				c-1.4,0.8-2.4-0.8-3.6-1c-1.1-0.2-2.3,0.3-3.4,0c-2-0.6-3-2.5-4.6-3.6c-1.4-1-1.7-0.1-2.4-1.6c-0.3-0.6,2-1.3-0.1-1.8
				c0-0.3,0-0.9-0.1-1.2c-1.6-0.2-4.6,1.7-4.9-0.3c-1.8-0.1-3.3,0.2-5.1-0.1c0.7-3.1,3.7-3.2,6.5-3.6c2.4-0.3,5.2-1.1,7.5-1.5
				c0.7-0.1,2.7-0.8,3.1-0.8c1.2,0.1,1.9,1,3.1,1.3c1.4,0.4,1.8,0.2,3-0.5c0.5-0.3,1.2-2.7,2.3-0.8l1.3,0.5c0.3,0.4,0.6,0.3,0.6,1
				c0.3,0,0.6,0.1,1,0.1c0.1,0.4,0.2,0.9,0.3,1.2c-0.4,0.3-0.4,0.5-0.7,0.8c0.6,0,0.9,0.4,1.5,0.5c-0.3,1.6-5.7,1.5-2.3,3.1
				c2.2,1,5.2-0.3,7.5,0c-0.1,0.3-0.1,0.7-0.2,1c1.1-0.1,1.5,0.1,1.8,1c0.1,0,0.3,0.1,0.4,0.1C171.9,57.1,163.4,51.3,162.7,55.4z
				 M185.8,57.4c-2.9-1.3-2.1-2.4-2.6-5.1c-0.5-2.6-3.6-3.1-3.4-5.7c-1.6-0.1-3.3-0.6-2.8-2.6c-1.9,0.4-2.3-0.8-3-1.9
				c0.2-1.2,1.2-3.4-0.5-3.9c0.9-1.5,2.2-1.8,1.6-3.8c1.8-0.1,2.6-1.8,4.3-2.2c0-0.4,0.1-0.9,0.1-1.2c1.3-0.1,2.6-0.1,3.8,0
				c0.2,0.4-0.2,0.3-0.2,0.5l0.3,1.6c1.6,3-4.4,4-4,6.5c0.6,3.6,5.9,3.7,8.8,3.8c-0.2,1.2,0.1,2.3,1.2,2.8c-3.4,1.8,2.2,3.7,3.7,3.7
				c0,0.4,0.1,0.9,0.1,1.2c1.4,0,2.5-0.9,3.8-0.2c-0.7,3.3,3.3,2,1.1,5.4c1.3,0,2.4,0.6,3.1,1.6C197.3,61.6,189.7,59.3,185.8,57.4z"
				/>
			<path class="st1" d="M213.1,218.2c1.8,0.6,3,0.3,4.2-1c0.5-0.5,0.6-1.5,1-1.9c0.5-0.5,1.7-0.5,2.1-1c0.5-0.6,0-1.7,0.5-2.3
				c0.6-0.7,1.7-0.3,2.4-1c1.5-1.3,0.7-2.5,1-4.4c0.5-3.1,3.8-3.3,6.5-4.8c1.2-0.6,3-1.3,2.1-2.8c-0.8-1.4-2.6-0.2-4.1-0.6
				c0.3-2.3,0.9-2.6-2.1-3.1c-0.2-1.6,0.9-2.7,2.5-2.8c-0.3-0.7,0-1.3-0.2-2c2.6-0.1,2-3.5,2.3-5c0.2-1,0.7-1.7,0.8-2.8
				c0.1-1-0.4-2.1-0.3-2.8c0.2-1.8,1.7-9.7-2-10.7c-0.4-0.7-0.9-1-1.3-1.5l-1.6,0.3c2.2,2.8,1,3-0.3,5.4c-0.8,1.6,0.1,4.3-1,5.8
				c-0.6,0.9-2.2,1-2.9,1.7c-0.7,0.6-1.4,2-1.9,2.8c-0.4,0.8-0.6,2.2-1,2.9c-0.8,1.2-2.1,1.3-3.1,2.2c-2.1,2-1.4,3.4-0.8,5.6
				c0.4,1.6,0.5,3.8,0.1,5.9c-0.2,1-0.8,2.1-1,3.1c0,0.1-0.7,1.7-0.7,1.4c0.1,0.5,1,1.2,1,1.4c0.1,2-0.5,4-1,6
				C213.8,213.9,214.2,216.7,213.1,218.2z"/>
			<path class="st1" d="M61.2,262.1c-0.6-0.7-1.1-2.1-1.7-2.9c-1.2-1.7-2.4-3.5-3.7-5.1c-1.6-1.8-4-3.1-4.9-5.2
				c-0.8-1.9-0.8-5-3.3-5.7c0.3-2-1.5-2.8-1.1-4.8c-0.9-0.1-2.6-1.5-3.1-2.1c-1-1.3-0.9-1.9-1.3-3.6c-0.1-0.5-1-0.8-1.2-1.6
				c0,0,0.4-1.5,0.5-1.6c0.4-1.6,0.1-1.8,1.8-2.6c1.5-0.7,2.1,0.7,2.8-1.3c0.3-0.7-0.5-2.5-0.8-3.3c-1.1-2.5-1.1-4.1-4.1-4.3
				c-1.2-0.8-0.7-1.6-1.1-2.7c-0.6-1.7-1.3-3.3-1.8-5.2c-0.2-0.9,0.1-2.6-0.5-3.4c-0.6-0.8-1.6-0.6-2.2-1.2c-2-2.2-0.7-2.3,0.6-3.7
				c0.9-0.9,0.7-0.7,1.2-2c0,0-0.6-0.7-0.4-1.1c0.2-0.5,1-0.5,1.2-0.8c0.9-1.7,2.1-3.3,2.2-5.3c0.1-2.1-1.2-3.3-1.4-5.2
				c-0.2-2.3,0.9-3-1.6-4.9c-1.2-0.9-4.3-1.3-4.6-2.6c-1.8-0.4-4.4,2.1-4.4-1c-2.9-0.9-2.6,2.8-5.1,2.2c-0.6-1.6-2.4-5.5-4.1-6
				c-0.3-1.7,1.9-6.1-1.6-5.4c0-0.9-0.1-1.9-0.1-2.8c-0.7-0.5-0.6-0.2-0.7-1.1c-0.6-3.1,1.5-8.2-2-10.4c-1.5-0.9-3.3,0.5-4.9-0.8
				c-1.4-1.1-1.3-4.3-1-5.9c0.4-2.7,0.1-3.5-0.8-6c-0.8-2.2-0.2-3.7-0.8-5.9c-0.9-3.4-1.3-6.7-2.1-10.4C-0.4,163,8,201.6,31.5,233.9
				c8.6,11.8,18.6,21.8,29.6,30.2c1,0.1,2,0.1,2.9,0.1C63.1,263.3,62,263.1,61.2,262.1z"/>
			<path class="st1" d="M235.5,253.6v-0.4c-0.4,1.3-0.6,2.1-1.5,3.1c-1,1.2-0.9,1.1-1.4,2.6c-0.3,0.8-0.4,1-0.7,1.6
				c0,0-0.9,1.4-0.8,1.3c-0.7,0.5-1.6,0.6-2.2,1.3c-1,1.1-0.8,1.5-2.2,2.2c-1,0.5-2.1,1.2-3.1,1.4c-2.7,0.4-2.4-3.3-4.8-2.9
				c-0.3,0.8-1.3,0.8-2.1,1.2c-0.7-1.3-1.7-0.7-2.8-0.5c-1.1,2.1-2.6,3.9-4.9,4.5c-1.7,0.4-1.4-0.3-2.9-0.5
				c-0.4-0.1-1.6,0.2-1.9,0.4c-0.7,0.5-0.5,1-1,1.4c-0.9,0.7-1.9,0.7-2.9,1.4c-1,0.7-1.8,1.7-3,2.2c-1.5,0.6-3,0.5-4.4,1.2
				c-1.1,0.5-3.1,0.7-4,1.4c-0.5-0.4-1.2-0.7-1.9-0.7c0.1,0.3-0.1,0.7-0.1,1c-0.9,0-1.3,0.8-2,1.3c-0.4,0.3-0.8,0.1-1.2,0.5
				c-0.4,0.4-0.6,0.6-0.8,1.1c1.1,0.2,0.6,0.7,0.5,1.5c0-0.1-1.1,1.7-1,1.6c-1.2,0.9-3.9,0.7-4.5-0.9c-0.7,0.7-2,0.9-2.4,1.8
				c-0.9-0.3-1.7-0.9-2.7-1.1c-1.7-0.3-2,0.6-3.3,1.1c-2,0.7-4-0.7-5.8-0.2c-0.2-1.7-1.7-1.4-1.4,0.2c-0.8,0-1.6-0.1-2.3,0.4
				c-0.8-0.3-1.8-0.6-2.5,0c-1.8-1.8-6.8,2.3-8.3,3.6c-0.3,0.3-0.3,1-0.7,1.3c-0.3,0.3-0.9,0.4-1.2,0.7c-0.6,0.6-1.1,1.1-1.7,1.6
				c-0.3,0.2-0.5,0.6-1.2,1.1c31.1-0.7,62-8.7,88.9-29.5c0.3-0.2,0.5-0.4,0.8-0.6c0.1-0.8,0.1-1.7,0.3-2.5c0.2-0.7,2.4-2.3,0.4-2.4
				c1-0.8,0.4-1.2,0.5-2C235.3,255,235.9,254.4,235.5,253.6z"/>
			<path class="st1" d="M90.6,33.8c0,0,3.4-1.6,3.6-1.8c1.1-0.9,0.3-2.7,2.5-2.4c1.2-2.2,2.5-3.5,3.7-5.6c0.6-0.1,0.8-0.5,1.2-0.8
				L103,22c-0.8,0.7-5.1,2.7-6.5,3.1c-1.1,0.3-2,0-3.1,0.3c-2.6,0.7-1.3,0.8-2.3,2.6C90.4,29,87,33.4,90.6,33.8z"/>
			<path class="st1" d="M260.1,123.1c0-0.4,1.3-0.4,1.4-0.9c0.2-0.7,0.1-1.2,0.1-1.8c0-1.7-0.9-4.7-1.4-6.3c-0.5-1.5-2.7-4.1-4.6-4
				c-0.1-0.2,0-0.5-0.1-0.7c-0.6-0.1-1.1-0.4-1.7-0.4c-0.5-0.4,0.1-0.1,0.2-0.2l-1-0.3c0.5,1,0.5,2.1,1,3.1c0.4,0.8,1.6,1.5,2,2.3
				c0.9,1.8,0.6,3.8,1.1,5.7c0.6,2.3,0.9,4.2,1.6,6.2c0.6,1.8,1,4.6,0.5,6.4c0.5,0.3,1.1,0.4,1.7,0.3c0.7-2.2,1.1-4.2,0.3-6.4
				C261,125.3,260,124.1,260.1,123.1z"/>
		</g>
		<g>
			
				<radialGradient id="SVGID_00000054974642052096805900000016070459245594110106_" cx="71.7795" cy="43.16" r="43.5317" gradientUnits="userSpaceOnUse">
				<stop  offset="0" style="stop-color:#C6C6C5"/>
				<stop  offset="1" style="stop-color:#C6C6C5"/>
			</radialGradient>
			<path style="fill:url(#SVGID_00000054974642052096805900000016070459245594110106_);" d="M30,70.9c1.2-1,2.4-1.2,3.6-2.2
				c2.8-2.1,3.9-4.9,6-7.6c1.2-1.6,4.9-6.6,7.2-5.1c-0.1,0.7-1.2,2.8-0.5,3.5c0.9,0.9,2.4-0.6,3.1-0.7c0.1,1.5-0.3,3.5,0.2,4.9
				c2.3,0.3,2.3-2.4,2.5-3.9c0.3-1.9,0.6-3.3,1.6-5c0.8-1.4,1.5-2.2,2-3.8c0.5-1.6,0.4-3.2,1.2-4.6c1.6-2.8,3.8-4.9,5.9-7.4
				c1.1-1.3,2.5-2.2,3.7-3.4c1.3-1.4,2.2-2.9,3.4-4.3c1.7-2,5.1-6.3,8.2-5.8c-1.1,1.9-3.9,3-4.9,5c-0.7,1.3-0.1,1.5-1.4,2.6
				c-1,0.8-2.8,1.2-2.6,2.9c0.8,0,1.5-0.2,1.9,0.5c1.5-0.1,2.7-2.2,3.7-1c1.4,1.5-1.3,2.8-1,3.9c0.4,1.6,2.7-1.3,3.1-2.1
				c0.6-1.4,0.7-3,1.6-4.3c1.1-1.5,3.1-2.6,4.3-3.9c1.2-1.2,2.1-1.9,3.7-2.6c1.7-0.8,3.5-1.5,5.1-2.4c1-0.6,2.2-2,3.4-1.8
				c0,0,0.2,0.3,0.2,0.3c0.8-0.6,1.8-1.2,2.6-1.7c0.7-0.5,1.6-1.5,2.3-1.9c2.1-1.3,5.2-2.4,7.7-3.4c1.5-0.6,2.2-2.1,3.7-2.3
				c0.6-0.1,0.9,0.3,1.7-0.1c0.7-0.3,1.2-1,1.7-1.4c1.1-0.7,8.2-1.7,7.2-3.3c-0.8-1.4-8.4,0-9.9,0c-2.5,0.1-5.1,0.4-7.6,0.9
				C89.8,13.9,75.5,21,62.3,30.7c-6.3,4.6-12.1,9.6-17.4,14.9c-5.1,5.5-9.9,11.2-14.3,17.3c-1.2,1.7-2.5,3.2-3.7,4.8
				c-1.4,2.2-2.8,4.4-4.1,6.6c-0.6,1.3-1,2.7-1.3,4.2c1.8-1.6,3.8-3.1,5.7-4.7C28.2,73,29,71.8,30,70.9z"/>
			
				<radialGradient id="SVGID_00000086655363308274455650000011197038685370930841_" cx="96.3712" cy="40.9142" r="10.772" gradientUnits="userSpaceOnUse">
				<stop  offset="0" style="stop-color:#C6C6C5"/>
				<stop  offset="1" style="stop-color:#C6C6C5"/>
			</radialGradient>
			<path style="fill:url(#SVGID_00000086655363308274455650000011197038685370930841_);" d="M108.9,36.6c-1.7-0.5-2.2,1-3.5,1.5
				c0-0.3-0.1-0.6-0.1-1c-0.9,0-1.7,0.1-2.5,0.2c-0.1-0.2-0.1-1.3,0-1.7c0.1-0.1,0.5-0.2,0.7-0.4c0-0.3-0.3-0.4-0.2-0.7
				c0.8-0.6,0.6-0.9,0.7-1.8c-0.1-0.1-0.4-0.4-0.5-0.5c-0.7,0.2-2.2,0.9-2.5,1c-0.6,0.3-1.7-0.3-1.6,1.1c-1.1,0.3-3.4,0.9-3.6,1.2
				c-1.2,2.1,1.9,1.3,1,3.1c-1.2-0.9-2.4-0.6-3.6-0.4c-0.8,0.4-1.6,0.6-2.5,0.7c0.6,2,0.1,1.7-0.7,3.1c-0.2,0.4-1,0.3-1.3,0.8
				c-0.4,0.5,0.3,1.5-0.1,2c-1.2,1.7-6,1.9-4.3,4.9c1.5-1.3,3.1,0.7,4.3-1c0.9,0.5,4.1-2.1,4.7-3c0.8-1.1,0.6-2,1.7-2.6
				c0.3-0.2,1.9,0,2.5-0.2c-0.5,2-3.9,3.5-4.2,5.3c-0.3,2.2,1.3,1,2.1,0.5c0.4-0.3,0.7-3.1,1.8-0.8c1.5-0.5,3.9-1.7,4.3-3.3
				c0.5,0.7,1.3,1.1,2.3,1c0.4-1.4,2.1-1.6,1.9-3.5c0.2,0.1,0.7,0.2,1,0.5c0.7-0.8,0.4-1.9-0.2-2.6
				C108.3,39.6,108.7,37.9,108.9,36.6z"/>
			
				<radialGradient id="SVGID_00000098924053778326808570000018128598959462297234_" cx="163.747" cy="230.5497" r="0.3281" gradientUnits="userSpaceOnUse">
				<stop  offset="0" style="stop-color:#FFFFFF"/>
				<stop  offset="1" style="stop-color:#C6C6C5"/>
			</radialGradient>
			<path style="fill:url(#SVGID_00000098924053778326808570000018128598959462297234_);" d="M164,230.9c-0.1-0.2-0.2-0.5-0.4-0.7
				c0,0-0.1,0-0.1,0L164,230.9z"/>
			
				<radialGradient id="SVGID_00000106145504240420388020000017903841591459757980_" cx="170.1247" cy="121.6192" r="113.5633" gradientUnits="userSpaceOnUse">
				<stop  offset="0" style="stop-color:#FFFFFF"/>
				<stop  offset="1" style="stop-color:#C6C6C5"/>
			</radialGradient>
			<path style="fill:url(#SVGID_00000106145504240420388020000017903841591459757980_);" d="M278.2,98.6c-4.6-12.7-5-24.9-13.3-36.3
				C236.2,23,191.5,2.4,146.4,2.8c-1.2,0.6-2.1,1.4-2.7,2.3c-0.8,1.4-0.7,0.9,0.1,2c0.8,1.1,4.4,0.9,5,1.7c2.2,2.9-3.1,1.8-2.3,4
				c-0.9,0.4-4.5-0.5-2.1,1.9c-0.2,0.1-0.5,0.1-0.6,0.2c0.3,2.6,2.3,1.7,4.3,2c2.5,0.4,3.7,2,1.3,3.6c0.9,1.2,1.3,3.3-0.7,3.6
				c-0.8-2.3-1.5,0.3-2.3,0.1c-0.9-0.2-1.7-0.9-0.7-2.1c-1.2,0.1-2.6-0.1-3.6-0.5c0.3-0.1,0.8-0.6,1-0.7c-0.8-0.1-2.6,0.5-3.1,0
				c-1-1,0.2-1.6,1.1-1.8c-1.1-0.3-2.2-0.2-3.1-0.8c0.8-0.8,2-1.1,2.7-2.1c-0.9-1-3.4-0.7-4.6-0.8c-1.6-0.1-3.4-0.9-5-0.7
				c-3.8,0.6-6.9,1.5-9,4.4c-2.3,3.1-5.6,3-8.8,5.2c-2.1,1.4-5.7,4.7-5.4,7.4c0.2,0.3,0.4-0.1,0.5-0.1c-0.8,3.1,3.9,1.3,2.6-1.3
				c0.6,0.3,0.9,0,1.5,0.5c0.6-0.7,3-5.2,3.6-1.6c1.4-0.1,1.5-1.5,3-1.2c0,2-0.5,4.4-0.2,6.4c2.3,0.6,5.6-2.3,4.6-4.5
				c2.7-0.6,0.4-3.3,1.2-5c0.2-0.5,1.6-2,1.9-2.3c0.8-0.7,0.9-1.5,2.5-1.2c0.3,1.7-1.5,2.5-1.2,4.3c2.9,0.3,2.6,2,5.6,0.6
				c1.8-0.8,3.7-1.8,3.6,1.4c1.7,0.6,3.7-0.3,5.4,0.3c0.7,0.2,0.8,1,1.3,1.2c0.3,0.1,2.1,0.5,2.2,0.6c3.8,4.4-5.2,2.2-5.6,2.5
				c-0.9-1.9-4.5-0.4-5.2,1c-1,2,1.6,2.9-1.6,3c-0.9,0-1.2-0.6-2.6-0.1c-0.9,0.3-1.3,1.2-2.3,1.6c-0.8,0.3-2.2,0.3-3.1,0.5
				c-0.7,0.2-2.6,1.2-3.1,1.2c-1.7,0-3-1.8-5.2-1.2c-1.6,0.4-1.4,1.1-2.6,2c-1,0.7-2.1,0.3-3,0.9c-2.1,1.3-1.1,3.8-2.3,5.4
				c-0.5,0.7-1.6,0.7-2.2,1.4c-0.6,0.7-0.5,1.8-1.3,2.6c-1.2-0.1-2,0-3-0.4c-1.3,1.8-4.8-0.6-5.9,2.2c0.3,0,0.7,0.1,1,0.1
				c-0.4,0.4-0.5,1.1-0.7,1.4c4.5-0.2,2.1,4.9-0.3,6.3c-0.9-0.9-2.9,0.7-4.1,1c-0.5,0.1-0.6,0.8-1,0.8c-0.5,0-0.6-0.6-1-0.6
				c-1.3,0.2-2.1,0.6-3-0.3c-1,0.9-1.6,2.2-2.2,3.4c-0.7,1.6-0.8,2.6-1.1,4.6c-0.4,2.6-4.6,8.2,1,7.2c1.1-0.2,2.8-1.6,3.9-2.1
				c0.5-0.2,0.6-1,1-1.2c0.5-0.2,1.1,0.2,1.6,0c0.9-0.4,1.8-0.6,2.6-1.3c1-1,1.7-2.1,2.8-3.2c0.7-0.7,2.2-2.6,2.4-3.8
				c5.5,0.2,1.2-3.8,4.6-5.1c1.8-0.7,2.7,1,4.5-0.1c0.8-0.5,0.6-1.6,1.3-2.1c0.7-0.5,1.3-0.2,2.1-0.5c1.8-0.8,1.8-1.3,3.9-0.7
				c0.5,0.2,0.9,0.8,1.5,1c0.7,0.3,1.4,0,2.1,0.2c1.5,0.5,6.7,4.6,7.1,0.4c-2.1-0.1-6.5-0.8-5.6-3.9c5-2.1,7.8,1.6,11.3,3.8
				c1.3,0.8,3.4,2.1,4.2,3.8c0.9,2-0.1,4.6,3.2,3.9c0.1-0.4,0.4-1.3,0.5-1.7c0-0.1-0.3-0.4-0.4-0.5c2.1-1,0.1-1.4,0-2.4
				c-0.1-0.5-0.9-0.2-0.6-1.4c0.1-0.5,1.6-0.4,1.8-1c0.5-1.5-2.1-1.6,0.3-2.6c1.4-0.6,3.1-0.1,2.4,1.5c0.9,0.4,1.2,1.1,1,2.1
				c0.3,0,0.6,0.1,1,0.1c0.4,1.7-0.6,4.6,1.3,5.4c0,0.3,0.1,0.8,0.1,1.2c2.3,0.3,3.6-0.9,5.6-1.5c1.3-0.4,4-1.6,5.4-1.3
				c1.1,0.2,0.8,1.3,2.1,1.2c0.8-0.1,1.6-1.5,2.2-1.8c3.2-1.6,1.7,0.7,2.8,2.7c-0.4-0.1-0.7-0.1-1.1-0.3c0.8,0.6,1.7,1.2,2.4,1.7
				c-1.4,0.2-2.5-0.3-3.9-0.2c0.9,0.2,3.5,0.9,3.4,2.8c0.5,0,1,0.1,1.5,0c0,0.3,0,0.5,0,0.7c-0.2,0.3-0.3,0.4-0.5,0.8
				c-0.4,0-0.8,0.1-1.2,0.1c0,1.1-0.8,1.5-1.8,1.5c-0.1-0.2-0.2-0.5-0.4-0.7c-1.2,0.8-6.9,3.3-7.2,1.3c-0.8,0-1.2-0.4-2-0.1
				c-0.4-1-1.3-1.5-2.4-1.5c-0.7,1-0.2,2.1-0.7,2.9c-0.6,1-1.8,1-2.4,2.2c0.6,0.7,0.5,1.5-0.1,2.3c-1.9-0.1-1.3-2-2.6-2.7
				c-0.5-0.3-1.2,0.2-1.8-0.1c-0.6-0.2-1.9-1-2.5-1.1c-5.1-0.7-0.2,5.3-3.9,5.7c-0.5-0.4-9.5,4.1-8.6,0.6c-2.7-0.3-0.2-1.6-0.9-2.6
				c-0.9-1.3-2.5-0.6-3.7-0.5c-1.5,0.1-8,0.3-5.7-3.3c-0.3-0.1-0.6-0.3-1-0.4c0.5-2.1-0.5-2.7-1.4-4.3c-1.4-0.7-2.1,0.6-3.3,1
				c-1.1,0.4-3.2,0.3-4.2,0.3c-1.8,0-6.1-0.3-7.2,2c-3.2,0.3-4.5,1.8-6.9,3.6c-1.7,1.3-1.5,1.4-3.4,0.8c-1.2-0.4-2.8-2.1-3.6-0.1
				c-1.5-0.3-1.9,0.5-2.8,1.3c-0.5,0.5-2.2,1.9-2.5,2.4c-1.1,1.7-1.2,5.5-3.4,6.4c0.2,1.4-1.6,2.8-2.4,3.8c-1.3,1.8-2,2.1-4.1,3.1
				c0.1,1.4-2.1,3.4-3.1,4.3c0.3,0.1,0.6,0.3,1,0.4c-0.4,2-3.3,3.8-4.1,5.8c0.4-0.1,1,0.1,1.5,0.1c-0.2,1.5,1,2.7,0.3,4
				c-1.9-0.1-2.4,1.8-4,2.1c0.3,0.8-0.2,0.8,0.7,1.3c-0.6,1-1.5,3.3-1.3,4.6c0.4,2.1,1.4,2,0.6,4.4c-1.1,3.1-3.5,5.1-3.6,8.2
				c0.3,0,0.6,0.1,0.9,0.1c0.6,0.7,1,1.5,0.9,2.5c0.4,0,0.9,0.1,1.2,0.1c0.5,1,0.4,2.1-0.2,3c0.2,0.7,0.7,1.4,1.3,1.8
				c0.1-0.3,0.4-0.7,0.6-1c2.6-0.4,3.4,3.7,4.6,5.4c0.9,1.2,1.3,1.8,2,3.1c0.6,1,0.8,2.5,1.3,3.3c0.7,1.2,1.9,1.3,2.8,2.3
				c1.2,1.4,0.6,2.5,2.9,2.8c2.1,0.3,6-0.7,6-3.3c1.5-0.4,1.9,1,3.1,1c1.2,0,1.6-0.5,2.8-0.5c1.8,0,4.1,2,4.7-1.5
				c1.6,0,2.3-1.4,3.3-2.3c1.2-1,3-1.1,4.1-1.9c1.8-1.5,2.1-7.1,4.6-3.8c0.1,0.2,0,0.4,0.1,0.7c2.7-0.3,3.7,3.3,4.5,5
				c0.3,0.6,0.6,3.5,0.8,3.6c1.4,0.9,3.1-0.7,3.1-2c1.1-0.3,1.5,0.7,2.5,0.4c0.8-0.2,1.3-1.2,2.4-1.5c0.8-0.2,2.2-0.1,2.9,0.2
				c1.7,0.7,0.6,0.6,1.5,1.9c0.9,1.3,2.2,2.9,2.3,4.9c0.2,2.3-1.4,4.2-1.6,6.4c-0.1,2.1,1,3.1,2.4,4.3c1.4,1.2,2,2.2,3.5,3.5
				c1.8,1.4,10.4,2.2,7,5.3c3.6,0.1,0.8,2.3,1.7,4c0.1,0.1,0.1,0.2,0.2,0.4c-0.9,1.7-1,3.9,1.6,4.3c-0.1,1.1,0.1,1.8,0.1,2.8
				c0,0.4-0.9,0.7-0.8,1c0.1,0.6,1.2,1,1.3,1.4c0.1,1.8-0.6,2.9-1.8,4.5c-1.4,1.8-2.5,2.3-3.2,4.4c-0.4,1.2-0.5,1.1-0.5,2.3
				c0-0.1,0.5,3.2,0.5,3.2c0.6,1.4,3.6,2.3,5.1,2.9c2.1,0.9,2.7,2.3,4.1,3.1c0.9,0.5,1.9,0,2.9,0.2c1,0.2,1.6,0.8,2.6,1
				c2.5,0.5,4.4-0.2,2.1,2.3c-0.7,0.8-2,0.5-2,2c2.7,1.3-3,4.1-0.6,6.3c0.9,0.9,2.7,0.3,3.6,1.2c1,1,0.1,3,1.8,3.9
				c0.1,0.4,0.1,0.8,0.1,1.2c0.9,0.5,0.5,0.3,1,1c1.3,0.1,2.9,1.7,3.7,2.9c0.5,0.2,0.3,0.5,0.6,1.2c0.1,0.2-0.4,0.8-0.2,1.2
				c0.1,0.4,0.9,0.2,1,0.5c0.5,1.5,0.6,2.4,0.5,4.2c2,0.3,4.2,0.6,4.1,3.1c2.1,0.3,1.6-2,2.2-3.3c0.6-1.3,1.3-2,2.3-3.2
				c1.5-1.8,0.5-1.3,2.9-2c1.5-0.4,3-0.5,3.1-2.5c3.4-0.2,5.7-1.7,8.6-3.1c1.5-0.7,2.7-1.1,3.7-2.7c1.3-2,0.2-2.2,0.5-4
				c-2.5-0.9,0.4-3.9-2.5-4.5c0.8-3,6.1-1,6.4-3.8c1.6-0.7,3.1-0.9,4.3-2.4c1.4-1.7,1.5-2.9,0.8-4.4c-0.4-0.8-1.1-1.5-1.5-2.3
				c-0.4-0.7,0.3-0.7-0.7-1.8c-1.3-1.3-3.3-0.8-3.7-2.8c-0.5-2.5,2.4-2.3,4.2-2.8c2.8-0.9,2.3-2.1,4-4.1c0.7-0.7,1.9-0.7,2.4-1.3
				c0.6-0.8,0.2-2.3,0.7-3.3c0.5-0.8,1.4-0.9,1.8-2.1c0.3-0.8,0.4-1.4,0.5-2.3c-0.4-0.4,0.2-2.9,0-4.2c-0.3-1.9-1.4-3.3-0.8-5.1
				c-0.4-0.1-0.6-0.3-0.9-0.3c1-2.8-1.8-3-3.7-3.6c0,0-0.1,0-0.1,0c-0.1-0.2-0.1-0.3-0.2-0.4c-0.6-1.1-1.4-1.9-2.3-2.8
				c-0.9-1-2.3-1.2-2.6-2.6c-1.4-0.4-7.7,0.8-5-2.8c0.9-1.2,2.7-0.5,3.8-1.1c1.7-0.8,1.3-0.8,1.8-2.8c0.5,0.2,1.4,0,2,0.2
				c0.7-1.5-0.1-3.7,0.6-5.1c0.3-0.7,1.7-1.2,2.3-1.8c1-1,0.8-1.1,1.3-2.3c0.8-1.7,1.2-2.7,2.8-4.1c1.5-1.4,2-1.9,2.1-4.3
				c-0.4,0-0.8-0.1-1.2-0.1c-0.2-1.4,1.2-2,1.3-3.3c3.4-0.7,1.5-3.3,2.5-5.2c0.5-0.9,2.1-1,2.5-1.8c0.5-1.1-0.8-2.4-0.4-3.8
				c3-0.6,5.1-2.6,5.3-5.7c-0.2-0.1-0.5-0.2-0.7-0.3c-0.1-2.6,2.1-4.8,2.6-7.4c0.5-2.3,2.1-6.2,0.9-8.2c-2.6-0.4-1.6,2.7-2.6,3.8
				c-1.3,1.3-4.1-0.4-4.1,2.1c-2.3,0.3-2.8,3.4-4.9,4.1c-1.9,0.7-5.3-0.8-5.4,2.9c-2.4-0.3-9,3.6-10-0.2c1.2-0.5,6.4-3.4,2-3.7
				c0.4-0.9,0.2-1.9-0.3-2.7c-3-0.4-3.7,3.6-5.4-0.5c-1,0-1.8,0.1-2.8,0.2c0.1-2.4-0.5-2.5-1.8-4c-0.9-1-0.7-0.1-1.3-1.6
				c-0.4-1-0.3-2.7-0.6-3.8c-1.3-0.2-3.1-0.6-3.9-1.5c-0.5-0.6-0.1-1.7-0.5-2.2c-0.6-0.7-1.6-0.4-2.3-0.7c-2.4-1.2-4.9-1.6-7.4-2.9
				c1-2.7-3.2-1.8-4.4-2.6c-2.6-1.6-1.4-3,0.5-3.8c1.5-0.6,4.6,0.3,3.8-1.2c-1.2-2.2-3.3-0.5-5-0.9c-1-1.9,1.4-3,3.9-4.2
				c1.3,0.6,2.3,2.6,3,3.4c0.8,0.9,2.8,1.9,2.6,3.6c1.4-0.2,2.6,0.6,3.1,1.8c3.4-0.3,6.5,2.1,9.5,3.4c1.6,0.7,9.1,3.3,9.1,4.3
				c3.4,0.4,2.6,3.1,2.1,5.4c2.6,0.1-0.8,4,2.5,5.2c2.6,0.9,5-0.1,7.5-1c1.5-0.6,2.9-0.9,4.4-1.3c0.7-0.2,1.7-0.1,2.3-0.6
				c1.2-0.9,0.3-1,0.8-1.7c1.4-1.9,3.9-3,5.7-4.9c-1.6-1.6,1.3-3.5,1.8-5.2c-2.9-0.1-2.3-3.2-1.8-5.1c-0.4,0.2-1.3,0-1.7,0.2
				c0-0.9,2.5-8.1-1.3-4.6c0.1-2.3-1.2-1.2-2.4-1.5c-2-0.5-1.3,0.4-2-1.8c-0.6-1.6-1.3-5.3-3.8-4.6c-0.8,1.8-0.3,5.3-3.7,4.9
				c-1.1-0.1-1.1-1.3-2-1.6c-1.3-0.3-1.6,0.6-2.9,0c-1.5-0.7-2.5-3.4-3.5-4.4c-1.3-1.3-4.3-1.7-3.1-4.3c-2.7-0.3-1.2-4.8,1.6-3.9
				c1.8,0.6,1.5,3.8,4.6,2.6c0.1,2-0.1,2.3,1.1,3.3c0.9,0.8,1.9,0.1,2.6,1.8c1.9,0.6,2.9-1.6,4.8-1.5c0.3,0.7,2.8,2.6,3.4,2.8
				c0.7,0.3,4.5,0.3,5.3-0.1c0.9-0.4,0.6-1.5,1.4-2c0.9-0.4,1.5,0.1,2.3,0c1.6-0.3,4.3-1.6,3.7,1.7c1.4-0.2,2.7,0.5,3.9,0.6
				c2.4,0.2,1.8-0.5,3.5,1.3c-0.3,2.6,7.4,3.1,9.2,2.8c1.1,1.3,3.3,0.8,2.9,3c1.8,0.7,0.2,1.7,0.7,2.9c0.5,1.3,1.2,1,2.6,2.1
				c0.3,0.3,0.4,1.1,0.5,1.2c0.1,0,1.7,0.9,1.6,0.8c1,1.3,1,1.6,1.1,3.6c2.6,0.5,4.1,3,4.1,5.5c0,1.2-0.8,2.2-0.3,3.2
				c0.7,1.6,1.8,0.7,2.8,1.5c2.4,1.9,1,4.1,3.9,5.4c2.2,1-2.6,1.4-1.1,3.6c1.8-0.6,1.8-2.4,0.3-3.2c0.1-1-0.1-2.5-0.7-3.3
				c-0.7-0.8,4-0.1,3.6-1.5c-0.2-0.7,0.9-2.1,1-3c0.1-1.1-0.5-1.6-0.3-2.7c0.6-2.6,2.6-2.8,0.1-5c-0.7-0.6-2-0.9-2.5-1.7
				c-0.5-0.8-0.3-2.5-0.6-3.3c-3-0.6,0.1-3.2-1.3-4.9c-0.9-1.1-4.1-1.2-5.3-2.2c-0.7-0.6-0.9-1.6-1.3-2.3c-0.5-0.8-1.9-1-1.2-2.5
				c0.4-0.9,1.8-0.5,2.3-1.3c0.6-1-0.1-2.2,0.3-3.3c0.4,0,0.8-0.1,1.2-0.1c0.1-1.5-0.5-4,1.8-3.3c-0.3,1.9,0.3,5,2.6,4.9
				c1,2.1-1.4,3.2,0.5,4.9c0.8,0.7,2,0.1,2.7,0.9c0.5,0.6,0.2,2.1,0.2,2.9c2.5,1.1-3.3,4.5-0.2,3.9c-0.2-0.8-0.1-1.4-0.8-2
				c1.8-1.8,1.4,1.1,1.6,1.6c0.5,0.8,1.4,1.5,1.8,2.6c0.3,1,0,2.5,0.2,3.4c0.2,1.1,1.1,1.5,0.9,3C271.3,94,276.2,98.3,278.2,98.6z
				 M163,54.5c-2.6-2.9-1.9,1.8-3.4,2.5c-1.4,0.7-2.4-0.7-3.6-1c-1.1-0.2-2.3,0.3-3.4,0c-2-0.6-3-2.4-4.6-3.6
				c-1.4-1-1.7-0.1-2.4-1.5c-0.3-0.6,2-1.3-0.1-1.8c0-0.3,0-0.9-0.1-1.2c-1.5-0.2-4.6,1.6-4.9-0.3c-1.8-0.1-3.3,0.2-5.1-0.1
				c0.7-3.1,3.7-3.2,6.4-3.6c2.4-0.3,5.2-1.1,7.5-1.5c0.7-0.1,2.7-0.8,3.1-0.8c1.2,0.1,1.9,1,3,1.3c1.4,0.4,1.8,0.2,3-0.5
				c0.5-0.3,1.2-2.7,2.2-0.8l1.3,0.5c0.3,0.4,0.6,0.3,0.6,1c0.3,0,0.6,0.1,0.9,0.1c0.1,0.4,0.2,0.9,0.3,1.2
				c-0.4,0.3-0.4,0.5-0.7,0.8c0.6,0,0.9,0.4,1.5,0.5c-0.3,1.6-5.7,1.5-2.3,3.1c2.2,1,5.2-0.3,7.4,0c-0.1,0.3-0.1,0.7-0.2,1
				c1.1-0.1,1.5,0.1,1.8,1c0.1,0,0.3,0.1,0.4,0.1C172.2,56.2,163.7,50.5,163,54.5z M185.9,56.6c-2.8-1.3-2.1-2.4-2.6-5.1
				c-0.5-2.6-3.6-3.1-3.4-5.6c-1.6-0.1-3.3-0.6-2.8-2.6c-1.9,0.4-2.3-0.8-3-1.9c0.2-1.2,1.2-3.3-0.5-3.9c0.9-1.5,2.2-1.7,1.6-3.8
				c1.8-0.1,2.6-1.8,4.3-2.1c0-0.4,0.1-0.8,0.1-1.2c1.2-0.1,2.5-0.1,3.8,0c0.2,0.4-0.2,0.3-0.2,0.5l0.3,1.5c1.6,3-4.4,4-3.9,6.5
				c0.6,3.6,5.9,3.7,8.8,3.8c-0.2,1.2,0.1,2.3,1.2,2.8c-3.4,1.8,2.2,3.7,3.7,3.6c0,0.4,0.1,0.8,0.1,1.2c1.3,0,2.5-0.9,3.8-0.2
				c-0.7,3.3,3.2,2,1.1,5.3c1.3,0,2.3,0.6,3.1,1.6C197.4,60.8,189.8,58.4,185.9,56.6z"/>
			
				<radialGradient id="SVGID_00000147940365516442362530000001651785347851557052_" cx="221.9743" cy="192.074" r="19.1968" gradientUnits="userSpaceOnUse">
				<stop  offset="0" style="stop-color:#C6C6C5"/>
				<stop  offset="1" style="stop-color:#C6C6C5"/>
			</radialGradient>
			<path style="fill:url(#SVGID_00000147940365516442362530000001651785347851557052_);" d="M212,217c1.8,0.6,3,0.3,4.2-1
				c0.5-0.5,0.6-1.5,1-1.9c0.5-0.5,1.7-0.5,2.1-1c0.5-0.6,0-1.7,0.5-2.3c0.6-0.7,1.7-0.3,2.4-1c1.5-1.3,0.6-2.5,1-4.4
				c0.5-3.1,3.7-3.3,6.4-4.8c1.2-0.6,3-1.3,2.1-2.8c-0.8-1.3-2.6-0.2-4.1-0.6c0.3-2.3,0.9-2.6-2.1-3.1c-0.2-1.6,0.9-2.7,2.5-2.8
				c-0.3-0.7,0-1.3-0.2-2c2.6-0.1,2-3.4,2.3-4.9c0.2-1,0.7-1.7,0.8-2.8c0.1-1-0.4-2.1-0.3-2.8c0.2-1.8,1.7-9.6-1.9-10.7
				c-0.4-0.7-0.9-1-1.3-1.5l-1.5,0.3c2.2,2.8,1,3-0.3,5.4c-0.8,1.6,0.1,4.2-1,5.7c-0.6,0.9-2.2,1-2.9,1.7c-0.7,0.6-1.4,2-1.9,2.8
				c-0.4,0.8-0.6,2.2-1,2.8c-0.8,1.2-2.1,1.3-3,2.2c-2.1,2-1.4,3.4-0.8,5.6c0.4,1.6,0.5,3.8,0.1,5.9c-0.2,1-0.8,2.1-1,3.1
				c0,0.1-0.7,1.7-0.7,1.3c0.1,0.5,1,1.2,1,1.4c0.1,2-0.5,3.9-1,6C212.7,212.8,213.1,215.6,212,217z"/>
			
				<radialGradient id="SVGID_00000102529564254630178080000005065372427892187286_" cx="32.8718" cy="194.8739" r="52.9192" gradientUnits="userSpaceOnUse">
				<stop  offset="0" style="stop-color:#C6C6C5"/>
				<stop  offset="1" style="stop-color:#C6C6C5"/>
			</radialGradient>
			<path style="fill:url(#SVGID_00000102529564254630178080000005065372427892187286_);" d="M60.2,261.3c-0.6-0.7-1.1-2.1-1.7-2.9
				c-1.2-1.7-2.4-3.5-3.7-5c-1.6-1.8-4-3.1-4.9-5.2c-0.8-1.9-0.8-5-3.2-5.7c0.3-2-1.5-2.8-1.1-4.8c-0.9-0.1-2.6-1.5-3.1-2.1
				c-0.9-1.3-0.9-1.9-1.3-3.5c-0.1-0.5-1-0.8-1.2-1.6c0,0,0.4-1.5,0.5-1.6c0.4-1.6,0.1-1.8,1.8-2.6c1.5-0.7,2.1,0.7,2.8-1.3
				c0.3-0.7-0.5-2.5-0.8-3.3c-1.1-2.5-1.1-4.1-4.1-4.3c-1.2-0.8-0.7-1.6-1.1-2.7c-0.6-1.7-1.3-3.3-1.8-5.1c-0.2-0.9,0.1-2.6-0.5-3.4
				c-0.5-0.8-1.6-0.6-2.1-1.2c-2-2.2-0.7-2.3,0.6-3.7c0.9-0.9,0.7-0.7,1.2-2c0,0-0.6-0.7-0.4-1.1c0.2-0.5,1-0.5,1.2-0.8
				c0.9-1.7,2-3.3,2.2-5.3c0.1-2.1-1.1-3.3-1.4-5.2c-0.2-2.3,0.9-3-1.6-4.8c-1.2-0.9-4.3-1.3-4.6-2.6c-1.8-0.4-4.3,2.1-4.4-1
				c-2.9-0.9-2.6,2.8-5.1,2.2c-0.6-1.6-2.4-5.5-4.1-5.9c-0.3-1.7,1.9-6.1-1.6-5.4c0-0.9-0.1-1.8-0.1-2.7c-0.7-0.4-0.6-0.2-0.7-1.1
				c-0.6-3.1,1.5-8.2-2-10.4c-1.5-0.9-3.3,0.5-4.9-0.8c-1.4-1.1-1.3-4.2-1-5.8c0.4-2.7,0.1-3.5-0.8-6c-0.8-2.2-0.2-3.7-0.8-5.9
				c-0.9-3.4-1.3-6.7-2.1-10.3c-5.4,36.4,2.9,74.8,26.3,106.9c8.5,11.7,18.5,21.7,29.5,30c1,0.1,2,0.1,2.9,0.1
				C62.1,262.5,61,262.3,60.2,261.3z"/>
			
				<radialGradient id="SVGID_00000119091230484610256130000011039266449783427004_" cx="189.9568" cy="274.1244" r="34.878" gradientUnits="userSpaceOnUse">
				<stop  offset="0" style="stop-color:#C6C6C5"/>
				<stop  offset="1" style="stop-color:#C6C6C5"/>
			</radialGradient>
			<path style="fill:url(#SVGID_00000119091230484610256130000011039266449783427004_);" d="M235.5,255.8v-0.3
				c-0.4,1.2-0.6,2-1.5,2.9c-1,1.1-0.9,1-1.4,2.4c-0.3,0.8-0.4,0.9-0.7,1.5c0,0-0.9,1.3-0.8,1.2c-0.6,0.5-1.6,0.6-2.2,1.2
				c-1,1-0.8,1.4-2.2,2.1c-1,0.4-2.1,1.1-3.1,1.3c-2.7,0.4-2.4-3.1-4.8-2.7c-0.3,0.8-1.3,0.8-2.1,1.2c-0.7-1.2-1.7-0.7-2.8-0.5
				c-1.1,2-2.6,3.7-4.8,4.2c-1.7,0.4-1.4-0.2-2.9-0.5c-0.4-0.1-1.6,0.2-1.9,0.4c-0.7,0.5-0.5,0.9-1,1.3c-0.9,0.7-1.9,0.7-2.9,1.3
				c-1,0.7-1.8,1.6-3,2.1c-1.5,0.6-2.9,0.5-4.4,1.1c-1.1,0.5-3,0.6-3.9,1.3c-0.5-0.4-1.2-0.7-1.9-0.6c0.1,0.3-0.1,0.7-0.1,1
				c-0.9,0-1.3,0.8-2,1.2c-0.4,0.3-0.8,0.1-1.2,0.5c-0.4,0.4-0.6,0.6-0.8,1c1.1,0.2,0.6,0.6,0.5,1.4c0-0.1-1.1,1.6-1,1.5
				c-1.2,0.8-3.9,0.6-4.5-0.8c-0.7,0.7-2,0.9-2.4,1.7c-0.9-0.3-1.7-0.8-2.7-1c-1.7-0.3-2,0.6-3.3,1c-2,0.7-4-0.6-5.8-0.2
				c-0.2-1.6-1.7-1.3-1.4,0.2c-0.8,0-1.6-0.1-2.3,0.3c-0.8-0.3-1.8-0.6-2.5,0c-1.7-1.7-6.7,2.2-8.2,3.4c-0.3,0.3-0.3,0.9-0.7,1.3
				c-0.3,0.3-0.9,0.4-1.2,0.7c-0.6,0.5-1.1,1.1-1.7,1.5c-0.4,0.3-0.9,0.8-1.5,1.1c30.8,0.8,62.1-8.3,88.9-27.8
				c0.3-0.2,0.5-0.4,0.7-0.6c0.1-0.8,0.1-1.6,0.3-2.3c0.2-0.6,2.4-2.2,0.4-2.3c1-0.7,0.4-1.1,0.5-1.8
				C235.3,257.2,235.9,256.6,235.5,255.8z"/>
			
				<radialGradient id="SVGID_00000023959658276686384320000012390030094029516700_" cx="95.4913" cy="27.7538" r="6.4578" gradientUnits="userSpaceOnUse">
				<stop  offset="0" style="stop-color:#C6C6C5"/>
				<stop  offset="1" style="stop-color:#C6C6C5"/>
			</radialGradient>
			<path style="fill:url(#SVGID_00000023959658276686384320000012390030094029516700_);" d="M90.1,33.6c0,0,3.4-1.6,3.6-1.7
				c1.1-0.9,0.3-2.7,2.5-2.4c1.2-2.2,2.5-3.5,3.7-5.6c0.6-0.1,0.8-0.5,1.2-0.8l1.3-1.3c-0.8,0.7-5,2.7-6.4,3c-1.1,0.3-2,0-3.1,0.3
				c-2.6,0.7-1.3,0.8-2.3,2.6C90,28.9,86.6,33.2,90.1,33.6z"/>
			
				<radialGradient id="SVGID_00000017508309036686758950000004462427490958705050_" cx="258.2013" cy="119.5819" r="9.0103" gradientUnits="userSpaceOnUse">
				<stop  offset="0" style="stop-color:#C6C6C5"/>
				<stop  offset="1" style="stop-color:#C6C6C5"/>
			</radialGradient>
			<path style="fill:url(#SVGID_00000017508309036686758950000004462427490958705050_);" d="M260.9,122.1c0-0.4,1.3-0.4,1.4-0.9
				c0.2-0.7,0.1-1.2,0.1-1.8c0-1.6-0.9-4.7-1.4-6.3c-0.5-1.5-2.7-4.1-4.5-4c-0.1-0.2,0-0.5-0.1-0.7c-0.6-0.1-1.1-0.4-1.7-0.4
				c-0.5-0.4,0.1-0.1,0.2-0.2l-1-0.3c0.5,1,0.5,2.1,1,3.1c0.4,0.8,1.6,1.5,2,2.3c0.9,1.8,0.6,3.8,1.1,5.7c0.6,2.2,0.9,4.2,1.6,6.2
				c0.6,1.8,1,4.6,0.5,6.4c0.5,0.3,1.1,0.4,1.7,0.3c0.7-2.2,1.1-4.2,0.3-6.4C261.8,124.2,260.7,123,260.9,122.1z"/>
		</g>
		<g>
			<defs>
				<path id="SVGID_00000123419207642038914360000008624983314825743529_" d="M264.8,62.3c47.2,64.7,33,155.4-31.6,202.6
					c-64.7,47.2-155.4,33-202.6-31.6c-47.2-64.7-33-155.4,31.6-202.6C126.9-16.5,217.6-2.4,264.8,62.3z"/>
			</defs>
			<clipPath id="SVGID_00000047019171157655368280000001982029212056020395_">
				<use xlink:href="#SVGID_00000123419207642038914360000008624983314825743529_"  style="overflow:visible;"/>
			</clipPath>
			
				<radialGradient id="SVGID_00000072991329127657344110000011749156632639519921_" cx="120.1263" cy="85.717" r="124.7755" gradientTransform="matrix(0.8077 -0.5896 0.5896 0.8077 -51.8467 112.7)" gradientUnits="userSpaceOnUse">
				<stop  offset="0" style="stop-color:#FFFFFF"/>
				<stop  offset="0.2726" style="stop-color:#FBFBFB;stop-opacity:0.7274"/>
				<stop  offset="0.528" style="stop-color:#F0F0F0;stop-opacity:0.472"/>
				<stop  offset="0.7755" style="stop-color:#DEDEDD;stop-opacity:0.2245"/>
				<stop  offset="1" style="stop-color:#C6C6C5;stop-opacity:0"/>
			</radialGradient>
			
				<path style="opacity:0.5;clip-path:url(#SVGID_00000047019171157655368280000001982029212056020395_);fill:url(#SVGID_00000072991329127657344110000011749156632639519921_);" d="
				M213.5,52.9c40.7,55.7,28.5,133.8-27.2,174.5c-55.7,40.7-133.8,28.5-174.5-27.2C-28.9,144.4-16.7,66.3,39,25.7
				C94.7-15,172.8-2.8,213.5,52.9z"/>
			
				<radialGradient id="SVGID_00000147211262863570586470000008659920340460266384_" cx="127.2557" cy="100.826" r="100.8463" gradientTransform="matrix(0.8077 -0.5896 0.5896 0.8077 -51.8467 112.7)" gradientUnits="userSpaceOnUse">
				<stop  offset="0" style="stop-color:#FFFFFF"/>
				<stop  offset="0.9923" style="stop-color:#C6C6C5;stop-opacity:7.739544e-03"/>
				<stop  offset="1" style="stop-color:#C6C6C5;stop-opacity:0"/>
			</radialGradient>
			
				<path style="opacity:0.5;clip-path:url(#SVGID_00000047019171157655368280000001982029212056020395_);fill:url(#SVGID_00000147211262863570586470000008659920340460266384_);" d="
				M213.5,52.9c40.7,55.7,28.5,133.8-27.2,174.5c-55.7,40.7-133.8,28.5-174.5-27.2C-28.9,144.4-16.7,66.3,39,25.7
				C94.7-15,172.8-2.8,213.5,52.9z"/>
		</g>
	</g>
</g>
</svg>
