<svg id="Layer_1" data-name="Layer 1" xmlns="http://www.w3.org/2000/svg" viewBox="0 0 172 459"><defs><style>.cls-1{fill:#505054;}.cls-2{fill:#32a095;}.cls-2,.cls-3{stroke:#000;stroke-miterlimit:10;}.cls-3{fill:#6b6b6b;}</style></defs><rect class="cls-1" x="64.5" y="36.5" width="43" height="400"/><path d="M244,52V451H202V52h42m1-1H201V452h44V51Z" transform="translate(-137 -15)"/><path class="cls-2" d="M296.5,55.5h-147a12,12,0,0,1-12-12v-16c0-6.6,5.4-12,8-12h147c10.6,0,16,5.4,16,12v16A12,12,0,0,1,296.5,55.5Z" transform="translate(-137 -15)"/><polygon class="cls-3" points="107.4 458.5 61.6 458.5 39.5 431.5 131.5 431.5 107.4 458.5"/></svg>