<svg xmlns="http://www.w3.org/2000/svg" xmlns:xlink="http://www.w3.org/1999/xlink" viewBox="0 0 99.24 97.8"><defs><style>.cls-1{isolation:isolate;}.cls-10,.cls-11,.cls-12,.cls-13,.cls-14,.cls-15,.cls-16,.cls-17,.cls-18,.cls-19,.cls-2,.cls-20,.cls-21,.cls-22,.cls-23,.cls-24,.cls-25,.cls-26,.cls-27,.cls-28,.cls-3,.cls-4,.cls-5,.cls-6,.cls-7,.cls-8,.cls-9{fill-rule:evenodd;}.cls-2{fill:url(#Áåçûìÿííûé_ãðàäèåíò_460);}.cls-3{fill:url(#Áåçûìÿííûé_ãðàäèåíò_460-3);}.cls-12,.cls-14,.cls-25,.cls-26,.cls-4,.cls-5,.cls-6,.cls-7,.cls-8,.cls-9{mix-blend-mode:screen;}.cls-4{fill:url(#Áåçûìÿííûé_ãðàäèåíò_494);}.cls-5{fill:url(#Áåçûìÿííûé_ãðàäèåíò_494-2);}.cls-6{fill:url(#Áåçûìÿííûé_ãðàäèåíò_494-3);}.cls-7{fill:url(#Áåçûìÿííûé_ãðàäèåíò_494-4);}.cls-8{fill:url(#Áåçûìÿííûé_ãðàäèåíò_494-5);}.cls-9{fill:url(#Áåçûìÿííûé_ãðàäèåíò_494-6);}.cls-10,.cls-11{fill:#7d72b3;}.cls-10,.cls-11,.cls-18{mix-blend-mode:multiply;}.cls-10,.cls-18,.cls-25,.cls-26{opacity:0.5;}.cls-11{opacity:0.4;}.cls-12{fill:url(#Áåçûìÿííûé_ãðàäèåíò_494-7);}.cls-13{fill:#00c4ff;}.cls-14{fill:url(#Áåçûìÿííûé_ãðàäèåíò_486);}.cls-15{fill:url(#Áåçûìÿííûé_ãðàäèåíò_469);}.cls-16{fill:url(#Áåçûìÿííûé_ãðàäèåíò_479);}.cls-17{fill:#ff61c7;}.cls-18{fill:#54469b;}.cls-19{fill:#b04fe2;}.cls-20{fill:#8b40e0;}.cls-21{fill:#ff77f4;}.cls-22{fill:#ea9cf4;}.cls-23{fill:#d374f4;}.cls-24{fill:#f2c4f8;}.cls-25{fill:url(#Áåçûìÿííûé_ãðàäèåíò_796);}.cls-26{fill:url(#Áåçûìÿííûé_ãðàäèåíò_796-2);}.cls-27{fill:#fffff8;}.cls-28{fill:#f5cefa;}</style><radialGradient id="Áåçûìÿííûé_ãðàäèåíò_460" cx="217.6" cy="229.97" r="77.42" gradientUnits="userSpaceOnUse"><stop offset="0.01" stop-color="#ff9aff"/><stop offset="0.09" stop-color="#fb94ff"/><stop offset="0.21" stop-color="#f183ff"/><stop offset="0.34" stop-color="#e068ff"/><stop offset="0.49" stop-color="#c841ff"/><stop offset="0.64" stop-color="#a910ff"/><stop offset="0.68" stop-color="#9f00ff"/><stop offset="0.74" stop-color="#9900f8"/><stop offset="0.83" stop-color="#8700e5"/><stop offset="0.93" stop-color="#6a00c6"/><stop offset="1" stop-color="#5200ab"/></radialGradient><radialGradient id="Áåçûìÿííûé_ãðàäèåíò_460-3" cx="219.8" cy="225.49" r="76.1" xlink:href="#Áåçûìÿííûé_ãðàäèåíò_460"/><radialGradient id="Áåçûìÿííûé_ãðàäèåíò_494" cx="229.8" cy="217.44" r="17.02" gradientUnits="userSpaceOnUse"><stop offset="0" stop-color="#fff"/><stop offset="1" stop-color="#623964"/></radialGradient><radialGradient id="Áåçûìÿííûé_ãðàäèåíò_494-2" cx="232.51" cy="223.59" r="5.92" xlink:href="#Áåçûìÿííûé_ãðàäèåíò_494"/><radialGradient id="Áåçûìÿííûé_ãðàäèåíò_494-3" cx="228.87" cy="223.04" r="6.24" xlink:href="#Áåçûìÿííûé_ãðàäèåíò_494"/><radialGradient id="Áåçûìÿííûé_ãðàäèåíò_494-4" cx="224.46" cy="217.03" r="14.41" xlink:href="#Áåçûìÿííûé_ãðàäèåíò_494"/><radialGradient id="Áåçûìÿííûé_ãðàäèåíò_494-5" cx="218.3" cy="211.43" r="24.43" xlink:href="#Áåçûìÿííûé_ãðàäèåíò_494"/><radialGradient id="Áåçûìÿííûé_ãðàäèåíò_494-6" cx="227.35" cy="215.3" r="34.04" xlink:href="#Áåçûìÿííûé_ãðàäèåíò_494"/><radialGradient id="Áåçûìÿííûé_ãðàäèåíò_494-7" cx="216.74" cy="215.55" r="57.51" xlink:href="#Áåçûìÿííûé_ãðàäèåíò_494"/><radialGradient id="Áåçûìÿííûé_ãðàäèåíò_486" cx="233.98" cy="265.64" r="45.33" gradientUnits="userSpaceOnUse"><stop offset="0" stop-color="#ffff4a"/><stop offset="1" stop-color="#360038"/></radialGradient><radialGradient id="Áåçûìÿííûé_ãðàäèåíò_469" cx="216.13" cy="283.13" r="4.89" gradientUnits="userSpaceOnUse"><stop offset="0" stop-color="#6d00c2"/><stop offset="0.4" stop-color="#6600bc"/><stop offset="0.98" stop-color="#5300ac"/><stop offset="1" stop-color="#5200ab"/></radialGradient><radialGradient id="Áåçûìÿííûé_ãðàäèåíò_479" cx="295.25" cy="254.68" r="5.11" gradientUnits="userSpaceOnUse"><stop offset="0" stop-color="#1f0081"/><stop offset="0.73" stop-color="#260087"/><stop offset="1" stop-color="#2a008b"/></radialGradient><linearGradient id="Áåçûìÿííûé_ãðàäèåíò_796" x1="219.88" y1="233.13" x2="226.5" y2="233.13" gradientUnits="userSpaceOnUse"><stop offset="0" stop-color="#bdffe8"/><stop offset="0.2" stop-color="#8bbbaa"/><stop offset="0.42" stop-color="#5a796e"/><stop offset="0.61" stop-color="#33453f"/><stop offset="0.78" stop-color="#171f1d"/><stop offset="0.91" stop-color="#060808"/><stop offset="1"/></linearGradient><linearGradient id="Áåçûìÿííûé_ãðàäèåíò_796-2" x1="204.11" y1="239.5" x2="233.39" y2="239.5" xlink:href="#Áåçûìÿííûé_ãðàäèåíò_796"/></defs><g class="cls-1"><g id="Layer_1" data-name="Layer 1"><path class="cls-2" d="M298,260.33l-.36,1.29a1.67,1.67,0,0,1,0,.18,50.34,50.34,0,0,1-48.41,36.27c-.89,0-1.8,0-2.68-.07h0c-1.32-.07-2.63-.19-3.92-.35a50,50,0,0,1-22.89-9.11c-.62-.45-1.23-.91-1.82-1.38a7.22,7.22,0,0,1,3.61-1.1L218,283.35l-8.55-4.6a49.42,49.42,0,0,1-4.42-6.61q-.47-.83-.9-1.68s0,0,0,0q-.45-.92-.87-1.83h0a49.7,49.7,0,0,1-2.26-6c-.46-1.47-.86-3-1.18-4.52a.06.06,0,0,1,0,0c-.22-1.07-.41-2.16-.56-3.26a49.63,49.63,0,0,1-.51-7.15c0-.56,0-1.13,0-1.68,0-.83.07-1.66.15-2.47s.15-1.62.25-2.42a1.24,1.24,0,0,1,0-.18c.15-1.12.33-2.21.56-3.3a44.8,44.8,0,0,1,1.17-4.63,46.26,46.26,0,0,1,2.31-6.15,48.71,48.71,0,0,1,3-5.57c3.44-1.82,5.64-2.77,5.64-2.77s58.7-11.65,59.61-12.65,5.35-.37,5.35-.37a51.25,51.25,0,0,1,7.67,6.18c.55.53,1.08,1.09,1.62,1.65.35.38.7.78,1,1.17.58.66,1.15,1.35,1.7,2a50.11,50.11,0,0,1,5.26,8.22c.58,1.12,1.11,2.27,1.6,3.44v0a60.14,60.14,0,0,1-1.06,32.75A11.47,11.47,0,0,1,298,260.33Z" transform="translate(-198.71 -200.27)"/><path class="cls-2" d="M298,260.33l-.36,1.29a1.67,1.67,0,0,1,0,.18,50.34,50.34,0,0,1-48.41,36.27c-.89,0-1.8,0-2.68-.07h0c-1.32-.07-2.63-.19-3.92-.35a50,50,0,0,1-22.89-9.11c-.62-.45-1.23-.91-1.82-1.38a7.22,7.22,0,0,1,3.61-1.1L218,283.35l-8.55-4.6a49.42,49.42,0,0,1-4.42-6.61q-.47-.83-.9-1.68s0,0,0,0q-.45-.92-.87-1.83h0a49.7,49.7,0,0,1-2.26-6c-.46-1.47-.86-3-1.18-4.52a.06.06,0,0,1,0,0c-.22-1.07-.41-2.16-.56-3.26a49.63,49.63,0,0,1-.51-7.15c0-.56,0-1.13,0-1.68,0-.83.07-1.66.15-2.47s.15-1.62.25-2.42a1.24,1.24,0,0,1,0-.18c.15-1.12.33-2.21.56-3.3a44.8,44.8,0,0,1,1.17-4.63,46.26,46.26,0,0,1,2.31-6.15,48.71,48.71,0,0,1,3-5.57c3.44-1.82,5.64-2.77,5.64-2.77s58.7-11.65,59.61-12.65,5.35-.37,5.35-.37a51.25,51.25,0,0,1,7.67,6.18c.55.53,1.08,1.09,1.62,1.65.35.38.7.78,1,1.17.58.66,1.15,1.35,1.7,2a50.11,50.11,0,0,1,5.26,8.22c.58,1.12,1.11,2.27,1.6,3.44v0a60.14,60.14,0,0,1-1.06,32.75A11.47,11.47,0,0,1,298,260.33Z" transform="translate(-198.71 -200.27)"/><path class="cls-3" d="M296.51,247.65a45.94,45.94,0,0,1-.3,5.28,45.14,45.14,0,0,1-1.55,7.84,1.09,1.09,0,0,1-.05.17A47.31,47.31,0,0,1,249.13,295c-.84,0-1.69,0-2.52-.07h0c-1.24-.06-2.47-.18-3.68-.33a46.94,46.94,0,0,1-21.5-8.56c-.93-.66-1.83-1.37-2.7-2.1-.24-.2-.48-.4-.71-.61a48.26,48.26,0,0,1-10.3-12.69c-.29-.52-.57-1.05-.85-1.58,0,0,0,0,0-.05-.29-.57-.56-1.14-.82-1.72h0a45.42,45.42,0,0,1-2.12-5.6,42.54,42.54,0,0,1-1.11-4.24.06.06,0,0,1,0,0c-.21-1-.39-2-.53-3.06a46.63,46.63,0,0,1-.48-6.72c0-.53,0-1.06,0-1.58,0-.78.07-1.56.14-2.32s.14-1.52.24-2.27a1,1,0,0,1,0-.17c.14-1.05.31-2.08.52-3.1a41.94,41.94,0,0,1,1.1-4.35,44,44,0,0,1,2.17-5.78,47.11,47.11,0,0,1,3.17-5.85,43,43,0,0,1,2.66-3.75,46.62,46.62,0,0,1,4.3-4.8,47.2,47.2,0,0,1,33-13.41l1.49,0c.53,0,1.06,0,1.59.08,1.47.1,2.93.26,4.36.49h.05c1.2.18,2.38.42,3.54.7,1.5.36,3,.78,4.41,1.28,1,.33,1.94.7,2.89,1.1.71.3,1.4.61,2.09.94l.36.17a47.47,47.47,0,0,1,12.39,8.76c.52.5,1,1,1.52,1.55.33.36.66.73,1,1.1.55.62,1.08,1.27,1.6,1.92a47.14,47.14,0,0,1,9.89,24.73A45.21,45.21,0,0,1,296.51,247.65Z" transform="translate(-198.71 -200.27)"/><path class="cls-4" d="M226,228.77a8.24,8.24,0,0,0-.21,5.63c1.05,2.83,4,.95,7.49,0s7.11-4.64,9.38-6.92,4.45-5.4,4.26-8.44-3.39-5-3.39-5,1.17-1.48.19,4.46-2.31,8.06-3.58,9-5.14,3.2-7.25,4.46-4.46,2.57-5.86,2.26S224.89,230.76,226,228.77Z" transform="translate(-198.71 -200.27)"/><path class="cls-5" d="M232.42,226.72s-1.79,1.6-1.32,2.88,3.89.46,6.07-2.3a4,4,0,0,0,.45-5s-.8,4.61-2.92,5.42-2.81.47-2.81.47S231.56,227.83,232.42,226.72Z" transform="translate(-198.71 -200.27)"/><path class="cls-6" d="M227,228.71s1.74-2,3.73-3.83a13.18,13.18,0,0,1,5.44-2.57,4.9,4.9,0,0,0-4.59.43C229,224.24,227,228.71,227,228.71Z" transform="translate(-198.71 -200.27)"/><path class="cls-7" d="M219.85,228.75a27.89,27.89,0,0,1,9-6.44c4.92-1.94,6.63-2.51,8.81-4.31a40.4,40.4,0,0,1,4.64-3.24s-4.8.25-12.13,4.89S219.83,227.24,219.85,228.75Z" transform="translate(-198.71 -200.27)"/><path class="cls-8" d="M210,227.85s7-7,12.51-9.75,9.19-4.55,14.12-5.78,12.54-3.38,12.54-3.38l1.37-.69s-15.66.31-25.94,6.51S210,227.85,210,227.85Z" transform="translate(-198.71 -200.27)"/><path class="cls-9" d="M218.38,235.93s1.17,9.68,2.85,10.12,7.72.39,16.69-4.2,10.8-3.53,15.82-8.64,7.07-10.91,8.63-14.73,2-8.18,1.52-9.54c0,0,1.7,1,1.7,4.8a41.76,41.76,0,0,1-2.75,13.84c-1.61,3.69-5.78,9.46-10.8,12.31s-15.06,8.3-24.92,8.22-8.29-.79-9.31-2.75S218.38,235.93,218.38,235.93Z" transform="translate(-198.71 -200.27)"/><path class="cls-10" d="M203,244.2a61.08,61.08,0,0,1,2.75,7.47c1,3.56.8,9.63,4.87,10.57s9.76,3.6,11.94,2.94,10.22-2.1,14.68-1.23,12.6.38,15.44-1,9-5.07,11.87-6.18,6.93-4.28,10.39-7.8,3.42-7.53,4.27-9.52,2.56-9.94,2.37-13.54-2.37-10.33-2.37-10.33l-2-2.14s2.5,9.24,1.37,15.78-.1,9.19-4.65,15.44a37.23,37.23,0,0,1-18,13.55c-7.1,2.37-11.66,2.08-19,2.77-6.89.64-15.46.15-18.87-.74a17.24,17.24,0,0,1-10.31-7.84C204.58,247.37,203,244.2,203,244.2Z" transform="translate(-198.71 -200.27)"/><path class="cls-11" d="M218.69,234s.65,10.51,2,11.41,4.17,1.28,6.82.38,11.75-3.88,13.31-4.83,11.14-5.73,13-7.15,4.4-6.48,5.26-7.53,3.17-7.3,3.83-9.67,1.14-5.21,1.14-5.21a1.64,1.64,0,0,0-.95-1.75c-1.13-.43-1.32,0-1.32,0s-.24,1.56-1.23,6.06-14.4,19.94-21.18,24a26.38,26.38,0,0,1-15.54,3.88C221.53,243.25,218.64,235.77,218.69,234Z" transform="translate(-198.71 -200.27)"/><path class="cls-11" d="M218.38,235.93s.28-6.54,2-8.74,7.36-6.72,10.71-8.43,8.24-4.12,9.94-4.48a6.38,6.38,0,0,1,2.9,0s-2.05-1.11-6.73.08-10,5.54-12.56,6.89-6.53,4.62-7.48,6.27S218.38,235.93,218.38,235.93Z" transform="translate(-198.71 -200.27)"/><path class="cls-11" d="M206.86,229l14.53-12.73,9-4.08s8.9-3,13-4S256.59,207,256.59,207l4.79.52S253,203,240.72,206.3s-20.51,7.46-24.11,10.86S207.57,227.37,206.86,229Z" transform="translate(-198.71 -200.27)"/><path class="cls-12" d="M206.45,229.6s-7.81,9.43-4,15.23S207.89,259,209,260.94s13.67,4.87,16.29,4.26,8.87-2.24,13-.66c0,0,7.25-.62,9.34-.62s5.87-1.77,6.75-2.21,5.81-2,8.34-3,6.57-4.17,8.21-5.44a43.77,43.77,0,0,0,6.76-8c.82-1.58,3.28-10.8,3.92-15.16s-1.24-12.76-2.66-15.66-5.87-5.63-5.87-5.63l.26-1.31,3.47-2.07s6.06,7.94,6.63,14.8c.33,4,1.26,12.59.2,16.27-.85,3-3.74,11.64-6.27,14.75s-10.1,11-14.14,12.56-16,3.6-23,3.74c-5.18.11-16.58-.82-22.19-1s-9.61-3.7-11.84-5.48-1.47-6.63-3.74-10.46-3.53-8.92-3-11.69S206.45,229.6,206.45,229.6Z" transform="translate(-198.71 -200.27)"/><path class="cls-13" d="M220.16,265.49c-1.2-.28-2.28-.94-3.47-1.24-.67-.16-1.33-.26-2-.45a9.32,9.32,0,0,0-2.09-.35,4.58,4.58,0,0,1-3.69-1.54,10.11,10.11,0,0,1-1.62-3.39c-.47-1.68-.92-3.36-1.44-5a18.09,18.09,0,0,0-2-4.3c-.34-.55-.63-1.1-1-1.63a11.14,11.14,0,0,1-1.07-1.48h0a9.85,9.85,0,0,1-.85-4.47,12.24,12.24,0,0,1,.43-2.39,10.07,10.07,0,0,1,1-2.81c.48-.83,1-1.68,1.43-2.53a43.7,43.7,0,0,1,3.52-5.45,77,77,0,0,1,5.55-6.15,30.93,30.93,0,0,1,3.67-3.09c1.08-.8,2.08-1.68,3.15-2.49a34.37,34.37,0,0,1,6-3.31c2.49-1.2,5-2.36,7.57-3.31a65.71,65.71,0,0,1,9.43-2.66,55.46,55.46,0,0,1,11.22-.87c2,0,4.22-.25,6.17.51a16.84,16.84,0,0,1,3.34,1.52,1.34,1.34,0,0,1,.46.38,1.59,1.59,0,0,1,.19.42,4,4,0,0,1,.33,1.3c0,.41-.18.77-.18,1.2,0,.61-.15,1.16-.17,1.76a17.08,17.08,0,0,1-.3,1.9,15.88,15.88,0,0,1-.86,3.6c-.7,1.69-1.16,3.47-1.93,5.14-.23.51-.64.9-.87,1.41s-.42.84-.68,1.28c-.49.82-.89,1.67-1.45,2.45A24.27,24.27,0,0,1,254.1,234a34.78,34.78,0,0,1-6,3.9c-1.38.73-2.82,1.32-4.22,2-1.25.62-2.5,1.26-3.76,1.85a80.51,80.51,0,0,1-10.08,3.69,17.63,17.63,0,0,1-2.91.78,19.36,19.36,0,0,1-2.92.41,10.5,10.5,0,0,1-3-.58c-1.62-.54-1.78-2.3-1.9-3.76a29.47,29.47,0,0,0-.42-3.25c-.16-.87-.23-1.73-.43-2.61a13.05,13.05,0,0,1-.34-2.71,14.2,14.2,0,0,1,.69-3.38,12.66,12.66,0,0,1,.55-2.18,7.87,7.87,0,0,1,2.06-2.63c.83-.74,1.65-1.47,2.47-2.22.49-.46,1.07-.8,1.59-1.22a17,17,0,0,1,3-1.83,26.64,26.64,0,0,0,2.18-1.61,27.26,27.26,0,0,1,2.5-1.47c.73-.36,1.52-.61,2.28-.91s1.19-.6,1.82-.81,1.18-.26,1.75-.5a12.75,12.75,0,0,1,1.67-.59,10.5,10.5,0,0,1,2-.45,2.11,2.11,0,0,1,2.27,1.89c.46,1.72-.07,3.17-.69,4.76-.5,1.28-1.05,2.55-1.54,3.85-.65,1.73-2.19,2.64-3.49,3.82a18.55,18.55,0,0,1-4.74,3.1c-.53.24-1.1.38-1.62.6s-.89.45-1.34.69c-.29.16-.5.39-.77.57s-.52.25-.77.41a12.63,12.63,0,0,1-1.89,1.08c-.64.29-1.91.46-2.33-.29a4.92,4.92,0,0,1-.29-1.34,6.26,6.26,0,0,1-.14-1.5,8.47,8.47,0,0,1,.18-1.43,8.71,8.71,0,0,1,.46-1.36,13.63,13.63,0,0,1,2.25-3.49,22.21,22.21,0,0,1,1.58-2.07,6.88,6.88,0,0,1,3.44-1.76c1.14-.28,2.84-.62,3.89,0,.89.55.27,1.76,0,2.5-.16.41-.33.83-.47,1.25a4.33,4.33,0,0,1-.32,1,7.54,7.54,0,0,1-1.65,1.53,3.58,3.58,0,0,1-.95.61c-.38.12-.79.11-1.17.2-.19,0-.29.28-.52.19s-.21-.31-.17-.53.13-.4.17-.59,0-.11,0-.16a8.25,8.25,0,0,1,1.25-1.83c.54.22.17.54.07.78a5.78,5.78,0,0,0-.11.6c0,.17-.3.48-.11.66s.57-.1.71-.15a4.24,4.24,0,0,0,2.27-2.83c.23-.75.19-2.05-.64-2.38a5.94,5.94,0,0,0-2-.12c-2.35,0-3.74,2.47-5,4.09a13.74,13.74,0,0,0-2,3.65,27,27,0,0,0-.72,2.74c-.18.67-.4,1.7.63,1.56a11.75,11.75,0,0,0,1.82-.6,9.19,9.19,0,0,0,1.41-.6c.74-.4,1.57-.51,2.34-.85.6-.27,1.21-.6,1.81-.89a13.72,13.72,0,0,0,4.14-3.6,32.2,32.2,0,0,1,2.57-2.37,12.54,12.54,0,0,0,1.91-2.95,11.46,11.46,0,0,0,1.15-3.25c.24-1,.86-2.22.54-3.3s-1.78-1.14-2.71-1a11.81,11.81,0,0,0-2.35.55c-1.36.54-2.7,1.12-4.05,1.67a43.42,43.42,0,0,0-5.85,3.52,28.94,28.94,0,0,0-3,1.78c-.68.53-1.33,1.15-2,1.73a14.38,14.38,0,0,1-1.36,1.23A8.23,8.23,0,0,0,221,227a7.11,7.11,0,0,0-1.11,1.8,3.84,3.84,0,0,0,0,1.51,20.41,20.41,0,0,1-.19,2.07c0,.74,0,1.5,0,2.24,0,1.45-.22,2.86-.19,4.33a16,16,0,0,0,.4,2.74,16,16,0,0,1,.48,2.05,1.81,1.81,0,0,0,.51,1.39,2.78,2.78,0,0,0,.69.28l.6.21.35.1c.09.05.16.18.25.22a1.64,1.64,0,0,0,.85,0c.58-.11,1.15-.25,1.73-.35a22.88,22.88,0,0,0,4.3-.74c1.59-.6,3.07-1.46,4.64-2.1a73,73,0,0,0,7.12-2.87c1-.55,2.06-1.06,3.1-1.53,2.47-1.11,5.06-2,7.23-3.68a18.9,18.9,0,0,0,2.17-2.12c.4-.43.83-.81,1.19-1.28a31.38,31.38,0,0,0,2.89-4.42c.35-.65.56-1.36.92-2,.56-1,1.24-1.9,1.76-2.94a20.48,20.48,0,0,0,1.15-3.12,5.36,5.36,0,0,0,.34-1.9,8.9,8.9,0,0,1,.69-3.89,4.17,4.17,0,0,0,.52-2.53c-.12-.39-.68-.49-1-.6-.8-.27-1.63-.47-2.4-.81a8.13,8.13,0,0,0-2-.83,3.68,3.68,0,0,0-.87-.09c-.75,0-1.4.56-2.15.53a4.33,4.33,0,0,1-.68-.14,7.92,7.92,0,0,0-1.19,0c-.86,0-1.69-.19-2.56-.18s-2,.1-3,.16-1.91,0-2.86,0a3.85,3.85,0,0,0-1.53.54c-.49.22-1,.31-1.55.5a4,4,0,0,1-1.35.36,10.15,10.15,0,0,0-2,.05,15,15,0,0,0-2.36.82c-2.13.91-4.2,2-6.41,2.75-1.07.33-2.17.48-3.21.9a6.7,6.7,0,0,0-1.08.67c-.7.47-1.43.9-2.15,1.35-1.61,1-3.14,2.14-4.67,3.28a31.16,31.16,0,0,0-5,4.38,106.64,106.64,0,0,0-7.56,9.28,31.12,31.12,0,0,0-3,4.92l-.05.11a5.92,5.92,0,0,0-.5,3.1.13.13,0,0,0,0,.06,11.17,11.17,0,0,0,.85,2.72,21.69,21.69,0,0,0,1.09,2.41,18.58,18.58,0,0,1,1.53,2.42c.43,1.11.82,2.3,1.15,3.45a42.43,42.43,0,0,1,1,4.43,10,10,0,0,0,.76,2.69c.61,1.18,1.91,1.62,3,2.31a2.78,2.78,0,0,0,1.63.52,11.85,11.85,0,0,1,2.76.55,19,19,0,0,0,5.92,1,30.3,30.3,0,0,0,3.55-.49c1.11-.14,2.22-.25,3.32-.43a19,19,0,0,1,3-.44,11.66,11.66,0,0,1,3,.42,16.3,16.3,0,0,0,5,.76c1.06,0,2.1-.27,3.15-.34a21.74,21.74,0,0,1,2.91.16,13.45,13.45,0,0,0,5-.85,14.59,14.59,0,0,0,3-1.48,8.89,8.89,0,0,1,2.45-.84,21.43,21.43,0,0,0,5-2c2-1.16,3.72-2.87,5.7-4.11,1.12-.7,2.38-1.16,3.47-1.91a16.77,16.77,0,0,0,2.51-2.09c.89-.9,1.73-1.84,2.62-2.74a7.83,7.83,0,0,0,1.35-2.41,14.19,14.19,0,0,0,1-4,14.94,14.94,0,0,1,1.42-3.82,14.43,14.43,0,0,0,1.55-4.92c.13-1.35.31-2.71.31-4.07a20.31,20.31,0,0,0-.26-2.58c-.11-.8-.27-1.57-.44-2.36-.22-1-.19-2-.37-3s-.42-1.73-.65-2.56a13.6,13.6,0,0,0-.62-1.76,11.87,11.87,0,0,0-1.73-2.85,4.93,4.93,0,0,0-1-.71c-.26-.2-.32-.37-.62-.52s-.84-.42-1.25-.65c-.66-.38-1.41-.49-2.07-.85s-1.2-.79-1.8-1.17a11.59,11.59,0,0,1-2-1.28c-.58-.56-1-1.27-1.52-1.83a18.81,18.81,0,0,0-2-1.46c-1.13-.88-2.46-1-3.73-1.49a9.37,9.37,0,0,0-1.95-.46,20.12,20.12,0,0,0-2.11-.72A13,13,0,0,1,255,202a8,8,0,0,0-1.26-.25,12.4,12.4,0,0,0-2.51.13,20.75,20.75,0,0,1-2.23,0,11.93,11.93,0,0,1-1.89,0,25.64,25.64,0,0,0-5.47-.12,18.91,18.91,0,0,0-5,.8c-1.37.47-2.72.87-4.06,1.42a22.65,22.65,0,0,0-2.58,1.36c-2.07,1.16-4,2.58-5.94,3.9-2.2,1.46-4.27,3.08-6.39,4.67-1.38,1-2.78,2.07-4.14,3.14-.59.47-1.16,1-1.72,1.46a46.62,46.62,0,0,1,4.3-4.8,47.2,47.2,0,0,1,33-13.41l1.49,0c.53,0,1.06,0,1.59.08,1.47.1,2.93.26,4.36.49h.05q2.44.66,4.87,1.4c1.35.41,2.71.78,4,1.24.88.3,1.74.69,2.59,1a23.29,23.29,0,0,1,2.34,1,33.37,33.37,0,0,1,3.34,2.34,21.59,21.59,0,0,1,2,1.79,17.44,17.44,0,0,1,2.42,2.94,24.91,24.91,0,0,1,3.52,8.27,31.48,31.48,0,0,1,.35,7.64,26.28,26.28,0,0,1-.56,4.13,41.17,41.17,0,0,0-1,4.3c-.07.73.05,1.48-.07,2.2s-.32,1.16-.44,1.75a14.06,14.06,0,0,1-1.2,3.61,21.58,21.58,0,0,1-3,4.22c-1.27,1.51-2.63,3-3.95,4.44a19.58,19.58,0,0,1-4.64,3.71,28.06,28.06,0,0,1-4.14,2.32,18,18,0,0,1-4.37,1.47,5.6,5.6,0,0,0-2.92,1.21c-.55.4-1,.94-1.47,1.37a4.44,4.44,0,0,1-1.55.7,12,12,0,0,1-4,.34,56.49,56.49,0,0,0-5.81.39,18,18,0,0,1-2.93.12c-.88-.05-1.75-.28-2.62-.39s-1.94-.14-2.9-.29a6.62,6.62,0,0,0-2.13,0c-.62.07-1.24,0-1.86.05s-1.27.2-1.91.29C225.86,264.85,223.13,266.19,220.16,265.49Z" transform="translate(-198.71 -200.27)"/><path class="cls-14" d="M217.81,287.16s11.09,1.95,16.13,1.8c7.62-.22,16.41.73,23.23.92s18.74-5.41,20.92-6.43a41,41,0,0,0,12-9.12c4.6-5.09,6.41-13.39,6.41-13.39h-1.92a22.92,22.92,0,0,1-3.49,7.62c-1.66,2.42-4.11,4.54-7.44,7.42a43,43,0,0,1-17.34,8.91c-8.38,2.09-15.83,1.51-21,2.27-7.44,1.11-24-1.52-24-1.52Z" transform="translate(-198.71 -200.27)"/><path class="cls-15" d="M214.88,281.67s1.77,4.6,2.93,5.49c0,0,2.44.15,3.61-1.1L218,283.35Z" transform="translate(-198.71 -200.27)"/><path class="cls-16" d="M296.67,252.36a59.69,59.69,0,0,1,1.28,8s-1.85,1.17-3.34.61C294.61,260.94,296.36,254.58,296.67,252.36Z" transform="translate(-198.71 -200.27)"/><path class="cls-17" d="M264.57,202.85s9.89,1,12.2,2.61a6.82,6.82,0,0,1-3.47,2.07S265.28,203.08,264.57,202.85Z" transform="translate(-198.71 -200.27)"/><path class="cls-17" d="M206.17,221.25l4.05-.64,1.59-2.13S208.91,219.76,206.17,221.25Z" transform="translate(-198.71 -200.27)"/><path class="cls-18" d="M209.46,278.75s19.18,5.57,34.15,5.85,20.59-3.05,27.06-5.55,17.1-8.24,20.31-12.48,5.69-14.21,5.69-14.21-3.08,15-5.74,17.61-14.54,10.65-16.63,11.7-7.75,5.34-18,4.14c0,0-6.88,1-9.38.78s-6.35,2.32-13.46,0c0,0-9.89-.5-12.05-1S209.46,278.75,209.46,278.75Z" transform="translate(-198.71 -200.27)"/><path class="cls-19" d="M214.12,258.62s15.89,2.76,27.41,1.58,17.74-4.05,21-6.2,9.72-9,12.13-12.15,3.62-10.95,3.62-10.95.44,7.64-1.53,10.95-8.72,9.61-11.47,11.43-10.66,6.17-14.79,6.92-10.93,2.84-15.86,1.93S217.75,261.38,214.12,258.62Z" transform="translate(-198.71 -200.27)"/><path class="cls-20" d="M236.16,284.07s16.54-1.14,22.23-2.4,13.15-4.34,18.38-6.26,9.18-5.71,12.06-7.82,6.57-10.86,6.57-10.86-2.35,8.68-6,11.51-12.88,8-23.35,12.67C254.45,286.07,245.41,284.6,236.16,284.07Z" transform="translate(-198.71 -200.27)"/><path class="cls-13" d="M293.81,263.29c.26-.79.54-1.57.8-2.35a47.25,47.25,0,0,1-3.68,9l0,0c-.44.43-1,.77-1.39,1.24s-.79.94-1.24,1.38a45.05,45.05,0,0,1-7.18,5.64,55.34,55.34,0,0,1-8.11,4.58,43.92,43.92,0,0,1-6.78,2.37,29,29,0,0,1-5.8.78c-1,.05-1.94.21-2.91.3-1.21.13-2.45.11-3.64.32a49,49,0,0,1-6.27.76c-1.79.1-3.57.35-5.36.35-2.3,0-4.58-.37-6.88-.36s-4.48-.08-6.7-.28c-1.33-.13-2.63-.38-3.94-.53-1.11-.13-2.18-.37-3.28-.49-.93-.66-1.83-1.37-2.7-2.1-.24-.2-.48-.4-.71-.61,1.26.4,2.51.83,3.78,1.23a32.55,32.55,0,0,0,5.64,1.12,13.86,13.86,0,0,0,4.85-.05c1.56-.39,2.72.11,4.14.69a19.58,19.58,0,0,0,2,.6,5.92,5.92,0,0,0,2.68.09c.87-.11,1.78-.26,2.65-.45s1.45-.46,2.2-.56a13.63,13.63,0,0,1,4-.12,13.61,13.61,0,0,0,4.5.17,28.65,28.65,0,0,1,4.62-.42,8.29,8.29,0,0,1,1.5.14,6,6,0,0,0,1.69-.12,15,15,0,0,0,3-.57c.92-.29,1.8-.7,2.7-1a22.24,22.24,0,0,0,4.91-2.37c1.31-.88,2.76-1.5,4.09-2.35s2.4-1.85,3.7-2.63,2.62-1.85,3.93-2.78c.83-.59,1.57-1.29,2.4-1.89s1.51-.93,2.18-1.52a12.75,12.75,0,0,0,3-3.37A20.44,20.44,0,0,0,293.81,263.29Z" transform="translate(-198.71 -200.27)"/><path class="cls-21" d="M243,237s11.44-9.36,16.24-18.48C259.28,218.48,246,232.16,243,237Z" transform="translate(-198.71 -200.27)"/><path class="cls-22" d="M231,248.11a43.1,43.1,0,0,0,15.21-3.28,27.12,27.12,0,0,0,12-10.2,53,53,0,0,1-11.29,8.05C241.05,245.57,236.6,246.28,231,248.11Z" transform="translate(-198.71 -200.27)"/><path class="cls-22" d="M259.57,233s.81-2.06,2.32-5.68a45.22,45.22,0,0,1,2.71-5.55A23.21,23.21,0,0,1,259.57,233Z" transform="translate(-198.71 -200.27)"/><path class="cls-23" d="M228.55,267.15a60.73,60.73,0,0,0,23.11,0c13.07-2.44,13.64-3.24,17.24-6.06s6.16-6.44,7.58-7.81,3.21-6.1,3.21-6.1a45.68,45.68,0,0,1-9,11.09c-5.3,4.45-9.66,6.63-18.57,8A128.94,128.94,0,0,1,228.55,267.15Z" transform="translate(-198.71 -200.27)"/><path class="cls-23" d="M237.36,288.93s9.09.79,12.78,1.55,10.8.73,14.88-.78,12.14-5.82,12.14-5.82a48.21,48.21,0,0,1-16.5,5.18C251.69,290,246.23,288.49,237.36,288.93Z" transform="translate(-198.71 -200.27)"/><path class="cls-23" d="M279.8,282.56a99.66,99.66,0,0,0,8.61-6.45A21.89,21.89,0,0,1,279.8,282.56Z" transform="translate(-198.71 -200.27)"/><path class="cls-24" d="M235.94,233.21s6.59-5,8.68-8.54a16,16,0,0,0,2.3-5.63s.93,3.49-3,7.92A27,27,0,0,1,235.94,233.21Z" transform="translate(-198.71 -200.27)"/><path class="cls-25" d="M220.55,229.75c-.53,2.42-1.07,4.88-.25,7.21s2.09,3.84,3.29,4,3-2.72,2.9-3.54-2-3-2.08-5.11,2.21-5.31,2.08-6.51S221.43,225.77,220.55,229.75Z" transform="translate(-198.71 -200.27)"/><path class="cls-26" d="M221.63,219.86c-.79-.85-6.12,4.14-9.82,8s-7.36,8.91-7.68,12.13,2.34,8.09,7.14,12.38,17.3,8.21,20.3,6.44,1.9-7.26-.55-8.59-10.4,1.35-14.13-2.57-2-9.17-1.58-13.6c.57-5.41,2.28-10,3.86-11.36A14.39,14.39,0,0,0,221.63,219.86Z" transform="translate(-198.71 -200.27)"/><path class="cls-27" d="M205.3,236.53c-1,3.5-1.15,7.23,1,10.1s3.77.72,4.53-6.28a65.33,65.33,0,0,0,.32-11.79S206.6,232.14,205.3,236.53Z" transform="translate(-198.71 -200.27)"/><path class="cls-28" d="M208.81,248.67c-1.45,1.35,2,4,2.58,2.73S209.76,247.79,208.81,248.67Z" transform="translate(-198.71 -200.27)"/><path class="cls-28" d="M205,259.24c-.14,2.22,1.12,4.74,5,6.19a15.9,15.9,0,0,0,6.92,1.06s-4.54-.9-7-2.65A30.2,30.2,0,0,1,205,259.24Z" transform="translate(-198.71 -200.27)"/><path class="cls-27" d="M220.88,230.09c-1.29-1.69.38-4,2.73-5.44s2.63-1,2.13.26-1.27,3.87-2.37,5.18S221.63,231.1,220.88,230.09Z" transform="translate(-198.71 -200.27)"/><path class="cls-27" d="M229.32,227.14c-.49-.83.49-3.25,1.83-3s1,.76.39,1.64C231.07,226.41,229.78,227.93,229.32,227.14Z" transform="translate(-198.71 -200.27)"/><path class="cls-27" d="M239,231.3c-.46-.94,3.28-3.82,3.79-3.52s.17,1.82-.7,2.4S239.18,231.63,239,231.3Z" transform="translate(-198.71 -200.27)"/></g></g></svg>