<svg xmlns="http://www.w3.org/2000/svg" xmlns:xlink="http://www.w3.org/1999/xlink" viewBox="0 0 98.14 95.58"><defs><style>.cls-1{isolation:isolate;}.cls-10,.cls-11,.cls-13,.cls-2,.cls-3,.cls-4,.cls-6,.cls-8,.cls-9{fill-rule:evenodd;}.cls-2{fill:url(#Áåçûìÿííûé_ãðàäèåíò_163);}.cls-3{fill:#7d72b3;mix-blend-mode:multiply;opacity:0.4;}.cls-4{fill:url(#Áåçûìÿííûé_ãðàäèåíò_189);}.cls-5{opacity:0.7;}.cls-14,.cls-6{mix-blend-mode:screen;}.cls-6{fill:url(#Áåçûìÿííûé_ãðàäèåíò_197);}.cls-7{mix-blend-mode:soft-light;}.cls-8{fill:#ff9f84;}.cls-9{fill:#ffef84;}.cls-10{fill:url(#Áåçûìÿííûé_ãðàäèåíò_193);}.cls-11{fill:url(#Áåçûìÿííûé_ãðàäèåíò_192);}.cls-12{fill:url(#Áåçûìÿííûé_ãðàäèåíò_193-2);}.cls-13{fill:#ffff0e;}.cls-14{fill:url(#Áåçûìÿííûé_ãðàäèåíò_199);}</style><radialGradient id="Áåçûìÿííûé_ãðàäèåíò_163" cx="114.67" cy="256.65" r="76.1" gradientUnits="userSpaceOnUse"><stop offset="0.01" stop-color="#de6863"/><stop offset="0.2" stop-color="#db6563"/><stop offset="0.35" stop-color="#d15d62"/><stop offset="0.49" stop-color="#c14f60"/><stop offset="0.62" stop-color="#a93b5e"/><stop offset="0.74" stop-color="#8b225b"/><stop offset="0.86" stop-color="#670357"/><stop offset="0.87" stop-color="#630057"/></radialGradient><linearGradient id="Áåçûìÿííûé_ãðàäèåíò_189" x1="96.64" y1="265.81" x2="164.79" y2="265.81" gradientUnits="userSpaceOnUse"><stop offset="0.01" stop-color="#ff7d85"/><stop offset="0.3" stop-color="#fc7b84"/><stop offset="0.51" stop-color="#f3757f"/><stop offset="0.7" stop-color="#e36b77"/><stop offset="0.87" stop-color="#cc5c6c"/><stop offset="1" stop-color="#b54d61"/></linearGradient><radialGradient id="Áåçûìÿííûé_ãðàäèåíò_197" cx="109.39" cy="246.56" r="62.36" gradientUnits="userSpaceOnUse"><stop offset="0" stop-color="#ffff4a"/><stop offset="1"/></radialGradient><linearGradient id="Áåçûìÿííûé_ãðàäèåíò_193" x1="96.42" y1="258.41" x2="180.12" y2="258.41" gradientUnits="userSpaceOnUse"><stop offset="0.01" stop-color="#ffb80b"/><stop offset="0.39" stop-color="#ffb60c"/><stop offset="0.58" stop-color="#feae10"/><stop offset="0.73" stop-color="#fca117"/><stop offset="0.85" stop-color="#fa8e21"/><stop offset="0.97" stop-color="#f7762e"/><stop offset="1" stop-color="#f66d33"/></linearGradient><radialGradient id="Áåçûìÿííûé_ãðàäèåíò_192" cx="103.77" cy="300.97" r="24.06" xlink:href="#Áåçûìÿííûé_ãðàäèåíò_193"/><linearGradient id="Áåçûìÿííûé_ãðàäèåíò_193-2" x1="94.81" y1="292.95" x2="192.94" y2="292.95" xlink:href="#Áåçûìÿííûé_ãðàäèåíò_193"/><radialGradient id="Áåçûìÿííûé_ãðàäèåíò_199" cx="17.51" cy="333.19" r="10.09" gradientTransform="matrix(1.67, 0, 0, 1.07, 113.85, -80.33)" gradientUnits="userSpaceOnUse"><stop offset="0" stop-color="#ff5b00"/><stop offset="0.17" stop-color="#c54600"/><stop offset="0.4" stop-color="#802e00"/><stop offset="0.6" stop-color="#491a00"/><stop offset="0.78" stop-color="#210c00"/><stop offset="0.92" stop-color="#090300"/><stop offset="1"/></radialGradient></defs><g class="cls-1"><g id="Layer_1" data-name="Layer 1"><path class="cls-2" d="M191.39,278.81A47.33,47.33,0,0,1,144,326.18c-.84,0-1.69,0-2.52-.07h0c-1.24-.06-2.47-.18-3.68-.33a47.07,47.07,0,0,1-24.2-10.66,48.27,48.27,0,0,1-11-13.3c-.29-.52-.57-1.05-.85-1.58,0,0,0,0,0-.05-.29-.57-.56-1.14-.82-1.72h0a45.42,45.42,0,0,1-2.12-5.6,42.54,42.54,0,0,1-1.11-4.24.06.06,0,0,1,0,0c-.21-1-.39-2-.53-3.06a46.63,46.63,0,0,1-.48-6.72c0-1.31,0-2.62.17-3.9.06-.82.15-1.63.26-2.44a46.44,46.44,0,0,1,3.79-13.23A47.42,47.42,0,0,1,144,231.43l1.49,0c.53,0,1.06,0,1.59.08a47.19,47.19,0,0,1,7.95,1.2c1.5.36,3,.78,4.41,1.28,1,.33,1.94.7,2.89,1.1.71.3,1.4.61,2.09.94l.36.17A47.47,47.47,0,0,1,177.18,245c.52.5,1,1,1.52,1.55.33.36.66.73,1,1.1.55.62,1.08,1.27,1.6,1.92A47.24,47.24,0,0,1,190,267.39,47.24,47.24,0,0,1,191.39,278.81Z" transform="translate(-94.81 -231.43)"/><path class="cls-3" d="M96.64,278.81s11.17,19.82,22,22.89,23.13,1.12,27.35,2.69,6.51,8,6.51,8l1.57.9s3.6-5.6,5.81-2.29a18.66,18.66,0,0,1,1.77-10.39c2.65-5.7,4.42-11.83,7.71-13.79a17.44,17.44,0,0,1,14-1c4.76,1.89,7.23,1.53,7.23,1.53l.36-2.24.35-2a13.19,13.19,0,0,1-8.22-1.62s.5.87,3.34-4.43A20.53,20.53,0,0,0,189,267l-.4-4.4s-1.53,15.28-8,19.72c0,0-14.37-3-20.45,14,0,0-1,11.34-7.07,11s-3.94-7.74-12.65-7.81-14,3.5-22.64-1.42S96.64,278.81,96.64,278.81Z" transform="translate(-94.81 -231.43)"/><path class="cls-3" d="M141.49,326.11s6-8.93,12.55-8.88,9.6,2.44,14.78-.59a114.52,114.52,0,0,0,9.72-6.52,15.74,15.74,0,0,0,2.79-2.13l1.08-1.42a6.72,6.72,0,0,0-6.84.82c-3.2,2.59-9,8.45-13.58,8.42s-4.36-2.67-9.52-.6-16,9.4-16,9.4A9.59,9.59,0,0,0,141.49,326.11Z" transform="translate(-94.81 -231.43)"/><path class="cls-3" d="M99.24,294.32l.57,1.57s9.24,5.1,15.07,12.19S121.75,320,121.75,320s1-4.23-4-12.18S101.91,295.49,99.24,294.32Z" transform="translate(-94.81 -231.43)"/><path class="cls-4" d="M164.79,236.22a3.54,3.54,0,0,0-.47.07,3,3,0,0,1-1.48-.1,9.15,9.15,0,0,0-1.05-.33c-.58-.09-1.11-.34-1.69-.41a8.05,8.05,0,0,1-1.71-.53,1.66,1.66,0,0,0-1.12,0,1.56,1.56,0,0,1-1.13-.23,6,6,0,0,0-1.33-.31c-1.2-.25-2.39-.63-3.58-.94a8.39,8.39,0,0,0-2.18-.19c-.59,0-1.13.16-1.72.16a7.1,7.1,0,0,1-1.12-.12c-.41-.08-.82,0-1.22,0a2.84,2.84,0,0,0-1.53,0,4.48,4.48,0,0,1-1.26.15,10.61,10.61,0,0,0-1.56.27,11.69,11.69,0,0,1-2.77.36,6.43,6.43,0,0,0-1.91,0c-.35.12-.52.49-.76.74a14.73,14.73,0,0,0-1.41,1.44A2.87,2.87,0,0,0,133,238a5.16,5.16,0,0,0,.56,1.8c.26.56.35,1.08-.23,1.46a9.17,9.17,0,0,1-2.42,1.17,1.5,1.5,0,0,1-1.53-.14c-.17-.15-.27-.44-.49-.55s-.45,0-.69.07a15.93,15.93,0,0,1-1.77.47c-.37.06-.69.25-1.05.32s-.74-.24-1.2-.13a11.37,11.37,0,0,1-1.92.44,2.75,2.75,0,0,1-1.45-.42c-.23-.13-.29-.26-.55-.19a1.37,1.37,0,0,0-.65.48c-.16.22-.22.51-.37.74s-.32.5-.47.77a10.4,10.4,0,0,1-.94,1.49c-.25.33-.42.77-.69,1.08a3.88,3.88,0,0,1-.62.4c-.5.34-1,.66-1.49,1-.92.72-1.79,1.52-2.73,2.21a11.7,11.7,0,0,1-2.53,1.19c-.51.2-1,.35-1.55.56a2.3,2.3,0,0,0-.6.27,4.92,4.92,0,0,0-.45.65,12.28,12.28,0,0,0-1.25,1.71,6.87,6.87,0,0,0-.46,1.13c-.18.53-.47,1-.65,1.56-.37,1.12-.44,2.29-.85,3.4a18.16,18.16,0,0,1-.88,1.83,10.22,10.22,0,0,0-.73,3.3,7.25,7.25,0,0,0,.06,2,11.18,11.18,0,0,1,.09,2.09,3.46,3.46,0,0,1-1,2c-.43.52-1.08.71-1.55,1.17a3.76,3.76,0,0,0-1.06,1.41,5.16,5.16,0,0,0,0,.79c-.11.58-.26,1.13-.34,1.72a17.51,17.51,0,0,0-.1,2.17c0,.37,0,.74,0,1.11s.14.69.17,1,0,.49,0,.74.16.57.22.84c.17.65.29,1.3.41,1.95a18.63,18.63,0,0,0,.54,1.8,19.06,19.06,0,0,1,.6,2.48c.12.62.11,1.27.2,1.9s.19,1,.22,1.54c0,.77-.17,1.54-.18,2.32a16.94,16.94,0,0,0,.82,3.9l.28,1.07a47.5,47.5,0,0,1,2.3-46.8,47.8,47.8,0,0,1,7-8.55,47.2,47.2,0,0,1,33-13.41c1,0,2.06,0,3.08.1A47,47,0,0,1,164.79,236.22Z" transform="translate(-94.81 -231.43)"/><path class="cls-3" d="M108.22,252.25s10.67,9.54,24.74,9.81,19.3-.67,24-5.88,9.72-14,9.72-14a30.79,30.79,0,0,0-10.17,8.56C152.33,256.36,132.7,266,108.22,252.25Z" transform="translate(-94.81 -231.43)"/><g class="cls-5"><path class="cls-3" d="M109.07,252.53a24.86,24.86,0,0,0-3.55,5.29,20.16,20.16,0,0,0-1.44,5.56c-.18,1.11-.33,2.24-.5,3.36a9.75,9.75,0,0,0-.27,3,13.33,13.33,0,0,0,1,4.1,22,22,0,0,0,2.35,3.67,4.48,4.48,0,0,0,3.46,1.77c.8.05,1.59-.07,2.38,0,1.11.14,2.21.34,3.31.52,2.22.36,4.7.37,6.3-1.45a20.23,20.23,0,0,0,2.72-5.06,12.27,12.27,0,0,1,3.62-4.69c1.2-.93,2.26-2,3.42-3a9,9,0,0,1,1.44-1.26,7.31,7.31,0,0,0,1.41-1.16,14.89,14.89,0,0,0,1.43-1.2,9.59,9.59,0,0,0,1.53-2.74,15.14,15.14,0,0,0,.69-3.05,6.7,6.7,0,0,0-.48-3c-.6-1.84-2.16-3-3.64-4.13a14.29,14.29,0,0,0-6.21-2.47,18.72,18.72,0,0,0-6.55-.12,25.34,25.34,0,0,0-6.42,1.63,15.41,15.41,0,0,0-3.57,2.65,20.67,20.67,0,0,0-1.89,1.46C108.81,253.13,108.1,254,109.07,252.53Z" transform="translate(-94.81 -231.43)"/><path class="cls-3" d="M130.55,243.68a11.43,11.43,0,0,1,1-1.73,6.24,6.24,0,0,1,.77-.68,7.29,7.29,0,0,1,2.66-1.52,3.34,3.34,0,0,1,1.72,0,5.66,5.66,0,0,1,2,.94c.8.77.27,2.08,0,3a3.79,3.79,0,0,1-1.33,2.33,5.22,5.22,0,0,1-1.78.81,9.5,9.5,0,0,1-1.06.1,6.18,6.18,0,0,1-.85.11,2.36,2.36,0,0,1-1.93-1.11c-.14-.34-.22-.68-.37-1s-.21-.52-.31-.78C130.94,243.58,130.77,243.11,130.55,243.68Z" transform="translate(-94.81 -231.43)"/><path class="cls-3" d="M138.38,248.74a5,5,0,0,0-.32,1.61c.24.14.33.44.57.58a1.38,1.38,0,0,0,.76.08c.48,0,.93,0,1-.58s-.38-.88-.76-1.16-.82-.67-1.14-.28Z" transform="translate(-94.81 -231.43)"/><path class="cls-3" d="M145,256.44c-.62.44-1.28.83-1.87,1.3a11.55,11.55,0,0,0-1.91,2.1c-.72.93-1.57,1.9-1.39,3.16a4.75,4.75,0,0,0,1.55,3.09c1.1,1,2.79,1,4.07,1.58a5.7,5.7,0,0,1,2.33,2.68c.83,1.58,2.58,1.87,4.17,2.17,1,.19,2.06.34,3.1.47,1.4.17,2.79.44,4.2.57,2.58.25,5.18.84,7.78.64a15.24,15.24,0,0,0,7.52-2.79,10.6,10.6,0,0,0,4.16-6,10.79,10.79,0,0,0-1.44-7.26,56.29,56.29,0,0,0-5.29-7.8c-1.09-1.37-2.35-2.58-3.46-3.93a26.21,26.21,0,0,0-3.11-3.21c-2.58-2.21-5.77-4-9.23-4.22a9.54,9.54,0,0,0-3.88.6,7.37,7.37,0,0,0-2.68,1.88,18.46,18.46,0,0,0-4,7.53,9.92,9.92,0,0,0-.64,4c0,.41.26.73.26,1.12s0,.73,0,1.09a1.28,1.28,0,0,1-.06.56C145,256.1,144.72,256.41,145,256.44Z" transform="translate(-94.81 -231.43)"/><path class="cls-3" d="M134.08,265.79a11.78,11.78,0,0,0-3.68,2.64c-.18.22-.44.47-.35.77a1.25,1.25,0,0,0,.77.63,5.8,5.8,0,0,0,3.26.42,4.41,4.41,0,0,0,2.73-1.7,1.84,1.84,0,0,0-1.47-2.77c-.2,0-.36.12-.56.14a4.34,4.34,0,0,1-.51,0,.85.85,0,0,0-.39.12C133.72,266.1,133.5,266.29,134.08,265.79Z" transform="translate(-94.81 -231.43)"/><path class="cls-3" d="M106.67,284.11a5.14,5.14,0,0,0-1.39,1.52,7.73,7.73,0,0,0-.64,1.86,3.8,3.8,0,0,0-.14,1.77c.13.52.38,1.05.56,1.56a15.63,15.63,0,0,1,.59,2,10.17,10.17,0,0,0,.88,2.38,21.63,21.63,0,0,0,1.27,2.25,13,13,0,0,0,1.64,2c2.16,2.25,4.8,4.63,8,5a5.41,5.41,0,0,0,4.52-1.38,8.88,8.88,0,0,0,2.4-4.9,6.41,6.41,0,0,0-.74-4.42,20.23,20.23,0,0,0-2.23-3.11,25.12,25.12,0,0,0-1.86-1.71,22.78,22.78,0,0,0-1.89-1.65c-1.19-.87-2.34-1.79-3.53-2.65a10.75,10.75,0,0,0-3.58-1.94,4.73,4.73,0,0,0-2.81-.05,1.48,1.48,0,0,0-.88.63,2.23,2.23,0,0,0-.34.67S106.45,284,106.67,284.11Z" transform="translate(-94.81 -231.43)"/><path class="cls-3" d="M115.13,282c.05.38.09.76.14,1.14l.08.37a1,1,0,0,0,.46.13,1.63,1.63,0,0,0,1.1-.4,1.18,1.18,0,0,0,.25-1.63,1.35,1.35,0,0,0-1.27-.36c-.25.05-1.3.6-.88,1Z" transform="translate(-94.81 -231.43)"/><path class="cls-3" d="M178.55,271.6a3.77,3.77,0,0,1,.7-2c.45-.55.95-1.07,1.39-1.63a9.33,9.33,0,0,0,1.59-3.53c.26-1.12,0-2.21.49-3.29.12-.26.26-.75.53-.87a1.34,1.34,0,0,1,1,.11,5.39,5.39,0,0,1,.65.61,12.79,12.79,0,0,1,1,1,10,10,0,0,1,2.44,6.59,11.69,11.69,0,0,1-.6,3.9,8.26,8.26,0,0,1-.66,1.45,3.74,3.74,0,0,1-1.33,1.29,4.6,4.6,0,0,1-5.38-.63,7.11,7.11,0,0,1-1.07-1.71,3.94,3.94,0,0,1-.59-1.36S178.58,271.48,178.55,271.6Z" transform="translate(-94.81 -231.43)"/><path class="cls-3" d="M178.55,253.79c.27.92.4,1.93,1.35,2.41a2.38,2.38,0,0,0,.7.22.89.89,0,0,0,.6-.26c1-.73.42-2.4-.25-3.16a2.72,2.72,0,0,0-1.4-.76c-.25-.07-.19-.09-.4,0a.71.71,0,0,0-.35.28,1.14,1.14,0,0,0-.13.51,1.89,1.89,0,0,1-.1.41,1.23,1.23,0,0,0,.1.85Z" transform="translate(-94.81 -231.43)"/><path class="cls-3" d="M171.09,292.32c-.24.63-.43,1.28-.71,1.89s-.59,1.32-.87,2a48.31,48.31,0,0,0-2.62,11.22,23.32,23.32,0,0,0-.23,3,7.47,7.47,0,0,0,.28,2.31,2.43,2.43,0,0,0,1,1.28c.59.25,1.33-.24,1.83-.48a20.61,20.61,0,0,0,5.1-3.91,37.25,37.25,0,0,0,4.3-4.58,24.48,24.48,0,0,0,1.68-2.39c.4-.7.67-1.47,1-2.19s.58-1.39.9-2.07a20.2,20.2,0,0,0,1-2.57,8.15,8.15,0,0,0,.39-5.13,4.44,4.44,0,0,0-3.25-2.93,9.22,9.22,0,0,0-2.6-.36,8.62,8.62,0,0,0-2.51.61,14.51,14.51,0,0,0-2,1,4.45,4.45,0,0,0-.86.82,10.47,10.47,0,0,0-1.27,1.61,4.48,4.48,0,0,1-.57.73C170.88,292.5,170.74,293,171.09,292.32Z" transform="translate(-94.81 -231.43)"/><path class="cls-3" d="M163.64,314.17a10.22,10.22,0,0,0-2.69,1.38,11.31,11.31,0,0,0-2.71,2.59c-.27.38-.81,1-.41,1.5a1.72,1.72,0,0,0,1.39.35,5.6,5.6,0,0,0,2-.41c.6-.25,1.14-.58,1.75-.79a4.15,4.15,0,0,0,1.79-1.1c.23-.29.36-.69.57-1a1,1,0,0,0,.19-.76,2.12,2.12,0,0,0-.54-1.1,1.56,1.56,0,0,0-1-.41,2.11,2.11,0,0,0-.56.15C163,314.74,162.67,315.24,163.64,314.17Z" transform="translate(-94.81 -231.43)"/><path class="cls-3" d="M162.38,308.36a5.6,5.6,0,0,1-.37-2.11,4.09,4.09,0,0,1,.41-1.88c.15-.26.59-1.08.88-1.19a1.68,1.68,0,0,1,.5,0c.51.07.82.7.92,1.16a10.65,10.65,0,0,1,.06,2.26,4.08,4.08,0,0,1-.29,1.62c-.17.43-.51.42-.94.4a1.28,1.28,0,0,1-.92-.38c-.12-.09-.29-.13-.39-.22S162.15,307.72,162.38,308.36Z" transform="translate(-94.81 -231.43)"/><path class="cls-3" d="M161.49,278.42a8.4,8.4,0,0,0-.11,1.58c.19,0,.39.36.64.42a1.21,1.21,0,0,0,1-.35,2.21,2.21,0,0,0,.62-2.09c-.13-.7-.93-.77-1.51-.7a1.44,1.44,0,0,0-.63.25,1.29,1.29,0,0,0-.38,1.14Z" transform="translate(-94.81 -231.43)"/><path class="cls-3" d="M116.27,311a10.87,10.87,0,0,1,1-1.66,16.64,16.64,0,0,1,1.52-1.62c.66-.61,1.43-1.17,2.14-1.72s1.34-1,2-1.45a19.1,19.1,0,0,1,3.88-1.76,6.58,6.58,0,0,1,3.46-.27,6.8,6.8,0,0,1,3.22,1.75,10.36,10.36,0,0,1,2.25,2.81c1.06,2.14.65,4.46-.08,6.64a6.12,6.12,0,0,1-1.81,2.76,4.05,4.05,0,0,1-1.58.72c-.65.14-1.37.36-2,.45a18,18,0,0,1-8.49-.85,32.65,32.65,0,0,1-3.15-1.38,5.44,5.44,0,0,1-2-1.63,3.11,3.11,0,0,1-.72-1.88A8.7,8.7,0,0,1,116,311C116.17,311,116.29,310.94,116.27,311Z" transform="translate(-94.81 -231.43)"/><path class="cls-3" d="M137.75,312.27a6.09,6.09,0,0,0-.38,1.61c.19.11.18.43.32.61a.76.76,0,0,0,.59.31,3.57,3.57,0,0,0,.8,0c.39-.06.48-.2.68-.49a1.11,1.11,0,0,0,.26-.9,1.59,1.59,0,0,0-.28-.84,2.59,2.59,0,0,0-.48-.51c-.37-.27-.65-.12-1,.1Z" transform="translate(-94.81 -231.43)"/><path class="cls-3" d="M184.48,287.64a4.63,4.63,0,0,1-1.08-1.21,1.1,1.1,0,0,0,0-.57,3.71,3.71,0,0,1-.06-1.37,2.74,2.74,0,0,1,2.4-2.14A2.9,2.9,0,0,1,188,283.5a5,5,0,0,1,.64,2.32,3.21,3.21,0,0,1-.51,1.93c-.26.37-.81.39-1.23.4a4,4,0,0,1-1.45-.22C185.11,287.81,184.72,287.55,184.48,287.64Z" transform="translate(-94.81 -231.43)"/></g><path class="cls-6" d="M115.92,315.81A47.58,47.58,0,0,1,104,300.88,46.87,46.87,0,0,1,100,289.31s0,0,0,0a47.54,47.54,0,0,1,6.37-35.19,47.49,47.49,0,0,1,40-22c1,0,2.06,0,3.08.1a46.27,46.27,0,0,1,9.33,1.55,47.23,47.23,0,0,0-11.65-2.24c-1-.07-2-.1-3.08-.1a47.2,47.2,0,0,0-33,13.41,47.8,47.8,0,0,0-7,8.55,47.55,47.55,0,0,0-6.37,35.19.07.07,0,0,0,0,.05,47,47,0,0,0,4.06,11.56,47.57,47.57,0,0,0,29.92,24.35A47.17,47.17,0,0,1,115.92,315.81Z" transform="translate(-94.81 -231.43)"/><path class="cls-3" d="M102.13,273.71s26.53,10.82,40.93,10,20.52-9.12,26.27-16.65a50.07,50.07,0,0,0,7.9-16.59s-10.91,21-24.44,26.61L145,278.61a58.67,58.67,0,0,0,6.89-6.09c2.83-3.08,13.74-7.55,14.76-11.14s.9-9.49,2.67-13.27,3.52-6.89,3.52-6.89l-4.68-.81L166,245.58s-.62,8.58-2.3,13.24-18.1,17.39-21.8,19.53S105.47,276,102.13,273.71Z" transform="translate(-94.81 -231.43)"/><g class="cls-7"><path class="cls-3" d="M149.46,319.08a10.18,10.18,0,0,1,2.3-.78,1.88,1.88,0,0,1,.59.27,1.2,1.2,0,0,1,.7,1.17,3,3,0,0,1-1.82,2.09,2.28,2.28,0,0,1-2.72-.86c-.41-.75.62-2.14,1.76-2.17Z" transform="translate(-94.81 -231.43)"/><path class="cls-8" d="M127.26,271.94c-.62,1.06-2.19,3-1.72,4.55a18.54,18.54,0,0,0,1,1.95c.81,1.7,2.42,3.4,4.43,2.17,2.25-1.37,1.27-3.88.32-5.71a4.58,4.58,0,0,0-1.58-1.9,5.89,5.89,0,0,0-1.44-.51c-.75-.15-.22-.63-1-.55Z" transform="translate(-94.81 -231.43)"/><path class="cls-9" d="M142.42,237.07a6.16,6.16,0,0,0,0,1.66c.18,0,.31.12.49.12a1.35,1.35,0,0,0,.67-.26,1.43,1.43,0,0,0,.53-1.14,1,1,0,0,0-.44-1,.83.83,0,0,0-1.2.38Z" transform="translate(-94.81 -231.43)"/><path class="cls-8" d="M132.44,288.61a6.63,6.63,0,0,1,.51-1.72,2.06,2.06,0,0,1,1.06-.67,2.3,2.3,0,0,1,2.35.36,2.41,2.41,0,0,1,0,3.68,3.2,3.2,0,0,1-1.92,1,2.16,2.16,0,0,1-1.13-.12,1.83,1.83,0,0,1-.79-1,1.94,1.94,0,0,1,.29-1.77Z" transform="translate(-94.81 -231.43)"/><path class="cls-8" d="M123.72,288.1c0,.53-.3,1.77.46,2,.36.12.75-.37.81-.68a2.18,2.18,0,0,0-.09-1.08c-.19-.43-.57-.72-.92-.26Z" transform="translate(-94.81 -231.43)"/><path class="cls-8" d="M103.51,278.88a6.32,6.32,0,0,0,.57,2.83,1.36,1.36,0,0,0,.82.72c.36.06.56-.15.76-.41a1.73,1.73,0,0,0,.38-1.37,3.84,3.84,0,0,0-.41-1.55,3.29,3.29,0,0,0-.73-.85.77.77,0,0,0-.76-.25c-.46,0-.43.6-.5,1Z" transform="translate(-94.81 -231.43)"/><path class="cls-8" d="M173.75,275a5.63,5.63,0,0,1,.36-1.8,1.61,1.61,0,0,1,.51-.29,1.54,1.54,0,0,1,1.37-.07,2,2,0,0,1,1,1.92,2.13,2.13,0,0,1-2,1.52,1.34,1.34,0,0,1-1.14-1.91Z" transform="translate(-94.81 -231.43)"/><path class="cls-8" d="M125,286.22a2.68,2.68,0,0,1,.18-.9c0-.07.18-.11.26-.15a.77.77,0,0,1,.68,0,1,1,0,0,1,.52,1,1.06,1.06,0,0,1-1,.76.68.68,0,0,1-.57-1Z" transform="translate(-94.81 -231.43)"/><path class="cls-8" d="M146.62,294.87a2.68,2.68,0,0,1,.18-.9.72.72,0,0,1,.26-.14.78.78,0,0,1,.68,0,1,1,0,0,1,.52,1,1.05,1.05,0,0,1-1,.76.66.66,0,0,1-.57-.95Z" transform="translate(-94.81 -231.43)"/><path class="cls-8" d="M161.18,256.68a2.68,2.68,0,0,1,.18-.9.84.84,0,0,1,.26-.15.74.74,0,0,1,.68,0,1,1,0,0,1,.52,1,1.07,1.07,0,0,1-1,.76.68.68,0,0,1-.57-1Z" transform="translate(-94.81 -231.43)"/><path class="cls-8" d="M131.48,312.11a3,3,0,0,1,.19-.9,1,1,0,0,1,.25-.15.8.8,0,0,1,.69,0,1,1,0,0,1,.51,1,1,1,0,0,1-1,.76.67.67,0,0,1-.56-1Z" transform="translate(-94.81 -231.43)"/><path class="cls-8" d="M170.59,286.84a4.07,4.07,0,0,0-1.59,1.31,12.58,12.58,0,0,0-.92,1.48,3.64,3.64,0,0,0-.41,1.54c.1,1.24,1.65.15,2.09-.23a3,3,0,0,0,1.21-2,2.12,2.12,0,0,0-.1-1c-.05-.13-.12-.28-.18-.4C170.54,287.29,170.42,287.29,170.59,286.84Z" transform="translate(-94.81 -231.43)"/><path class="cls-8" d="M185.75,292.27a6.11,6.11,0,0,0-.11,1.52,2.53,2.53,0,0,0,.55,0c.24,0,.31-.16.5-.31.4-.3.68-.48.7-1s-.07-.72-.51-.85c-.19-.06-.28-.14-.49-.07a1.47,1.47,0,0,0-.9.86Z" transform="translate(-94.81 -231.43)"/><path class="cls-9" d="M145.49,237.33a4.41,4.41,0,0,0-.08,1,2.41,2.41,0,0,0,.38,0c.16,0,.21-.11.34-.21s.46-.32.47-.69,0-.49-.34-.58c-.13,0-.2-.09-.34,0a1,1,0,0,0-.61.59Z" transform="translate(-94.81 -231.43)"/><path class="cls-9" d="M171.15,276a4.67,4.67,0,0,0-.07,1,1.53,1.53,0,0,0,.37,0c.17,0,.21-.1.34-.2s.47-.33.48-.7-.05-.48-.35-.57c-.13,0-.19-.1-.33-.06a1,1,0,0,0-.61.59Z" transform="translate(-94.81 -231.43)"/><path class="cls-9" d="M144.09,312.86a4.37,4.37,0,0,0-1,0,2.31,2.31,0,0,0,0,.37c0,.16.13.2.25.32s.37.42.73.39.48-.09.54-.4a.5.5,0,0,0,0-.34,1,1,0,0,0-.65-.54Z" transform="translate(-94.81 -231.43)"/><path class="cls-9" d="M122.55,272.22a5.1,5.1,0,0,0-.08,1,2.41,2.41,0,0,0,.38,0c.16,0,.21-.11.34-.21s.46-.32.47-.69,0-.49-.34-.58c-.13,0-.19-.09-.34,0a1,1,0,0,0-.6.59Z" transform="translate(-94.81 -231.43)"/><path class="cls-8" d="M143.36,308.84a7.45,7.45,0,0,0-.11,1.52,3.49,3.49,0,0,0,.56,0c.24,0,.31-.16.5-.31.4-.31.68-.48.7-1s-.07-.71-.51-.85c-.19-.06-.28-.13-.49-.07a1.47,1.47,0,0,0-.9.86Z" transform="translate(-94.81 -231.43)"/></g><path class="cls-10" d="M116.9,277.65c15.35,2.42,14.4,6.48,32.21,1.62s30.57-31.64,30.57-31.64.89-2,.14-3.15c-.3-.47-2.64.5-2.64.5.4,8.6-11.63,26.36-25.22,31.47a29.51,29.51,0,0,1-4.28,1c-.64-.32-2.22-1.77,5.22-6.81,8.76-5.94,12.7-8.15,11.89-14.32s7-16,7-16h0s.57-2.6-.9-4.22c-1.9-2.09-6.07,0-6.07,0s-1.09,12.1-16.43,18.63-23.88,3.29-29.75,1.51S111,244.84,111,244.84s-5-1-6.78,2.14c-1.33,2.33.6,5.23.6,5.23s9.25,3.35,17.59,6.55,24.25.33,29.93-2.4,5.69-7.11,10.24-11.08a23.4,23.4,0,0,1,5.35-3.5s-5,7.67-4.41,13.07-2.84,5.21-11.18,14.69c-5.85,6.64-11,8.75-13.48,9.42-6.42.58-12.25-.14-20.24-2.31C105.72,273.16,98,267.56,98,267.56a1.08,1.08,0,0,0-1.55.7c-.18.52,1,2,1,2S101.56,275.22,116.9,277.65Z" transform="translate(-94.81 -231.43)"/><path class="cls-11" d="M127.69,323.05s-3.78-2.35-6.62-9.65-2.46-6.82-7.77-11.41-14.53-9.12-14.53-9.12-.62.21-.62.4c0,1,1.09,1.05,1.09,1.05s8.61,3.7,14,9.64,11.19,16.47,7,15.85c0,0,.93,2.64,3.11,3.24A8.78,8.78,0,0,0,127.69,323.05Z" transform="translate(-94.81 -231.43)"/><path class="cls-12" d="M165.41,287.76c1.76-1.88,3.89-4.41,12.51-4.46S191,285.15,191,285.15a3,3,0,0,0,2-2.81,3.88,3.88,0,0,0-1.55-3.44c-.09.72-1,5.46-8.28,2.65a12.54,12.54,0,0,0,3.15-7.2,115.59,115.59,0,0,1,2.3-11.73,3.7,3.7,0,0,0,.35-3.08c-.22-.45-1.89-.65-1.89-.65,1.45,9.67-2.21,21.32-6.19,22.66-4.83.06-10.72.9-13.39,2.66-3.28,2.17-6.57,12-8.68,18.88a19.1,19.1,0,0,1-3,5.43c-5.28,1.27-3.61-5.06-5.89-7s-6.63-.9-9.47-1.95-3.6-3.3-6.63-3.66-7.81,5.28-13.26,3-23.7-23.94-23.7-23.94-1.65-.4-2,.74c-.26.87,1.81,3.16,1.81,3.16s12.69,19.15,24.81,21.64,23.12.16,26.91,3.45,4.06,8.52,4.06,8.56c-3.94,4.18-8.57,7.78-10.76,8.88a50.86,50.86,0,0,1-10,3.21,9.26,9.26,0,0,0,4.4,2.25,5.13,5.13,0,0,0,4.36-.62s-1.54-1.34.47-3c5.12-4.26,8.75-6.12,14.06-7.38,3.22-.76,4.18.7,4.64.23h0c5,1.57,8.87-2.14,13.13-5.55a20.38,20.38,0,0,1,9.71-3.9s2.82-.48,3.56-1.73-.91-2.37-.91-2.37-2.41,1-6.95,3.29-9.42,9-15,8.78c-3.06-.11-2.42-3.21-2.71-3.65,0-.22,0-.44,0-.66h0c-.09-2.25-.56-4.29-.56-5.92a5.41,5.41,0,0,1,.11-1.17C160.49,300.72,163.65,289.64,165.41,287.76Zm-9.66,20.78a42.89,42.89,0,0,1-3.28,3.87Zm4.25,3.35a5.39,5.39,0,0,1,.09,1.55c0,.27-.08.49-.34.58s-.32.07-.47.11a6.15,6.15,0,0,1-.71.18,8.83,8.83,0,0,1-1.15,0,10.1,10.1,0,0,1-1.23,0l-.57-.1a1.87,1.87,0,0,1-.62-.14c-.41-.23-.65-.66-1-.76a2.76,2.76,0,0,1,.16-1c0-.12.08-.24.11-.36a6.25,6.25,0,0,1,.24-.6,7.7,7.7,0,0,1,.76-1.45c.15-.23.3-.46.44-.7a4.43,4.43,0,0,1,.62-.68,4.58,4.58,0,0,1,1-.83,1.63,1.63,0,0,1,1.16-.28c.36.12.51.59.65.91a5.59,5.59,0,0,1,.2.73c.08.31.22.59.29.91s.08.71.15,1.06S160,311.6,160,311.89Z" transform="translate(-94.81 -231.43)"/><path class="cls-13" d="M106.05,246a25.29,25.29,0,0,0,7.63,8.35,76.77,76.77,0,0,0-3.14-9S108.74,243.58,106.05,246Z" transform="translate(-94.81 -231.43)"/><path class="cls-13" d="M134.86,259.35s3.74-1.5,4.9-.94A26.88,26.88,0,0,1,134.86,259.35Z" transform="translate(-94.81 -231.43)"/><path class="cls-13" d="M147.36,255.89c.67-.21,1.36-.41,2-.67a13.57,13.57,0,0,0,1.68-.8,15.39,15.39,0,0,0,2-1.29c.16-.13.35-.21.51-.32l.58-.43c.17-.13.3-.31.46-.44l.5-.41c.28-.22.58-.46.84-.7a4.35,4.35,0,0,1,.38-.36.89.89,0,0,1,.27-.15c0,.09-.06.29-.1.38a3.48,3.48,0,0,1-.3.48,7.86,7.86,0,0,1-.86,1,2.81,2.81,0,0,1-.67.57,11.75,11.75,0,0,1-1.09.62c-.37.19-.77.31-1.13.52s-.69.35-1,.52a7.58,7.58,0,0,0-.68.4l-.57.34c-.29.17-.56.34-.85.49s-.32.15-.47.24a2.47,2.47,0,0,1-1.15.33,1,1,0,0,1-.42-.05s-.17-.06-.18-.13S147.26,255.87,147.36,255.89Z" transform="translate(-94.81 -231.43)"/><path class="cls-13" d="M157.45,249.4a1.47,1.47,0,0,0-.46.36c0,.1-.05.22.13.22a.65.65,0,0,0,.45-.27c.06-.07.19-.27.12-.37s-.35,0-.43.11Z" transform="translate(-94.81 -231.43)"/><path class="cls-13" d="M165.46,236.52a3,3,0,0,0-.43.62c-.07.17-.13.35-.19.52-.13.33-.2.68-.31,1-.19.62-.34,1.25-.59,1.86-.11.27-.25.53-.38.8s-.18.27-.24.42-.13.23-.19.36a1.54,1.54,0,0,1-.15.35,3,3,0,0,0-.22.39c-.07.11-.31.38-.24.53s.15-.11.19-.15.3-.25.44-.38.49-.53.74-.8a2.57,2.57,0,0,0,.28-.37c.14-.17.31-.31.44-.49s.46-.57.71-.84.2-.3.32-.44.24-.24.35-.37c.36-.39.73-.77,1.08-1.17s.53-.67.77-1,.35-.56.52-.86c.07-.11.22-.39.17-.54a.55.55,0,0,0-.46-.28,2.26,2.26,0,0,0-.86,0,4.7,4.7,0,0,0-.82.29c-.25.1-.45.28-.69.4S165.34,236.55,165.46,236.52Z" transform="translate(-94.81 -231.43)"/><path class="cls-13" d="M167.92,242.2a5.48,5.48,0,0,1-.29.6,4.27,4.27,0,0,0-.3.44l-.48.83a13.4,13.4,0,0,0-.87,1.51c-.09.21-.18.42-.29.62a4.19,4.19,0,0,0-.23.68,5.17,5.17,0,0,0-.16.68,1.15,1.15,0,0,0-.07.55c.18-.23.31-.5.47-.74a2.59,2.59,0,0,1,.37-.5,4.57,4.57,0,0,0,.43-.45,2.74,2.74,0,0,0,.38-.5c.1-.16.16-.34.27-.49s.18-.32.28-.48a3,3,0,0,0,.3-.56c.14-.39.28-.8.38-1.2a1.67,1.67,0,0,0,0-.63C168.13,242.41,167.89,242,167.92,242.2Z" transform="translate(-94.81 -231.43)"/><path class="cls-13" d="M164.65,248.69c-.07.26-.17.54-.23.8,0,.07,0,.2,0,.24s.2,0,.25,0a.67.67,0,0,0,.11-.18.74.74,0,0,0,.14-.48c0-.17-.2-.31-.34-.14Z" transform="translate(-94.81 -231.43)"/><path class="cls-13" d="M159.68,262.43a11.8,11.8,0,0,0-1.59,1.57c0,.06-.26.31-.21.41s.31,0,.39,0a9.41,9.41,0,0,0,.91-.42c.23-.12.43-.26.64-.39a6.19,6.19,0,0,0,1.28-1.17,2.29,2.29,0,0,0,.42-.64c0-.06.13-.25.1-.33-.07-.26-.7,0-.82.1a4.23,4.23,0,0,0-.41.33l-.34.25c-.09.06-.18.15-.28.22S159.6,262.63,159.68,262.43Z" transform="translate(-94.81 -231.43)"/><path class="cls-13" d="M157.26,264.89l-.54.27c0,.08-.23.23-.12.34s.27,0,.33,0a.81.81,0,0,0,.3-.22c.1-.1.09-.14,0-.25Z" transform="translate(-94.81 -231.43)"/><path class="cls-13" d="M145,276.61a10.59,10.59,0,0,1-1.39.89c-.57.3-1.18.53-1.74.85-.87.49-1.8.86-2.71,1.27-.15.06-1.5.59-1,.86a1.65,1.65,0,0,0,.73.11c.21,0,.41.06.62.07h.64a8.12,8.12,0,0,0,3.26-.69,4.53,4.53,0,0,0,.71-.32,3.38,3.38,0,0,0,.35-.31,2.5,2.5,0,0,0,.52-.72,2.32,2.32,0,0,0,.32-1.18.79.79,0,0,0-.17-.47C145.07,276.86,145,276.83,145,276.61Z" transform="translate(-94.81 -231.43)"/><path class="cls-13" d="M137.18,280a2.31,2.31,0,0,0-.79-.32.86.86,0,0,0-.28,0,1.48,1.48,0,0,0-.69.22c-.24.24.27.43.46.48a2.32,2.32,0,0,0,.79,0c.2,0,.58-.19.58-.43h-.07Z" transform="translate(-94.81 -231.43)"/><path class="cls-13" d="M151.7,276.93a18.47,18.47,0,0,0,3-1.21,11.49,11.49,0,0,0,1.08-.61c.23-.14.46-.33.7-.45s.69-.39.77-.23-.54.64-.63.73c-.25.21-.51.38-.78.57a6,6,0,0,1-.71.37,7.63,7.63,0,0,1-1,.47,4,4,0,0,1-.75.29c-.19.06-.39.13-.59.18s-.29,0-.44,0S151.83,277.2,151.7,276.93Z" transform="translate(-94.81 -231.43)"/><path class="cls-13" d="M174,282.42a12.23,12.23,0,0,0,1.6,0c.38,0,.75-.13,1.12-.17.74-.07,1.46-.26,2.2-.29.3,0,.59,0,.89,0a3.25,3.25,0,0,1,.54,0,.94.94,0,0,1,.31.17c.18.19,0,.16-.12.23a2.66,2.66,0,0,1-.77.34c-.47.1-.93.22-1.4.29-.32,0-.65,0-1,0a7.91,7.91,0,0,1-1.29.07h-1.06a6.53,6.53,0,0,1-.76-.08,1.36,1.36,0,0,1-.54-.09C173.69,282.86,173.55,282.72,174,282.42Z" transform="translate(-94.81 -231.43)"/><path class="cls-13" d="M186,282.89a5,5,0,0,0,1.59,0l1.13-.19a4.31,4.31,0,0,0,1.57-.64c.26-.17.78-.53,1.11-.43a.85.85,0,0,1,.57.67c0,.35-.37.64-.62.84a3,3,0,0,1-1.59.49,7.18,7.18,0,0,1-1.9-.2l-.57-.14A2.82,2.82,0,0,1,186,282.89Z" transform="translate(-94.81 -231.43)"/><path class="cls-13" d="M187.39,259.49c0,.43-.31,1.5.23,1.85.29.18.43-.3.43-.52s-.19-1.15-.57-1.23Z" transform="translate(-94.81 -231.43)"/><path class="cls-13" d="M98.08,269.28a5.22,5.22,0,0,0,1.41,1.54,4.76,4.76,0,0,0,1.12.58,2.6,2.6,0,0,0,1.26.16c.22-.05.27,0,.26-.25a.72.72,0,0,0-.16-.38,4.56,4.56,0,0,0-.48-.5,3.48,3.48,0,0,0-.5-.58,7.42,7.42,0,0,0-2.29-1.33c-.31-.1-.34-.14-.61,0s-.23.08-.27.34.21.62.39.89Z" transform="translate(-94.81 -231.43)"/><path class="cls-13" d="M98.46,278.63a30.48,30.48,0,0,0,2.47,3.3,26.76,26.76,0,0,0,1.72,2.39c.12.11,1.38,1.2,1.37.57a3.92,3.92,0,0,0-.44-.83,8.66,8.66,0,0,0-.7-1,8.08,8.08,0,0,1-.63-.79,5.33,5.33,0,0,0-.6-.75c-.3-.34-.47-.76-.74-1.13s-.5-.65-.74-1A2.89,2.89,0,0,0,99,278.22c-.13-.05-.34-.2-.51-.07S98.43,279,98.46,278.63Z" transform="translate(-94.81 -231.43)"/><path class="cls-13" d="M144.06,300.86a6.9,6.9,0,0,1,3-.11c.51.12,1,.28,1.52.43a2.46,2.46,0,0,1,1.05.43.7.7,0,0,1-.06.93c-.31.31-1,.24-1.37.21a11.91,11.91,0,0,1-2.3-.4,4.72,4.72,0,0,1-1.39-.63C144.3,301.59,143.87,301.23,144.06,300.86Z" transform="translate(-94.81 -231.43)"/><path class="cls-13" d="M158.59,306.55c-.54-.12-.58-1.08-.43-1.46.08-.22.21-.57.46-.66s.33.07.54.14a7.2,7.2,0,0,1-.83,1.35Z" transform="translate(-94.81 -231.43)"/><path class="cls-13" d="M178.55,306.17a6.84,6.84,0,0,1,1.95-1c.39-.12.79-.17,1.18-.29s.92-.35,1.39-.45c.17,0,.33,0,.5-.05s.1-.12.31,0c.4.22.22.51,0,.73a3.34,3.34,0,0,1-1.54.73c-.35.08-.64.28-1,.39l-.63.15A3.27,3.27,0,0,1,178.55,306.17Z" transform="translate(-94.81 -231.43)"/><path class="cls-13" d="M114.88,304.53a19.33,19.33,0,0,0,1.4,2.62c.26.37.45.74.88.91s.56.2.6-.25a1.65,1.65,0,0,0-.3-.81,18.81,18.81,0,0,0-1.34-1.84,4.15,4.15,0,0,0-.64-.74c-.16-.13-.64-.28-.6.11Z" transform="translate(-94.81 -231.43)"/><path class="cls-13" d="M133.45,324.74a22.3,22.3,0,0,0,3-.93,9,9,0,0,1,1.26-.24s.08-.09.14-.1a1.7,1.7,0,0,1,.39,0,2.27,2.27,0,0,1,.69,0c.39.29-.45,1-.63,1.25a3.61,3.61,0,0,1-2.87,1c-.51-.05-1-.33-1.48-.38-.32,0-1-.16-1-.61A2.1,2.1,0,0,1,133.45,324.74Z" transform="translate(-94.81 -231.43)"/><path class="cls-13" d="M151.77,314a9.61,9.61,0,0,0-2.67,2.15c-.46.65.39.52.77.38a3.63,3.63,0,0,0,.83-.43,5.21,5.21,0,0,0,.59-.56c.15-.15.34-.27.48-.43s.19-.53.35-.64a1.38,1.38,0,0,0-.1-.22Z" transform="translate(-94.81 -231.43)"/><path class="cls-13" d="M126,299.47a21.41,21.41,0,0,0,2-.88c.6-.32,1.17-.65,1.78-.95a6.28,6.28,0,0,1,2.53-.95c.34,0,.56-.17.88,0a1.33,1.33,0,0,1,.6.44c.46.66-.45,1.29-1,1.62a6.81,6.81,0,0,1-1.16.76c-.5.21-1,.31-1.55.49a11.57,11.57,0,0,1-2.62.77,1.86,1.86,0,0,1-1.26-.35,1.91,1.91,0,0,1-.51-.47C125.63,299.74,125.55,299.46,126,299.47Z" transform="translate(-94.81 -231.43)"/><ellipse class="cls-14" cx="143.06" cy="275.75" rx="16.83" ry="10.79" transform="translate(-190.19 -154.8) rotate(-22.71)"/></g></g></svg>