<svg id="Layer_1" data-name="Layer 1" preserveAspectRatio="xMinYMin meet" xmlns="http://www.w3.org/2000/svg" xmlns:xlink="http://www.w3.org/1999/xlink" viewBox="0 0 207.16 735.85"><defs><style>.cls-1{clip-path:url(#clip-path);}.cls-100,.cls-2,.cls-8{fill:none;}.cls-3{fill-opacity:0.5;}.cls-4{clip-path:url(#clip-path-2);}.cls-5{clip-path:url(#clip-path-3);}.cls-101,.cls-6{fill:#c1c1c1;}.cls-7{clip-path:url(#clip-path-4);}.cls-100,.cls-8{stroke:#000;}.cls-8{stroke-miterlimit:1.33;stroke-width:1.42px;}.cls-9{clip-path:url(#clip-path-5);}.cls-10{clip-path:url(#clip-path-6);}.cls-11{fill:#ffd13e;}.cls-12{clip-path:url(#clip-path-7);}.cls-13{clip-path:url(#clip-path-8);}.cls-14{clip-path:url(#clip-path-9);}.cls-15{clip-path:url(#clip-path-10);}.cls-16{clip-path:url(#clip-path-11);}.cls-17{clip-path:url(#clip-path-12);}.cls-18{fill:#efefef;}.cls-19{clip-path:url(#clip-path-13);}.cls-20{clip-path:url(#clip-path-14);}.cls-21{clip-path:url(#clip-path-15);}.cls-22{clip-path:url(#clip-path-16);}.cls-23{clip-path:url(#clip-path-17);}.cls-24{clip-path:url(#clip-path-18);}.cls-25{clip-path:url(#clip-path-19);}.cls-26{clip-path:url(#clip-path-20);}.cls-27{clip-path:url(#clip-path-21);}.cls-28{clip-path:url(#clip-path-22);}.cls-29{clip-path:url(#clip-path-23);}.cls-30{clip-path:url(#clip-path-24);}.cls-31{clip-path:url(#clip-path-25);}.cls-32{clip-path:url(#clip-path-26);}.cls-33{clip-path:url(#clip-path-27);}.cls-34{clip-path:url(#clip-path-28);}.cls-35{clip-path:url(#clip-path-29);}.cls-36{clip-path:url(#clip-path-30);}.cls-37{clip-path:url(#clip-path-31);}.cls-38{clip-path:url(#clip-path-32);}.cls-39{clip-path:url(#clip-path-33);}.cls-40{clip-path:url(#clip-path-34);}.cls-41{clip-path:url(#clip-path-35);}.cls-42{clip-path:url(#clip-path-36);}.cls-43{clip-path:url(#clip-path-37);}.cls-44{clip-path:url(#clip-path-38);}.cls-45{clip-path:url(#clip-path-39);}.cls-46{clip-path:url(#clip-path-40);}.cls-47{clip-path:url(#clip-path-41);}.cls-48{clip-path:url(#clip-path-42);}.cls-49{clip-path:url(#clip-path-43);}.cls-50{clip-path:url(#clip-path-44);}.cls-51{clip-path:url(#clip-path-45);}.cls-52{clip-path:url(#clip-path-46);}.cls-53{clip-path:url(#clip-path-47);}.cls-54{clip-path:url(#clip-path-48);}.cls-55{clip-path:url(#clip-path-49);}.cls-56{clip-path:url(#clip-path-50);}.cls-57{clip-path:url(#clip-path-51);}.cls-58{clip-path:url(#clip-path-52);}.cls-59{clip-path:url(#clip-path-53);}.cls-60{clip-path:url(#clip-path-54);}.cls-61{clip-path:url(#clip-path-55);}.cls-62{clip-path:url(#clip-path-56);}.cls-63{clip-path:url(#clip-path-57);}.cls-64{clip-path:url(#clip-path-58);}.cls-65{clip-path:url(#clip-path-59);}.cls-66{clip-path:url(#clip-path-60);}.cls-67{clip-path:url(#clip-path-61);}.cls-68{clip-path:url(#clip-path-62);}.cls-69{clip-path:url(#clip-path-63);}.cls-70{clip-path:url(#clip-path-64);}.cls-71{clip-path:url(#clip-path-65);}.cls-72{clip-path:url(#clip-path-66);}.cls-73{clip-path:url(#clip-path-67);}.cls-74{clip-path:url(#clip-path-68);}.cls-75{clip-path:url(#clip-path-69);}.cls-76{clip-path:url(#clip-path-70);}.cls-77{clip-path:url(#clip-path-71);}.cls-78{clip-path:url(#clip-path-72);}.cls-79{clip-path:url(#clip-path-73);}.cls-80{clip-path:url(#clip-path-74);}.cls-81{clip-path:url(#clip-path-75);}.cls-82{clip-path:url(#clip-path-76);}.cls-83{clip-path:url(#clip-path-77);}.cls-84{clip-path:url(#clip-path-78);}.cls-85{clip-path:url(#clip-path-79);}.cls-86{clip-path:url(#clip-path-80);}.cls-87{mask:url(#mask);}.cls-88{clip-path:url(#clip-path-81);}.cls-89{fill:#fff;}.cls-90{clip-path:url(#clip-path-82);}.cls-91{clip-path:url(#clip-path-83);}.cls-92{fill:#e53c3c;}.cls-93{clip-path:url(#clip-path-84);}.cls-94{clip-path:url(#clip-path-85);}.cls-95{mask:url(#mask-2);}.cls-96{clip-path:url(#clip-path-86);}.cls-97{clip-path:url(#clip-path-87);}.cls-98{clip-path:url(#clip-path-88);}.cls-99{clip-path:url(#clip-path-89);}.cls-100{stroke-miterlimit:1.33;stroke-width:1.42px;}.cls-101{stroke:#c2c1c0;stroke-miterlimit:10;stroke-width:0.75px;}</style><clipPath id="clip-path"><rect class="cls-2" x="-92.8" y="-19.43" width="7.1" height="209.54"/></clipPath><clipPath id="clip-path-2"><rect class="cls-2" x="-92.65" y="-19.37" width="16.34" height="196.76"/></clipPath><clipPath id="clip-path-3" transform="translate(-0.31 -2.06)"><rect class="cls-2" x="70.13" y="74.83" width="6.67" height="274.67"/></clipPath><clipPath id="clip-path-4" transform="translate(-0.31 -2.06)"><rect class="cls-2" x="71.43" y="76.1" width="4.58" height="272.55"/></clipPath><clipPath id="clip-path-5" transform="translate(-0.31 -2.06)"><rect class="cls-2" x="55.47" y="85.49" width="36" height="18.67"/></clipPath><clipPath id="clip-path-6" transform="translate(-0.31 -2.06)"><rect class="cls-2" x="56.8" y="85.94" width="34.37" height="18.17"/></clipPath><clipPath id="clip-path-7" transform="translate(-0.31 -2.06)"><rect class="cls-2" x="56.25" y="85.94" width="34.92" height="18.17"/></clipPath><clipPath id="clip-path-8" transform="translate(-0.31 -2.06)"><rect class="cls-2" x="55.47" y="325.49" width="36" height="20"/></clipPath><clipPath id="clip-path-9" transform="translate(-0.31 -2.06)"><rect class="cls-2" x="56.8" y="326.83" width="34.37" height="17.33"/></clipPath><clipPath id="clip-path-10" transform="translate(-0.31 -2.06)"><rect class="cls-2" x="56.25" y="326.43" width="34.92" height="18.17"/></clipPath><clipPath id="clip-path-11" transform="translate(-0.31 -2.06)"><rect class="cls-2" x="64.8" y="180.16" width="18.67" height="14.67"/></clipPath><clipPath id="clip-path-12" transform="translate(-0.31 -2.06)"><rect class="cls-2" x="64.96" y="181.49" width="17.17" height="12"/></clipPath><clipPath id="clip-path-13" transform="translate(-0.31 -2.06)"><rect class="cls-2" x="64.96" y="180.48" width="17.51" height="13.31"/></clipPath><clipPath id="clip-path-14" transform="translate(-0.31 -2.06)"><rect class="cls-2" x="64.8" y="186.83" width="18.67" height="14.67"/></clipPath><clipPath id="clip-path-15" transform="translate(-0.31 -2.06)"><rect class="cls-2" x="64.96" y="188.16" width="17.17" height="12"/></clipPath><clipPath id="clip-path-16" transform="translate(-0.31 -2.06)"><rect class="cls-2" x="64.96" y="187.59" width="17.51" height="13.31"/></clipPath><clipPath id="clip-path-17" transform="translate(-0.31 -2.06)"><rect class="cls-2" x="64.8" y="193.49" width="18.67" height="14.67"/></clipPath><clipPath id="clip-path-18" transform="translate(-0.31 -2.06)"><rect class="cls-2" x="64.96" y="194.83" width="17.17" height="13.17"/></clipPath><clipPath id="clip-path-19" transform="translate(-0.31 -2.06)"><rect class="cls-2" x="64.96" y="194.69" width="17.51" height="13.31"/></clipPath><clipPath id="clip-path-20" transform="translate(-0.31 -2.06)"><rect class="cls-2" x="64.8" y="201.49" width="18.67" height="14.67"/></clipPath><clipPath id="clip-path-21" transform="translate(-0.31 -2.06)"><rect class="cls-2" x="64.96" y="202.83" width="17.17" height="12"/></clipPath><clipPath id="clip-path-22" transform="translate(-0.31 -2.06)"><rect class="cls-2" x="64.96" y="201.79" width="17.51" height="13.31"/></clipPath><clipPath id="clip-path-23" transform="translate(-0.31 -2.06)"><rect class="cls-2" x="64.8" y="208.16" width="18.67" height="14.67"/></clipPath><clipPath id="clip-path-24" transform="translate(-0.31 -2.06)"><rect class="cls-2" x="64.96" y="209.49" width="17.17" height="12"/></clipPath><clipPath id="clip-path-25" transform="translate(-0.31 -2.06)"><rect class="cls-2" x="64.96" y="208.89" width="17.51" height="13.31"/></clipPath><clipPath id="clip-path-26" transform="translate(-0.31 -2.06)"><rect class="cls-2" x="64.8" y="214.83" width="18.67" height="14.67"/></clipPath><clipPath id="clip-path-27" transform="translate(-0.31 -2.06)"><rect class="cls-2" x="64.96" y="216.16" width="17.17" height="13.14"/></clipPath><clipPath id="clip-path-28" transform="translate(-0.31 -2.06)"><rect class="cls-2" x="64.96" y="215.99" width="17.51" height="13.31"/></clipPath><clipPath id="clip-path-29" transform="translate(-0.31 -2.06)"><rect class="cls-2" x="64.8" y="222.83" width="18.67" height="14.67"/></clipPath><clipPath id="clip-path-30" transform="translate(-0.31 -2.06)"><rect class="cls-2" x="64.96" y="224.16" width="17.17" height="12"/></clipPath><clipPath id="clip-path-31" transform="translate(-0.31 -2.06)"><rect class="cls-2" x="64.96" y="223.1" width="17.51" height="13.31"/></clipPath><clipPath id="clip-path-32" transform="translate(-0.31 -2.06)"><rect class="cls-2" x="64.8" y="229.49" width="18.67" height="14.67"/></clipPath><clipPath id="clip-path-33" transform="translate(-0.31 -2.06)"><rect class="cls-2" x="64.96" y="230.83" width="17.17" height="12"/></clipPath><clipPath id="clip-path-34" transform="translate(-0.31 -2.06)"><rect class="cls-2" x="64.96" y="230.2" width="17.51" height="13.31"/></clipPath><clipPath id="clip-path-35" transform="translate(-0.31 -2.06)"><rect class="cls-2" x="64.8" y="236.16" width="18.67" height="14.67"/></clipPath><clipPath id="clip-path-36" transform="translate(-0.31 -2.06)"><rect class="cls-2" x="64.96" y="237.49" width="17.17" height="12"/></clipPath><clipPath id="clip-path-37" transform="translate(-0.31 -2.06)"><rect class="cls-2" x="64.96" y="237.3" width="17.51" height="13.31"/></clipPath><clipPath id="clip-path-38" transform="translate(-0.31 -2.06)"><rect class="cls-2" x="64.8" y="244.16" width="18.67" height="14.67"/></clipPath><clipPath id="clip-path-39" transform="translate(-0.31 -2.06)"><rect class="cls-2" x="64.96" y="245.49" width="17.17" height="12"/></clipPath><clipPath id="clip-path-40" transform="translate(-0.31 -2.06)"><rect class="cls-2" x="64.96" y="244.4" width="17.51" height="13.31"/></clipPath><clipPath id="clip-path-41" transform="translate(-0.31 -2.06)"><rect class="cls-2" x="64.8" y="250.83" width="18.67" height="14.67"/></clipPath><clipPath id="clip-path-42" transform="translate(-0.31 -2.06)"><rect class="cls-2" x="64.96" y="252.16" width="17.17" height="12"/></clipPath><clipPath id="clip-path-43" transform="translate(-0.31 -2.06)"><rect class="cls-2" x="64.96" y="251.5" width="17.51" height="13.31"/></clipPath><clipPath id="clip-path-44" transform="translate(-0.31 -2.06)"><rect class="cls-2" x="64.8" y="257.49" width="18.67" height="14.67"/></clipPath><clipPath id="clip-path-45" transform="translate(-0.31 -2.06)"><rect class="cls-2" x="64.96" y="258.83" width="17.17" height="12"/></clipPath><clipPath id="clip-path-46" transform="translate(-0.31 -2.06)"><rect class="cls-2" x="64.96" y="258.61" width="17.51" height="13.31"/></clipPath><clipPath id="clip-path-47" transform="translate(-0.31 -2.06)"><rect class="cls-2" x="64.8" y="265.49" width="18.67" height="14.67"/></clipPath><clipPath id="clip-path-48" transform="translate(-0.31 -2.06)"><rect class="cls-2" x="64.96" y="266.83" width="17.17" height="12"/></clipPath><clipPath id="clip-path-49" transform="translate(-0.31 -2.06)"><rect class="cls-2" x="64.96" y="265.71" width="17.51" height="13.31"/></clipPath><clipPath id="clip-path-50" transform="translate(-0.31 -2.06)"><rect class="cls-2" x="64.8" y="272.16" width="18.67" height="14.67"/></clipPath><clipPath id="clip-path-51" transform="translate(-0.31 -2.06)"><rect class="cls-2" x="64.96" y="273.49" width="17.17" height="12"/></clipPath><clipPath id="clip-path-52" transform="translate(-0.31 -2.06)"><rect class="cls-2" x="64.96" y="272.81" width="17.51" height="13.31"/></clipPath><clipPath id="clip-path-53" transform="translate(-0.31 -2.06)"><rect class="cls-2" x="64.8" y="278.83" width="18.67" height="14.67"/></clipPath><clipPath id="clip-path-54" transform="translate(-0.31 -2.06)"><rect class="cls-2" x="64.96" y="280.16" width="17.17" height="12"/></clipPath><clipPath id="clip-path-55" transform="translate(-0.31 -2.06)"><rect class="cls-2" x="64.96" y="279.92" width="17.51" height="13.31"/></clipPath><clipPath id="clip-path-56" transform="translate(-0.31 -2.06)"><rect class="cls-2" x="64.8" y="286.83" width="18.67" height="14.67"/></clipPath><clipPath id="clip-path-57" transform="translate(-0.31 -2.06)"><rect class="cls-2" x="64.96" y="287.01" width="17.17" height="13.15"/></clipPath><clipPath id="clip-path-58" transform="translate(-0.31 -2.06)"><rect class="cls-2" x="64.96" y="287.01" width="17.51" height="13.31"/></clipPath><clipPath id="clip-path-59" transform="translate(-0.31 -2.06)"><rect class="cls-2" x="64.8" y="293.49" width="18.67" height="14.67"/></clipPath><clipPath id="clip-path-60" transform="translate(-0.31 -2.06)"><rect class="cls-2" x="64.96" y="294.83" width="17.17" height="12"/></clipPath><clipPath id="clip-path-61" transform="translate(-0.31 -2.06)"><rect class="cls-2" x="64.96" y="294.12" width="17.51" height="13.3"/></clipPath><clipPath id="clip-path-62" transform="translate(-0.31 -2.06)"><rect class="cls-2" x="64.8" y="300.16" width="18.67" height="14.67"/></clipPath><clipPath id="clip-path-63" transform="translate(-0.31 -2.06)"><rect class="cls-2" x="64.96" y="301.49" width="17.17" height="12"/></clipPath><clipPath id="clip-path-64" transform="translate(-0.31 -2.06)"><rect class="cls-2" x="64.96" y="301.22" width="17.51" height="13.31"/></clipPath><clipPath id="clip-path-65" transform="translate(-0.31 -2.06)"><rect class="cls-2" x="43.47" y="101.49" width="61.33" height="226.67"/></clipPath><clipPath id="clip-path-66" transform="translate(-0.31 -2.06)"><rect class="cls-2" x="43.53" y="102.83" width="59.94" height="225.03"/></clipPath><clipPath id="clip-path-67" transform="translate(-0.31 -2.06)"><rect class="cls-2" x="43.53" y="102.69" width="60.37" height="225.17"/></clipPath><clipPath id="clip-path-68" transform="translate(-0.31 -2.06)"><rect class="cls-2" x="51.47" y="353.49" width="44" height="54.67"/></clipPath><clipPath id="clip-path-69" transform="translate(-0.31 -2.06)"><rect class="cls-2" x="52.8" y="354.83" width="42.19" height="52"/></clipPath><clipPath id="clip-path-70" transform="translate(-0.31 -2.06)"><rect class="cls-2" x="52.34" y="354.45" width="42.65" height="52.67"/></clipPath><clipPath id="clip-path-71" transform="translate(-0.31 -2.06)"><rect class="cls-2" x="35.47" y="1.49" width="76" height="76"/></clipPath><clipPath id="clip-path-72" transform="translate(-0.31 -2.06)"><rect class="cls-2" x="36.8" y="2.07" width="74.5" height="75.17"/></clipPath><clipPath id="clip-path-73" transform="translate(-0.31 -2.06)"><rect class="cls-2" x="36.13" y="2.07" width="75.17" height="75.17"/></clipPath><clipPath id="clip-path-74" transform="translate(-0.31 -2.06)"><rect class="cls-2" x="66.13" y="345.49" width="16" height="12"/></clipPath><clipPath id="clip-path-75" transform="translate(-0.31 -2.06)"><rect class="cls-2" x="66.47" y="346.83" width="14.33" height="10.55"/></clipPath><clipPath id="clip-path-76" transform="translate(-0.31 -2.06)"><rect class="cls-2" x="66.47" y="346.33" width="14.5" height="11.04"/></clipPath><clipPath id="clip-path-77" transform="translate(-0.31 -2.06)"><rect class="cls-2" x="68.8" y="69.49" width="9.33" height="13.33"/></clipPath><clipPath id="clip-path-78" transform="translate(-0.31 -2.06)"><rect class="cls-2" x="70.13" y="70.83" width="7.38" height="11.53"/></clipPath><clipPath id="clip-path-79" transform="translate(-0.31 -2.06)"><rect class="cls-2" x="69.91" y="70.71" width="7.6" height="11.65"/></clipPath><clipPath id="clip-path-80" transform="translate(-0.31 -2.06)"><rect class="cls-2" x="91.2" y="111.24" width="7.1" height="209.54"/></clipPath><mask id="mask" x="-93.11" y="-21.49" width="190.94" height="340.21" maskUnits="userSpaceOnUse"><g transform="translate(-0.31 -2.06)"><g id="svg725104316826tikz_00001bC" data-name="svg725104316826tikz 00001bC"><g class="cls-1"><g id="svg725104316826tikz_00001aF" data-name="svg725104316826tikz 00001aF"><path class="cls-3" d="M-92.8,190.11h7.1V-19.43h-7.1Z"/></g></g></g></g></mask><clipPath id="clip-path-81" transform="translate(-0.31 -2.06)"><rect class="cls-2" x="91.2" y="111.24" width="6.94" height="209.54"/></clipPath><clipPath id="clip-path-82" transform="translate(-0.31 -2.06)"><rect class="cls-2" x="63.47" y="170.83" width="20" height="13.33"/></clipPath><clipPath id="clip-path-83" transform="translate(-0.31 -2.06)"><rect class="cls-2" x="64.8" y="172.16" width="18.4" height="11.59"/></clipPath><clipPath id="clip-path-84" transform="translate(-0.31 -2.06)"><rect class="cls-2" x="64.23" y="172.1" width="18.97" height="11.65"/></clipPath><clipPath id="clip-path-85" transform="translate(-0.31 -2.06)"><rect class="cls-2" x="191.35" y="448.63" width="16.34" height="196.76"/></clipPath><mask id="mask-2" x="-92.96" y="-21.43" width="300.12" height="664.75" maskUnits="userSpaceOnUse"><g transform="translate(-0.31 -2.06)"><g id="svg725104316826tikz_00001bH" data-name="svg725104316826tikz 00001bH"><g class="cls-4"><g id="svg725104316826tikz_00001aQ" data-name="svg725104316826tikz 00001aQ"><path class="cls-3" d="M-92.65,177.39h16.34V-19.37H-92.65Z"/></g></g></g></g></mask><clipPath id="clip-path-86" transform="translate(-0.31 -2.06)"><rect class="cls-2" x="191.47" y="448.63" width="16" height="196.76"/></clipPath><clipPath id="clip-path-87" transform="translate(-0.31 -2.06)"><rect class="cls-2" x="66.62" y="394.86" width="13.3" height="41.3" rx="6.65"/></clipPath><clipPath id="clip-path-88" transform="translate(-0.31 -2.06)"><rect class="cls-2" x="68.02" y="396.26" width="11.4" height="39.4"/></clipPath><clipPath id="clip-path-89" transform="translate(-0.31 -2.06)"><rect class="cls-2" x="67.92" y="395.66" width="11.5" height="130.8"/></clipPath></defs><g class="cls-5"><g id="svg725104316826tikz_00001ba" data-name="svg725104316826tikz 00001ba"><path class="cls-6" d="M72.14,348h3.15V76.81H72.14Z" transform="translate(-0.31 -2.06)"/><g class="cls-7"><path class="cls-8" d="M72.14,348h3.15V76.81H72.14Z" transform="translate(-0.31 -2.06)"/></g></g></g><g class="cls-9"><g id="svg725104316826tikz_00001bb" data-name="svg725104316826tikz 00001bb"><g class="cls-10"><path class="cls-11" d="M57,103.39a16.75,16.75,0,0,1,33.5,0Z" transform="translate(-0.31 -2.06)"/></g><g class="cls-12"><path class="cls-8" d="M57,103.39a16.75,16.75,0,0,1,33.5,0Z" transform="translate(-0.31 -2.06)"/></g></g></g><g class="cls-13"><g id="svg725104316826tikz_00001bc-2" data-name="svg725104316826tikz 00001bc"><g class="cls-14"><path class="cls-11" d="M90.47,327.14a16.75,16.75,0,0,1-33.5,0Z" transform="translate(-0.31 -2.06)"/></g><g class="cls-15"><path class="cls-8" d="M90.47,327.14a16.75,16.75,0,0,1-33.5,0Z" transform="translate(-0.31 -2.06)"/></g></g></g><g class="cls-16"><g id="svg725104316826tikz_00001bd" data-name="svg725104316826tikz 00001bd"><g class="cls-17"><path class="cls-18" d="M81.76,192.68l-16.09-7.57V181.6l16.09,7.57Z" transform="translate(-0.31 -2.06)"/></g><g class="cls-19"><path class="cls-8" d="M81.76,192.68l-16.09-7.57V181.6l16.09,7.57Z" transform="translate(-0.31 -2.06)"/></g></g></g><g class="cls-20"><g id="svg725104316826tikz_00001be" data-name="svg725104316826tikz 00001be"><g class="cls-21"><path class="cls-18" d="M81.76,199.77l-16.09-7.56v-3.5l16.09,7.55Z" transform="translate(-0.31 -2.06)"/></g><g class="cls-22"><path class="cls-8" d="M81.76,199.77l-16.09-7.56v-3.5l16.09,7.55Z" transform="translate(-0.31 -2.06)"/></g></g></g><g class="cls-23"><g id="svg725104316826tikz_00001bf" data-name="svg725104316826tikz 00001bf"><g class="cls-24"><path class="cls-18" d="M81.76,206.88l-16.09-7.56v-3.51l16.09,7.56Z" transform="translate(-0.31 -2.06)"/></g><g class="cls-25"><path class="cls-8" d="M81.76,206.88l-16.09-7.56v-3.51l16.09,7.56Z" transform="translate(-0.31 -2.06)"/></g></g></g><g class="cls-26"><g id="svg725104316826tikz_00001bg" data-name="svg725104316826tikz 00001bg"><g class="cls-27"><path class="cls-18" d="M81.76,214l-16.09-7.56v-3.51l16.09,7.56Z" transform="translate(-0.31 -2.06)"/></g><g class="cls-28"><path class="cls-8" d="M81.76,214l-16.09-7.56v-3.51l16.09,7.56Z" transform="translate(-0.31 -2.06)"/></g></g></g><g class="cls-29"><g id="svg725104316826tikz_00001bh-2" data-name="svg725104316826tikz 00001bh"><g class="cls-30"><path class="cls-18" d="M81.76,221.08l-16.09-7.56V210l16.09,7.56Z" transform="translate(-0.31 -2.06)"/></g><g class="cls-31"><path class="cls-8" d="M81.76,221.08l-16.09-7.56V210l16.09,7.56Z" transform="translate(-0.31 -2.06)"/></g></g></g><g class="cls-32"><g id="svg725104316826tikz_00001bi" data-name="svg725104316826tikz 00001bi"><g class="cls-33"><path class="cls-18" d="M81.76,228.18l-16.09-7.56v-3.51l16.09,7.56Z" transform="translate(-0.31 -2.06)"/></g><g class="cls-34"><path class="cls-8" d="M81.76,228.18l-16.09-7.56v-3.51l16.09,7.56Z" transform="translate(-0.31 -2.06)"/></g></g></g><g class="cls-35"><g id="svg725104316826tikz_00001bj" data-name="svg725104316826tikz 00001bj"><g class="cls-36"><path class="cls-18" d="M81.76,235.29l-16.09-7.56v-3.52l16.09,7.56Z" transform="translate(-0.31 -2.06)"/></g><g class="cls-37"><path class="cls-8" d="M81.76,235.29l-16.09-7.56v-3.52l16.09,7.56Z" transform="translate(-0.31 -2.06)"/></g></g></g><g class="cls-38"><g id="svg725104316826tikz_00001bk" data-name="svg725104316826tikz 00001bk"><g class="cls-39"><path class="cls-18" d="M81.76,242.39l-16.09-7.56v-3.51l16.09,7.56Z" transform="translate(-0.31 -2.06)"/></g><g class="cls-40"><path class="cls-8" d="M81.76,242.39l-16.09-7.56v-3.51l16.09,7.56Z" transform="translate(-0.31 -2.06)"/></g></g></g><g class="cls-41"><g id="svg725104316826tikz_00001bl" data-name="svg725104316826tikz 00001bl"><g class="cls-42"><path class="cls-18" d="M81.76,249.49l-16.09-7.56v-3.51L81.76,246Z" transform="translate(-0.31 -2.06)"/></g><g class="cls-43"><path class="cls-8" d="M81.76,249.49l-16.09-7.56v-3.51L81.76,246Z" transform="translate(-0.31 -2.06)"/></g></g></g><g class="cls-44"><g id="svg725104316826tikz_00001bm" data-name="svg725104316826tikz 00001bm"><g class="cls-45"><path class="cls-18" d="M81.76,256.59,65.67,249v-3.51l16.09,7.56Z" transform="translate(-0.31 -2.06)"/></g><g class="cls-46"><path class="cls-8" d="M81.76,256.59,65.67,249v-3.51l16.09,7.56Z" transform="translate(-0.31 -2.06)"/></g></g></g><g class="cls-47"><g id="svg725104316826tikz_00001bn" data-name="svg725104316826tikz 00001bn"><g class="cls-48"><path class="cls-18" d="M81.76,263.69l-16.09-7.56v-3.51l16.09,7.56Z" transform="translate(-0.31 -2.06)"/></g><g class="cls-49"><path class="cls-8" d="M81.76,263.69l-16.09-7.56v-3.51l16.09,7.56Z" transform="translate(-0.31 -2.06)"/></g></g></g><g class="cls-50"><g id="svg725104316826tikz_00001bo" data-name="svg725104316826tikz 00001bo"><g class="cls-51"><path class="cls-18" d="M81.76,270.8l-16.09-7.57v-3.5l16.09,7.56Z" transform="translate(-0.31 -2.06)"/></g><g class="cls-52"><path class="cls-8" d="M81.76,270.8l-16.09-7.57v-3.5l16.09,7.56Z" transform="translate(-0.31 -2.06)"/></g></g></g><g class="cls-53"><g id="svg725104316826tikz_00001bp" data-name="svg725104316826tikz 00001bp"><g class="cls-54"><path class="cls-18" d="M81.76,277.89l-16.09-7.55v-3.51l16.09,7.56Z" transform="translate(-0.31 -2.06)"/></g><g class="cls-55"><path class="cls-8" d="M81.76,277.89l-16.09-7.55v-3.51l16.09,7.56Z" transform="translate(-0.31 -2.06)"/></g></g></g><g class="cls-56"><g id="svg725104316826tikz_00001bq" data-name="svg725104316826tikz 00001bq"><g class="cls-57"><path class="cls-18" d="M81.76,285l-16.09-7.56v-3.51l16.09,7.56Z" transform="translate(-0.31 -2.06)"/></g><g class="cls-58"><path class="cls-8" d="M81.76,285l-16.09-7.56v-3.51l16.09,7.56Z" transform="translate(-0.31 -2.06)"/></g></g></g><g class="cls-59"><g id="svg725104316826tikz_00001br" data-name="svg725104316826tikz 00001br"><g class="cls-60"><path class="cls-18" d="M81.76,292.1l-16.09-7.56V281l16.09,7.56Z" transform="translate(-0.31 -2.06)"/></g><g class="cls-61"><path class="cls-8" d="M81.76,292.1l-16.09-7.56V281l16.09,7.56Z" transform="translate(-0.31 -2.06)"/></g></g></g><g class="cls-62"><g id="svg725104316826tikz_00001bs" data-name="svg725104316826tikz 00001bs"><g class="cls-63"><path class="cls-18" d="M81.76,299.2l-16.09-7.56v-3.51l16.09,7.56Z" transform="translate(-0.31 -2.06)"/></g><g class="cls-64"><path class="cls-8" d="M81.76,299.2l-16.09-7.56v-3.51l16.09,7.56Z" transform="translate(-0.31 -2.06)"/></g></g></g><g class="cls-65"><g id="svg725104316826tikz_00001bt" data-name="svg725104316826tikz 00001bt"><g class="cls-66"><path class="cls-18" d="M81.76,306.31l-16.09-7.57v-3.51l16.09,7.57Z" transform="translate(-0.31 -2.06)"/></g><g class="cls-67"><path class="cls-8" d="M81.76,306.31l-16.09-7.57v-3.51l16.09,7.57Z" transform="translate(-0.31 -2.06)"/></g></g></g><g class="cls-68"><g id="svg725104316826tikz_00001bu" data-name="svg725104316826tikz 00001bu"><g class="cls-69"><path class="cls-18" d="M81.76,313.4l-16.09-7.55v-3.51l16.09,7.55Z" transform="translate(-0.31 -2.06)"/></g><g class="cls-70"><path class="cls-8" d="M81.76,313.4l-16.09-7.55v-3.51l16.09,7.55Z" transform="translate(-0.31 -2.06)"/></g></g></g><g class="cls-71"><g id="svg725104316826tikz_00001bv" data-name="svg725104316826tikz 00001bv"><g class="cls-72"><path class="cls-11" d="M91.83,103.39H55.6a11.37,11.37,0,0,0-11.36,11.37v201A11.36,11.36,0,0,0,55.6,327.14H91.83a11.36,11.36,0,0,0,11.37-11.36v-201A11.37,11.37,0,0,0,91.83,103.39ZM78.75,307.55a5,5,0,0,1-10.07,0V123a5,5,0,0,1,10.07,0Z" transform="translate(-0.31 -2.06)"/></g><g class="cls-73"><path class="cls-8" d="M91.83,103.39H55.6a11.37,11.37,0,0,0-11.36,11.37v201A11.36,11.36,0,0,0,55.6,327.14H91.83a11.36,11.36,0,0,0,11.37-11.36v-201A11.37,11.37,0,0,0,91.83,103.39ZM78.75,307.55a5,5,0,0,1-10.07,0V123a5,5,0,0,1,10.07,0Z" transform="translate(-0.31 -2.06)"/></g></g></g><g class="cls-74"><g id="svg725104316826tikz_00001bw" data-name="svg725104316826tikz 00001bw"><g class="cls-75"><path class="cls-6" d="M75.24,355.18V365c10.05,0,17.21,7.17,18.78,16.68,2.1,12.67-7.35,24.6-20.19,24.7a20.69,20.69,0,0,1-20.77-18.77,1.78,1.78,0,1,1,3.55-.27,17.13,17.13,0,1,0,17-18.77,1.73,1.73,0,0,1-1.58-1.72V355.29Z" transform="translate(-0.31 -2.06)"/></g><g class="cls-76"><path class="cls-8" d="M75.24,355.18V365c10.05,0,17.21,7.17,18.78,16.68,2.1,12.67-7.35,24.6-20.19,24.7a20.69,20.69,0,0,1-20.77-18.77,1.78,1.78,0,1,1,3.55-.27,17.13,17.13,0,1,0,17-18.77,1.73,1.73,0,0,1-1.58-1.72V355.29Z" transform="translate(-0.31 -2.06)"/></g></g></g><g class="cls-77"><g id="svg725104316826tikz_00001bx" data-name="svg725104316826tikz 00001bx"><g class="cls-78"><path class="cls-6" d="M73.72,2.77a36.88,36.88,0,1,0,36.87,36.87A36.88,36.88,0,0,0,73.72,2.77Zm0,70.91a34,34,0,1,1,34-34A34,34,0,0,1,73.72,73.68Z" transform="translate(-0.31 -2.06)"/></g><g class="cls-79"><path class="cls-8" d="M73.72,2.77a36.88,36.88,0,1,0,36.87,36.87A36.88,36.88,0,0,0,73.72,2.77Zm0,70.91a34,34,0,1,1,34-34A34,34,0,0,1,73.72,73.68Z" transform="translate(-0.31 -2.06)"/></g></g></g><g class="cls-80"><g id="svg725104316826tikz_00001by" data-name="svg725104316826tikz 00001by"><g class="cls-81"><path class="cls-6" d="M67.18,348.64v6.43a1.6,1.6,0,0,0,1.59,1.6h9.88a1.6,1.6,0,0,0,1.6-1.6v-6.43a1.6,1.6,0,0,0-1.6-1.6H68.77A1.6,1.6,0,0,0,67.18,348.64ZM77,354.28H70.43a.51.51,0,0,1-.51-.52V350a.51.51,0,0,1,.51-.52H77a.51.51,0,0,1,.51.52v3.81A.51.51,0,0,1,77,354.28Z" transform="translate(-0.31 -2.06)"/></g><g class="cls-82"><path class="cls-8" d="M67.18,348.64v6.43a1.6,1.6,0,0,0,1.59,1.6h9.88a1.6,1.6,0,0,0,1.6-1.6v-6.43a1.6,1.6,0,0,0-1.6-1.6H68.77A1.6,1.6,0,0,0,67.18,348.64ZM77,354.28H70.43a.51.51,0,0,1-.51-.52V350a.51.51,0,0,1,.51-.52H77a.51.51,0,0,1,.51.52v3.81A.51.51,0,0,1,77,354.28Z" transform="translate(-0.31 -2.06)"/></g></g></g><g class="cls-83"><g id="svg725104316826tikz_00001bz" data-name="svg725104316826tikz 00001bz"><g class="cls-84"><path class="cls-6" d="M70.62,81.64h6.19V71.42H70.62Z" transform="translate(-0.31 -2.06)"/></g><g class="cls-85"><path class="cls-8" d="M70.62,81.64h6.19V71.42H70.62Z" transform="translate(-0.31 -2.06)"/></g></g></g><path class="cls-8" d="M96.67,307.87H84.26m12.41-26H84.26m12.41-26H84.37m12.3-26H84.37m12.3-26H84.37m12.3-26H84.37m12.3-26H84.37m12.3-26H84.37" transform="translate(-0.31 -2.06)"/><g class="cls-86"><g class="cls-87"><g class="cls-88"><g id="svg725104316826tikz_00001bB-2" data-name="svg725104316826tikz 00001bB"><path class="cls-89" d="M94.65,320.67a3.21,3.21,0,0,1-3.21-3.2V115a3.21,3.21,0,1,1,6.42,0V317.47A3.21,3.21,0,0,1,94.65,320.67Z" transform="translate(-0.31 -2.06)"/></g></g></g></g><g class="cls-90"><g id="svg725104316826tikz_00001bD-2" data-name="svg725104316826tikz 00001bD"><g class="cls-91"><path class="cls-92" d="M64.94,183.05H82.49V172.81H64.94Z" transform="translate(-0.31 -2.06)"/></g><g class="cls-93"><path class="cls-8" d="M64.94,183.05H82.49V172.81H64.94Z" transform="translate(-0.31 -2.06)"/></g></g></g><path class="cls-8" d="M64.83,177.93H82.6" transform="translate(-0.31 -2.06)"/><g class="cls-94"><g class="cls-95"><g class="cls-96"><g id="svg725104316826tikz_00001bG-2" data-name="svg725104316826tikz 00001bG"><path class="cls-89" d="M207.2,564c-.36-24.84-.41-49.69-1.19-74.52a122.13,122.13,0,0,0-2.27-20.29c-1.26-6.23,1-14.07-3-19.43a1.41,1.41,0,0,0-2.38,0c-3.4,4.57-2.06,10.94-2.48,16.31-.25,3.12-1.2,6.11-1.55,9.22s-.63,6.15-.88,9.23c-1,12.23-.84,24.64-.92,36.9-.18,24.84-.6,49.67-.61,74.51,0,14-.17,27.92,0,41.88-.07,5,3.78,7.4,7.62,7.36s7.69-2.41,7.63-7.36C207.53,613.21,207.57,588.56,207.2,564Z" transform="translate(-0.31 -2.06)"/></g></g></g></g><path d="M58.31,130.44V130c-1,0-1.35-.18-1.35-.75V123h-.48l-2.07.57V124a4.93,4.93,0,0,1,1-.15c.31,0,.41.17.41.57v4.89c0,.57-.25.75-1.33.75v.4h3.8M59,154.36h-.39c-.3.73-.43,1-1.07,1H56l-.87,0v-.08l1.4-1.36c1.25-1.22,2-2,2-3.13a2,2,0,0,0-2.28-2A2.35,2.35,0,0,0,54,150.47l.3.14a1.81,1.81,0,0,1,1.74-1A1.3,1.3,0,0,1,57.41,151c0,1.26-.59,1.94-1.85,3.19L54,155.75v.56h4.6l.38-1.95m-4.54,21.85a1.68,1.68,0,0,1,1.52-.89c.71,0,1.21.37,1.21,1.06a1.6,1.6,0,0,1-1.66,1.52h-.23v.53h.25c1.16,0,2.11.65,2.11,1.67a1.33,1.33,0,0,1-1.45,1.47,1.8,1.8,0,0,1-.94-.31c-.42-.23-.52-.29-.66-.29a.51.51,0,0,0-.5.55c0,.33.25.67,1.33.67,1.71,0,3.27-.74,3.27-2.4a2,2,0,0,0-1.73-1.94v-.06c.73-.47,1.29-.9,1.29-1.7s-.79-1.57-2-1.57a2.27,2.27,0,0,0-2.13,1.54l.32.15M59.22,206v-.92H58v-4.82h-.81l-3.6,4.89V206h3.3v1.77H58V206Zm-2.33-.92H54.35V205l2.47-3.4h.07v3.46m1.36,22.06.14-1H55.14l-.66,3.19.16.17h.56c1.59,0,2.53.49,2.53,1.93A1.46,1.46,0,0,1,56.15,233c-.71,0-1.15-.61-1.6-.61a.5.5,0,0,0-.48.54c0,.45.42.68,1.34.68,1.9,0,3.21-.83,3.21-2.69s-1.53-2.39-2.9-2.44l-.49,0,.24-1.36h2.78m.14,24.57a4.21,4.21,0,0,0-4.49,4.47c0,1.88.81,3.21,2.56,3.21a2.3,2.3,0,0,0,2.47-2.53,2.15,2.15,0,0,0-3.76-1.76h-.09a3.72,3.72,0,0,1,3.32-3Zm-.56,5.23c0,1.45-.5,2-1.3,2-1,0-1.49-.93-1.49-2.41a1.23,1.23,0,0,1,1.34-1.38c.95,0,1.45.72,1.45,1.83m1,21.15v-.47H54.37L54,279.48l.45,0c.27-.73.34-.89,1-.89H57.9l-2.63,6.45h1l2.58-7m0,31c0-1-.42-1.51-1.78-2.29v-.06c1.07-.59,1.47-1,1.47-1.82s-.92-1.61-2.1-1.61-2.3.66-2.3,1.74c0,.81.23,1.28,1.47,2.09v.05c-1,.65-1.62,1-1.62,2,0,1.22,1,1.82,2.41,1.82S58.85,310.34,58.85,309.08Zm-1.24-4.18a1.58,1.58,0,0,1-1,1.62c-1.07-.66-1.48-1-1.48-1.65s.46-1.12,1.26-1.12A1.05,1.05,0,0,1,57.61,304.9ZM56,307.39c1.44.86,1.78,1.31,1.78,2.06s-.6,1.15-1.33,1.15A1.34,1.34,0,0,1,55,309.06c0-.75.34-1.13,1-1.67m.25-197.77h-2v.25c.36,0,.52.06.65.22s.16.38.16.89v2.77h0l-3.16-4.13H50.38v.25a.85.85,0,0,1,.81.44V114c0,.86-.13,1-.81,1v.26h2V115c-.64,0-.77-.16-.77-1v-3.24h0l3.54,4.58h.28V111c0-.61.09-.85.23-1a.68.68,0,0,1,.55-.18v-.25m3.84,4.4a1.4,1.4,0,0,1-1.24.67c-.68,0-1.33-.55-1.33-1.73h2.7c0-1.2-.66-1.87-1.59-1.87s-1.8.68-1.8,2.11.79,2.13,1.82,2.13a1.7,1.7,0,0,0,1.6-1.2Zm-2.58-1.38c.07-.79.41-1.21,1-1.21s.89.58.92,1.21H57.51m9.55-1.45H65.58v.25c.31,0,.48,0,.48.22a1,1,0,0,1-.06.3l-.67,1.92-.18.49H65.1l-.15-.49L64.26,112a1,1,0,0,1-.08-.34c0-.14.1-.22.43-.22v-.25H62.82v.25c.38,0,.5.07.71.63l.09.25L63,113.88l-.18.49h-.06l-.16-.49L61.87,112a1,1,0,0,1-.1-.33c0-.14.11-.22.46-.22v-.25H60.39v.25c.37,0,.5.1.72.63l1.29,3.22h.39l1-2.49h0l.91,2.49h.4L66.42,112c.17-.44.3-.56.64-.56v-.25m2.38,3.28c-.21.24-.32.35-.6.35s-.41-.21-.41-.81v-2.46h1v-.36h-1V110h-.22a2.51,2.51,0,0,1-1,1.33v.2h.47v2.7c0,.77.25,1.08.82,1.08s.73-.26,1.06-.72l-.16-.14m2.5-3.38A1.89,1.89,0,0,0,70,113.17c0,1.39.72,2.16,1.92,2.16s1.9-.76,1.9-2.2A1.83,1.83,0,0,0,71.94,111.09Zm0,.33c.77,0,1.16.7,1.16,1.76,0,1.39-.38,1.8-1.08,1.8s-1.16-.56-1.16-1.92c0-1.1.44-1.64,1.08-1.64m6.35,1.19c0-1-.37-1.52-1.15-1.52a2.09,2.09,0,0,0-1.37.72h0v-.7h-.2l-1.08.25v.25a1,1,0,0,1,.22,0c.24,0,.37.08.37.38v2.4c0,.48,0,.63-.61.63v.24h2V115c-.62,0-.65-.15-.65-.63v-2.19a1.55,1.55,0,0,1,1-.54c.39,0,.79.16.79,1.19v1.54c0,.48,0,.63-.64.63v.24h2V115c-.57,0-.63-.15-.63-.63v-1.76m1.15,1.23,0,1.47h.18l.17-.2h0a2,2,0,0,0,1,.22c.77,0,1.44-.31,1.44-1.11,0-.63-.43-1-1.2-1.36s-1-.58-1-.91.3-.57.69-.57.84.25,1,1.06H82l0-1.31h-.17l-.15.18h0a2,2,0,0,0-.9-.22c-.74,0-1.31.38-1.31,1.08s.35.93,1.13,1.32,1,.56,1,1-.31.57-.74.57c-.63,0-1-.3-1.14-1.18H79.4m5.73-.84a4.94,4.94,0,0,0,2.75,4.53l.21-.34c-1.46-1-2-2.26-2-4.19s.51-3.23,2-4.19l-.21-.33A4.91,4.91,0,0,0,85.13,113m9.39-3.38h-2v.25c.36,0,.51.06.65.22s.16.38.16.89v2.77h0l-3.17-4.13H88.65v.25a.84.84,0,0,1,.8.44V114c0,.86-.12,1-.8,1v.26h2V115c-.64,0-.78-.16-.78-1v-3.24h0l3.55,4.58h.28V111c0-.61.09-.85.22-1a.69.69,0,0,1,.56-.18v-.25M98.25,113a4.91,4.91,0,0,0-2.75-4.52l-.21.33c1.46,1,2,2.25,2,4.19s-.51,3.24-2,4.19l.21.34A4.94,4.94,0,0,0,98.25,113" transform="translate(-0.31 -2.06)"/><g class="cls-97"><g id="svg725104316826tikz_00001bE-2" data-name="svg725104316826tikz 00001bE"><g class="cls-98"><path class="cls-6" d="M73.72,396.36a5,5,0,0,0-5,5v33.5h2.2a2.66,2.66,0,0,1,2.6-1.7,2.7,2.7,0,0,1,2.6,1.7h2.6v-33.5A5,5,0,0,0,73.72,396.36Z" transform="translate(-0.31 -2.06)"/></g><g class="cls-99"><path class="cls-100" d="M73.72,396.36a5,5,0,0,0-5,5v33.5h2.2a2.66,2.66,0,0,1,2.6-1.7,2.7,2.7,0,0,1,2.6,1.7h2.6v-33.5A5,5,0,0,0,73.72,396.36Z" transform="translate(-0.31 -2.06)"/></g></g></g><path class="cls-101" d="M136.78,736.67H12.68a12,12,0,0,1-12-12V569.27a12,12,0,0,1,12-12h124.1a12,12,0,0,1,12,12v155.5A12,12,0,0,1,136.78,736.67Z" transform="translate(-0.31 -2.06)"/><path class="cls-6" d="M76.35,434.6a3,3,0,1,1-5.8.1h-1.5V557.6l9-.1V434.6Z" transform="translate(-0.31 -2.06)"/><path class="cls-100" d="M76.48,434.9a2.79,2.79,0,0,1-2.9,2.6,2.85,2.85,0,0,1-2.9-2.5l-2.2.1V557.2l10.4-.3v-122Z" transform="translate(-0.31 -2.06)"/><path class="cls-100" d="M137,737.2H13.1a12,12,0,0,1-12-12V569.6a12,12,0,0,1,12-12H137a12,12,0,0,1,12,12V725.2A12,12,0,0,1,137,737.2Z" transform="translate(-0.31 -2.06)"/></svg>