<svg id="Layer_1" data-name="Layer 1" xmlns="http://www.w3.org/2000/svg" viewBox="0 0 331.98 223.35"><defs><style>.cls-1,.cls-2{fill:gray;}.cls-1,.cls-3,.cls-4{stroke:#000;}.cls-1,.cls-3,.cls-4,.cls-5,.cls-9{stroke-miterlimit:13.33;stroke-width:1.06px;}.cls-1,.cls-10,.cls-2,.cls-3,.cls-6{fill-rule:evenodd;}.cls-3{fill:silver;}.cls-4,.cls-5,.cls-9{fill:none;}.cls-5{stroke:blue;}.cls-6{fill:blue;}.cls-7,.cls-8{isolation:isolate;font-family:ArialMT, Arial;}.cls-7{font-size:10.68px;}.cls-8{font-size:7.48px;}.cls-9{stroke:#cc2529;}.cls-10{fill:#cc2529;}</style></defs><g id="page1"><path class="cls-1" d="M95.29,194.42,93,9.83A2.37,2.37,0,0,1,95.62,7.4l183,16a3,3,0,0,1,2.68,2.89l2.29,184.59a2.37,2.37,0,0,1-2.62,2.43l-183-16a3,3,0,0,1-2.68-2.89Zm37.18-34.69L131.12,51.1a2.36,2.36,0,0,1,2.62-2.42L241.4,58.1A3,3,0,0,1,244.08,61l1.35,108.63a2.36,2.36,0,0,1-2.62,2.42l-107.66-9.42A3,3,0,0,1,132.47,159.73Z" transform="translate(-7.13 -6.86)"/><path class="cls-2" d="M253.66,227.24l-.19-15.19a2.36,2.36,0,0,1,2.61-2.43l24.83,2.17c1.46.13,1.63.85.37,1.6L256,228.54c-1.26.75-2.29.17-2.31-1.3ZM65.73,23.76l26.34,2.3a2.35,2.35,0,0,0,2.61-2.42L94.51,10a1.5,1.5,0,0,0-2.39-1.43L65.44,22.31c-1.3.67-1.17,1.32.29,1.45Z" transform="translate(-7.13 -6.86)"/><path class="cls-3" d="M65.41,210.77,63.12,26.18a2.35,2.35,0,0,1,2.61-2.42l183,16a3,3,0,0,1,2.68,2.88l2.29,184.59a2.35,2.35,0,0,1-2.61,2.43l-183-16a3,3,0,0,1-2.68-2.89Zm37.18-34.68L101.24,67.46A2.36,2.36,0,0,1,103.85,65l107.66,9.42a3,3,0,0,1,2.68,2.89L215.54,186a2.36,2.36,0,0,1-2.61,2.43L105.27,179a3,3,0,0,1-2.68-2.88Z" transform="translate(-7.13 -6.86)"/><path class="cls-4" d="M252.93,229.08l29.89-16.36m-32.22-172,29.88-16.35m-216.63,0L93.73,8" transform="translate(-7.13 -6.86)"/><path class="cls-5" d="M65,175.45,8.49,170.51" transform="translate(-7.13 -6.86)"/><path class="cls-6" d="M36.73,173a25,25,0,0,1,6.66,3.19l.45-5.16a25,25,0,0,1-7.11,2" transform="translate(-7.13 -6.86)"/><path class="cls-5" d="M64.93,172.41l-1.29,1.06c-1.14.93-.88,1.79.59,1.91L100,178.51a11.33,11.33,0,0,0,5-.92l28.49-13.75a1.44,1.44,0,0,0,.23-2.7l-.87-.62" transform="translate(-7.13 -6.86)"/><text class="cls-7" transform="matrix(0.99, 0.09, 0.01, 1, 70.11, 181.26)">N</text><text class="cls-8" transform="matrix(0.99, 0.09, 0.01, 1, 78.64, 183.61)">p</text><text class="cls-7" transform="matrix(0.99, 0.09, 0.01, 1, 220.91, 195.18)">N</text><text class="cls-8" transform="matrix(0.99, 0.09, 0.01, 1, 229.43, 197.53)">s</text><path class="cls-5" d="M7.17,64.16,63.65,69.1" transform="translate(-7.13 -6.86)"/><path class="cls-6" d="M35.42,66.64a25,25,0,0,1-6.66-3.19l-.45,5.16a25,25,0,0,1,7.11-2" transform="translate(-7.13 -6.86)"/><text class="cls-7" transform="matrix(0.99, 0.09, 0.01, 1, 17.77, 51.82)">I</text><text class="cls-8" transform="matrix(0.99, 0.09, 0.01, 1, 22.45, 53.83)">p</text><path class="cls-9" d="M214.05,187l1.2-1.12c-1.08,1-.76,1.91.7,2l66.63,5.83" transform="translate(-7.13 -6.86)"/><path class="cls-9" d="M282.58,193.73l56.48,4.94" transform="translate(-7.13 -6.86)"/><path class="cls-10" d="M310.82,196.2a25,25,0,0,1-6.66-3.18l-.45,5.16a25,25,0,0,1,7.11-2" transform="translate(-7.13 -6.86)"/><path class="cls-9" d="M281.89,76.82l56.47,4.94" transform="translate(-7.13 -6.86)"/><path class="cls-10" d="M310.11,79.29a25.27,25.27,0,0,1-6.66-3.18L303,81.27a24.66,24.66,0,0,1,7.11-2" transform="translate(-7.13 -6.86)"/><text class="cls-7" transform="matrix(0.99, 0.09, 0.01, 1, 298.34, 66.44)">I</text><text class="cls-8" transform="matrix(0.99, 0.09, 0.01, 1, 303.01, 68.44)">s</text></g></svg>